<?xml version="1.0" encoding="utf-8"?>
<!-- Generator: Adobe Illustrator 18.1.1, SVG Export Plug-In . SVG Version: 6.00 Build 0)  -->
<svg version="1.1" id="Layer_1" xmlns="http://www.w3.org/2000/svg" xmlns:xlink="http://www.w3.org/1999/xlink" x="0px" y="0px"
	 viewBox="0 0 612 204.1" enable-background="new 0 0 612 204.1" xml:space="preserve">
<g>
	<path fill="#626262" d="M305.8,68.4c-18.6,0-33.8,15.2-33.8,33.8c0,18.6,15.2,33.8,33.8,33.8c18.6,0,33.8-15.2,33.8-33.8
		C339.6,83.4,324.6,68.4,305.8,68.4z"/>
	<polygon fill="#626262" points="164.8,71.4 154.1,112.6 179.7,112.6 169.1,71.4 	"/>
	<polygon fill="#626262" points="441.7,71.4 431,112.6 456.6,112.6 446,71.4 	"/>
	<path fill="#626262" d="M0,0v204.1h612V0H0z M192.2,161.4l-6.7-25.7h-37.1l-6.7,25.7h-32.3l35.3-117.2H190l35.6,117.2H192.2z
		 M305.8,166.6c-35.6,0-64.5-28.9-64.5-64.5s28.9-64.5,64.5-64.5c35.6,0,64.5,28.9,64.5,64.5C370.5,137.5,341.4,166.6,305.8,166.6z
		 M469.1,161.3l-6.7-25.7h-37.1l-6.7,25.7h-32.3l35.3-117.2h45.5l35.4,117.2H469.1z"/>
	<g>
		<path fill="none" stroke="#FFFFFF" stroke-width="0" stroke-linecap="round" stroke-linejoin="round" d="M272.1,102.1
			c0,18.6,15.2,33.8,33.8,33.8c18.6,0,33.8-15.2,33.8-33.8c0-18.7-15-33.8-33.8-33.8C287.3,68.4,272.1,83.6,272.1,102.1z"/>
		<path fill="none" stroke="#FFFFFF" stroke-width="0" stroke-linecap="round" stroke-linejoin="round" d="M241.3,102.1
			c0,35.6,28.9,64.5,64.5,64.5c35.6,0,64.7-29.1,64.5-64.5c0-35.6-28.9-64.5-64.5-64.5C270.2,37.6,241.3,66.5,241.3,102.1z"/>
	</g>
	<g>
		<polygon fill="none" stroke="#FFFFFF" stroke-width="0" stroke-linecap="round" stroke-linejoin="round" points="109.5,161.4 
			141.7,161.4 148.4,135.7 185.5,135.7 192.2,161.4 225.6,161.4 190,44.3 144.7,44.3 		"/>
		<polygon fill="none" stroke="#FFFFFF" stroke-width="0" stroke-linecap="round" stroke-linejoin="round" points="154.1,112.6 
			179.7,112.6 169.1,71.4 164.8,71.4 		"/>
	</g>
	<g>
		<polygon fill="none" stroke="#FFFFFF" stroke-width="0" stroke-linecap="round" stroke-linejoin="round" points="431,112.6 
			456.6,112.6 446,71.4 441.7,71.4 		"/>
		<polygon fill="none" stroke="#FFFFFF" stroke-width="0" stroke-linecap="round" stroke-linejoin="round" points="386.4,161.3 
			418.6,161.3 425.3,135.5 462.4,135.5 469.1,161.3 502.5,161.3 467.1,44.1 421.6,44.1 		"/>
	</g>
</g>
<g>
</g>
<g>
</g>
<g>
</g>
<g>
</g>
<g>
</g>
<g>
</g>
<g>
</g>
<g>
</g>
<g>
</g>
<g>
</g>
<g>
</g>
<g>
</g>
<g>
</g>
<g>
</g>
<g>
</g>
</svg>
