<?xml version="1.0" encoding="utf-8"?>
<!-- Generator: Adobe Illustrator 18.1.1, SVG Export Plug-In . SVG Version: 6.00 Build 0)  -->
<svg version="1.1" id="Layer_1" xmlns="http://www.w3.org/2000/svg" xmlns:xlink="http://www.w3.org/1999/xlink" x="0px" y="0px"
	 viewBox="0 0 3133.7 976" enable-background="new 0 0 3133.7 976" xml:space="preserve">
<g>
	<path d="M0,951.6L332.2,24.5h309l332.2,927.1H670.9l-36-122.3H332.2l-34.8,122.3H0z M484.2,303.9l-94,332.2H582L484.2,303.9z"/>
	<path d="M2053,482.9c0,315.5-212.5,493.2-486.8,493.2c-291,0-485.4-180.3-485.4-495.7c0-291,197-480.3,485.4-480.3
		C1897.2,0,2053,238.2,2053,482.9 M1384.7,482.9c0,118.5,36.1,266.6,181.5,266.6c131.3,0,182.9-113.3,182.9-266.6
		c0-126.2-51.5-260.1-185.4-256.3C1425.9,226.6,1384.7,365.7,1384.7,482.9"/>
	<path d="M2160.3,951.6l332.2-927.1h309l332.2,927.1h-302.6l-36-122.3h-302.6l-34.8,122.3H2160.3z M2644.4,303.9l-94,332.2h191.8
		L2644.4,303.9z"/>
</g>
<g>
</g>
<g>
</g>
<g>
</g>
<g>
</g>
<g>
</g>
<g>
</g>
<g>
</g>
<g>
</g>
<g>
</g>
<g>
</g>
<g>
</g>
<g>
</g>
<g>
</g>
<g>
</g>
<g>
</g>
</svg>
