<?xml version="1.0" encoding="utf-8"?>
<!-- Generator: Adobe Illustrator 18.1.1, SVG Export Plug-In . SVG Version: 6.00 Build 0)  -->
<svg version="1.1" id="Layer_1" xmlns="http://www.w3.org/2000/svg" xmlns:xlink="http://www.w3.org/1999/xlink" x="0px" y="0px"
	 viewBox="0 0 283.5 53.3" enable-background="new 0 0 283.5 53.3" xml:space="preserve">
<g>
	<path fill="#FFFFFF" d="M272.5,31.1c-0.6-1.2-1.4-1.7-2.6-1.7c-1,0-9.2,0-9.2,0c-0.9,0-1.5,0.6-1.5,1.4V31c0,1,0.8,1.4,1.5,1.4h1.3
		c-1.2,2.2-9.6,18-9.9,18.5c-0.3,0.5-1.2,2.3,1.1,2.3h1.5c1,0,1.3-0.4,1.6-1.1c0.3-0.5,2.3-4.7,2.4-4.9c0.2-0.5,0.2-0.5,0.7-0.5
		h14.7c0.5,0,0.5,0,0.7,0.5l2.4,4.8c0.3,0.6,0.7,1.2,1.8,1.2h3c2.2,0,1.7-1.6,1.4-2.1C283,50.8,272.9,31.7,272.5,31.1z M260.9,43.2
		c0.1-0.1,5.1-9.9,5.3-10.2c0-0.1,0.1-0.1,0.1-0.2c0.1-0.2,0.1-0.3,0.5-0.3c0.4,0,0.4,0.1,0.5,0.4l0.1,0.1c0.2,0.4,5.2,9.8,5.4,10.3
		c0,0,0,0,0,0L260.9,43.2C260.8,43.3,260.8,43.3,260.9,43.2z"/>
	<path fill="#FFFFFF" d="M246.3,29.3h-4.9c-1,0-1.5,0.5-1.5,1.4V31c0,0.3,0.1,1.4,1.5,1.4h1.1v19.1c0,0.9,0.2,1.8,1.8,1.8h2.1
		c1.6,0,1.8-0.9,1.8-1.8V31.2C248.1,29.9,247.6,29.4,246.3,29.3z"/>
	<path fill="#FFFFFF" d="M170.7,32.2c-0.1-1.7-1.1-2.8-2.5-2.8h-4.9c-1.4,0-2.2,0.6-2.7,1.8c-0.3,0.8-2.4,7-4.2,11.9
		c-1,2.9-1.9,5.4-2.1,6.1c-0.3-0.9-1.5-4.3-2.7-7.8c-1.6-4.6-3.4-9.6-3.5-10.2c-0.4-1-1.5-1.8-2.7-1.8c-0.4,0-8.8,0-8.8,0
		c-1.3,0-1.5,1-1.5,1.4V31c0,0.7,0.4,1.4,1.5,1.4h1.3c-0.2,1.9-1.8,18.5-1.9,19c-0.2,1.9,0.8,1.9,1.5,1.9h1.5c1,0,1.4-0.2,1.5-1.9
		c0,0,1.5-18.3,1.5-18.5c0-0.4,0.1-0.4,0.2-0.4c0.2,0,0.2,0,0.4,0.4c0,0.1,6,17,6.5,18.5c0.6,1.7,2.2,1.8,2.7,1.8h3.4
		c1.3,0,2.2-0.6,2.7-1.8c0.3-0.7,6.4-18.4,6.5-18.5c0.1-0.4,0.2-0.4,0.4-0.4c0.3,0,0.3,0,0.3,0.4c0,0.1,1.5,18.3,1.6,18.9
		c0.1,1,0.6,1.4,1.6,1.4h2.6c0.6,0,1.6-0.1,1.5-1.6C172.3,51.5,170.8,33.2,170.7,32.2z"/>
	<path fill="#FFFFFF" d="M221.8,29.3h-14.5c-1,0-1.5,0.5-1.5,1.4V31c0,0.9,0.5,1.4,1.5,1.4h1v17.9c0,1.6,1.2,2.9,2.7,2.9h10.7
		c12.1,0,14.4-4.1,14.4-12.3C236.1,33.5,233.8,29.3,221.8,29.3z M230,41c0,6.9-2,8.8-9.4,8.8h-6.6c0,0-0.1,0-0.1-0.1V32.9
		c0-0.1,0-0.2,0.1-0.2h6.5C227.7,32.7,230,33.9,230,41z"/>
	<path fill="#FFFFFF" d="M85.1,13.4c-0.4-0.1-0.5-0.1-0.5-0.3c0-0.2,0.1-0.2,0.5-0.3c3.1-0.7,5.4-1.9,5.4-5.8c0-5.8-5-6.6-9.4-6.6
		h-17c-0.7,0-1.5,0.4-1.5,1.4v0.2c0,1,0.8,1.4,1.5,1.4h1v19.1c0,1.3,0.5,1.8,1.8,1.8H69c1.2,0,1.8-0.6,1.8-1.8V15c0,0,0-0.1,0.1-0.1
		l8,0.2c2.5,0.1,5.9,0.3,6.1,3.4l0.2,4.1c0.1,1.3,0.6,1.8,1.9,1.8h2.2c0.7,0,1.2-0.2,1.5-0.5c0.3-0.3,0.4-0.7,0.4-1.2L90.8,19
		C90.5,14.6,87.9,13.9,85.1,13.4z M84.6,7.6c0.1,3.6-3.3,3.8-6.3,3.9l-7.5,0.2c-0.1,0-0.1,0-0.1-0.1V3.9c0,0,0-0.1,0.1-0.1h9.1
		C84.1,3.9,84.5,5.6,84.6,7.6z"/>
	<path fill="#FFFFFF" d="M256.6,23.7c0.2-0.4,0-0.9-0.4-1.3c-0.5-0.5-10.4-9.7-11.7-10.9L255,2.3c0.3-0.3,0.5-0.8,0.3-1.2
		c-0.2-0.4-0.6-0.6-1.1-0.6h-2.7c-0.6,0-0.9,0.2-1.3,0.5c-0.3,0.3-9.9,9-10.1,9.2c-0.4,0.3-0.5,0.4-1.8,0.5
		c-1.5,0.1-2.2,0.1-2.2,0.1c0,0,0,0,0-0.1V2.3c0-1.2-0.6-1.8-1.8-1.8h-4.9c-1.2,0-1.5,0.9-1.5,1.4v0.2c0,0.9,0.5,1.4,1.5,1.4h1v19.1
		c0,1.2,0.6,1.8,1.8,1.8h2.2c1.2,0,1.8-0.6,1.8-1.8c0,0,0-8.3,0-8.5c0-0.1,0-0.1,0-0.1s0,0,0.1,0c0.2,0,1.6,0,2.3,0.1
		c1,0.1,1.4,0.1,1.8,0.5c0.3,0.3,6.8,6.9,8.9,9c0.5,0.5,0.8,0.8,1.8,0.8h4.5C256,24.4,256.4,24.1,256.6,23.7z"/>
	<path fill="#FFFFFF" d="M23.5,12.1C23,12.1,23,12,23,11.8c0-0.2,0-0.3,0.5-0.3c3.6-0.7,5.3-2.3,5.3-5.1c0-2.8-1-6-9.2-6H1.5
		C0.8,0.4,0,0.8,0,1.9v0.2c0,1,0.8,1.4,1.5,1.4h1v17.9c0,1.7,1.2,2.9,2.9,2.9H19c2.7,0,10.8,0,10.8-6.4
		C29.8,13.3,26.1,12.6,23.5,12.1z M8.2,3.8c0,0,10.4,0,10.4,0c3.8,0,4.1,1.6,4.1,3.2c0,2.5-1.9,3.1-4.9,3.3
		c-2.8,0.2-9.5,0.3-9.6,0.3c-0.1,0-0.1,0-0.1-0.1L8.2,3.8C8.2,3.8,8.2,3.8,8.2,3.8L8.2,3.8z M8.2,13.7C8.2,13.7,8.2,13.6,8.2,13.7
		l0.1-0.1c0.7,0,5.3,0.1,9.6,0.3c5,0.3,5.8,1.3,5.8,3.7c0,3-2.8,3.4-5.3,3.4H8.2c0,0-0.1,0-0.1-0.1V13.7z"/>
	<path fill="#FFFFFF" d="M57.3,0.4H35c-0.9,0-1.5,0.6-1.5,1.4v0.2c0,0.9,0.5,1.4,1.5,1.4c0.3,0,0.8,0,1,0v17.9
		c0,1.6,1.2,2.9,2.7,2.9h18.6c1.2,0,1.7-0.4,1.7-1.6v-0.4c0-1-0.3-1.6-1.7-1.6c0,0-15.5,0-15.5,0c0,0-0.1,0-0.1-0.1v-7.2
		c0,0,0-0.1,0.1-0.1h11.1c1.5,0,1.7-0.6,1.7-1.6v-0.4c0-0.9-0.1-1.6-1.7-1.6H41.8c0,0-0.1,0-0.1-0.1V4.1c0-0.1,0-0.1,0.1-0.1h15.5
		C59,4,59,3.1,59,2.4V2.1C59,1.4,59,0.4,57.3,0.4z"/>
	<path fill="#FFFFFF" d="M118.9,22.2c0-0.9-0.1-1.6-1.7-1.6h-13.8c0,0-0.1,0-0.1-0.1V2.3c0-1.1-0.3-1.8-1.7-1.8h-5
		c-1.1,0-1.5,0.8-1.5,1.4v0.2c0,0.7,0.5,1.4,1.5,1.4h1v18c0,1.6,1.2,2.9,2.7,2.9h16.9c1.5,0,1.7-0.7,1.7-1.6
		C118.9,22.6,118.9,22.4,118.9,22.2z"/>
	<path fill="#FFFFFF" d="M125.5,0.4h-4.9c-1.3,0-1.5,0.9-1.5,1.4v0.2c0,0.3,0.1,1.4,1.5,1.4h1.1v19.1c0,0.9,0.2,1.8,1.8,1.8h2.1
		c1.6,0,1.8-0.9,1.8-1.8V2.3C127.3,1,126.8,0.5,125.5,0.4z"/>
	<path fill="#FFFFFF" d="M135.1,22.5c0,1.4,0.4,1.9,1.6,1.9h1.2c1.2,0,1.5-0.5,1.5-1.9c0-0.8-0.1-18.4-0.1-18.5c0-0.3,0-0.3,0.2-0.3
		c0.1,0,0.2,0.1,0.4,0.4c0.2,0.2,11.2,17.6,12,18.9c0.6,1,1.5,1.5,2.7,1.5c0.5,0,3.9,0,4.7,0c1.6,0,2.6-1.1,2.6-2.9
		c0-0.9,0.1-18.6,0.1-19.2c0-1.3-0.4-1.8-1.5-1.8h-1.3c-1.2,0-1.6,0.5-1.6,1.8c0,1,0.1,18.4,0.1,18.5c0,0.3,0,0.3-0.2,0.3
		c-0.1,0-0.2-0.1-0.4-0.4c-0.1-0.2-11.7-18.3-12-18.8c-0.6-1-1.4-1.4-2.6-1.4h-8.5c-1.1,0-1.5,0.7-1.5,1.4v0.2
		c0,0.9,0.6,1.4,1.5,1.4h1l0,0.5C135.1,18.5,135.1,22,135.1,22.5z"/>
	<path fill="#FFFFFF" d="M183.1,24.8c3.4,0,6.3-0.3,8.7-0.8c2.2-0.5,2.5-1.6,2.5-4.1V13c0-1.8-1.2-2.4-2.3-2.4
		c-0.4,0-6.9,0.1-7.5,0.1c-1.8,0-1.8,1.1-1.8,1.7v0.5c0,1,0.2,1.5,1.7,1.6c0.8,0.1,3.8,0.2,3.8,0.2c0.2,0,0.2,0,0.2,0.4v5.7
		c0,0.2,0,0.2-0.1,0.2c-1.4,0.2-3.6,0.4-5.8,0.4c-6,0-9.3-1.5-9.3-9.2c0-7.2,3.5-8.6,10.3-8.6c3.1,0,9.1,0.7,9.2,0.7
		c0.8,0,1-0.5,1-0.9C194,2.6,194,2.1,194,2c0-0.6-0.3-1-0.9-1.1c0,0-3.3-0.9-10.6-0.9c-10.2,0-15.1,4-15.1,12.2
		C167.4,22.8,172.9,24.8,183.1,24.8z"/>
	<path fill="#FFFFFF" d="M211.1,21.1c-4.7-0.2-10.3-1.4-10.4-1.4c-0.6,0-1,0.3-1.1,0.9c0,0-0.2,1.8-0.2,1.9
		c-0.1,0.9,0.8,1.1,1.1,1.2c0.4,0.1,7.2,1.1,12.9,1.1l0,0c1.9,0,10.8,0.2,10.8-7.6c0-6.7-5.5-7.3-11.4-7.7c-7.1-0.5-7.9-0.8-7.9-3
		c0-1.7,0.9-2.9,7.3-2.8c4.3,0.1,9.4,0.9,9.5,0.9c0.6,0,1-0.3,1.1-0.9c0-0.2,0.2-1.6,0.2-1.7c0-0.4-0.3-1-1-1.1
		C219.5,0.5,215.8,0,212,0c-6.4,0-12.6,0.5-12.6,7.1c0,6.4,4,6.8,12.2,7.8c5.4,0.7,7.1,0.2,7.1,3.1
		C218.8,20.2,216.9,21.4,211.1,21.1z"/>
</g>
<path fill="#FFFFFF" d="M281.8,0.4h-22.3c-0.9,0-1.5,0.6-1.5,1.4v0.2c0,0.9,0.5,1.4,1.5,1.4c0.3,0,0.8,0,1,0v17.9
	c0,1.6,1.2,2.9,2.7,2.9h18.6c1.2,0,1.7-0.4,1.7-1.6v-0.4c0-1-0.3-1.6-1.7-1.6c0,0-15.5,0-15.5,0c0,0-0.1,0-0.1-0.1v-7.2
	c0,0,0-0.1,0.1-0.1h11.1c1.5,0,1.7-0.6,1.7-1.6v-0.4c0-0.9-0.1-1.6-1.7-1.6h-11.1c0,0-0.1,0-0.1-0.1V4.1c0-0.1,0-0.1,0.1-0.1h15.5
	c1.7,0,1.7-1,1.7-1.6V2.1C283.5,1.4,283.5,0.4,281.8,0.4z"/>
<path fill="#FFFFFF" d="M200.9,29.3h-22.3c-0.9,0-1.5,0.6-1.5,1.4V31c0,0.9,0.5,1.4,1.5,1.4c0.3,0,0.8,0,1,0v17.9
	c0,1.6,1.2,2.9,2.7,2.9h18.6c1.2,0,1.7-0.4,1.7-1.6v-0.4c0-1-0.3-1.6-1.7-1.6c0,0-15.5,0-15.5,0c0,0-0.1,0-0.1-0.1v-7.2
	c0,0,0-0.1,0.1-0.1h11.1c1.5,0,1.7-0.6,1.7-1.6v-0.4c0-0.9-0.1-1.6-1.7-1.6h-11.1c0,0-0.1,0-0.1-0.1V33c0-0.1,0-0.1,0.1-0.1h15.5
	c1.7,0,1.7-1,1.7-1.6V31C202.6,30.3,202.6,29.3,200.9,29.3z"/>
<g>
</g>
<g>
</g>
<g>
</g>
<g>
</g>
<g>
</g>
<g>
</g>
<g>
</g>
<g>
</g>
<g>
</g>
<g>
</g>
<g>
</g>
<g>
</g>
<g>
</g>
<g>
</g>
<g>
</g>
</svg>
