<?xml version="1.0" encoding="utf-8"?>
<!-- Generator: Adobe Illustrator 18.1.1, SVG Export Plug-In . SVG Version: 6.00 Build 0)  -->
<svg version="1.1" id="Layer_1" xmlns="http://www.w3.org/2000/svg" xmlns:xlink="http://www.w3.org/1999/xlink" x="0px" y="0px"
	 viewBox="0 0 213 53.3" enable-background="new 0 0 213 53.3" xml:space="preserve">
<g>
	<path fill="#626262" d="M35.5,26.4v-0.1c1.9-0.8,3.1-1.9,3.1-4c0-1.9-1.6-3.2-3.5-3.2h-1.2v15h0.7c2.1,0,4.3-1.3,4.3-3.6
		C38.9,28.2,37.4,26.8,35.5,26.4z"/>
	<path fill="#626262" d="M0,0v53.3h213V0H0z M34.9,35.3h-7.2v-0.1c1.5-0.8,1.7-1.5,1.7-3.5V21.3c0-1.9-0.3-2.5-1.7-3.3v-0.1h7.9
		c5.1,0,7.5,1.1,7.5,4.1c0,2.3-2.4,3.9-4.3,4.1c2.7,0.1,5.1,1.7,5.1,4C43.8,33.8,40.5,35.3,34.9,35.3z M58.4,35.4H44.6v-0.1
		c1.6-0.8,1.7-1.5,1.7-3.5V21.4c0-1.9-0.1-2.5-1.7-3.3V18h13v4.8h-0.1c-1.7-2.8-2.7-3.6-4.8-3.6h-1.9V26h0.8c2.1,0,3.2-0.7,4.4-2.3
		h0.1v5.6H56c-1.2-1.6-2.3-2.3-4.4-2.3h-0.8v7.1h1.7c2.5,0,2.9-0.3,5.7-4h0.1V35.4z M77.6,35.3h-3.3c-3.2,0-3.5-0.1-4.5-2.4
		l-2.9-6.1c2-0.5,3.5-1.9,3.5-4.1c0-2.7-1.7-3.6-3.6-3.6h-0.4v12.6c0,1.9,0.1,2.7,1.7,3.5v0.1h-8.1v-0.1c1.6-0.8,1.7-1.5,1.7-3.5
		V21.3c0-1.9-0.1-2.5-1.7-3.3v-0.1h7.6c6.1,0,7.5,1.6,7.5,4.4c0,2.3-2.3,3.7-3.7,4.1l3.5,6c1.3,2.3,2.1,2.5,2.9,2.8V35.3z
		 M90.4,35.4H77.9v-0.1c1.3-0.8,1.5-1.5,1.5-3.5V21.3c0-1.9-0.1-2.5-1.7-3.3v-0.1h8.3V18c-1.9,0.7-2,1.5-2,3.3v12.8h0.8
		c2.5,0,2.9-0.3,5.6-4h0.1V35.4z M99.3,18c-1.6,0.7-1.7,1.5-1.7,3.3v10.5c0,2,0.1,2.7,1.7,3.5v0.1h-8.1v-0.1
		c1.6-0.8,1.7-1.5,1.7-3.5V21.3c0-1.9-0.1-2.5-1.7-3.3l8.1-0.1V18z M120.6,18c-1.6,0.7-2.3,1.5-2.3,5.9v11.7h-2.1l-11.6-13.2v6.8
		c0,4.4,0.7,5.2,2.3,6v0.1h-6.4v-0.1c1.6-0.8,2.3-1.6,2.3-6V24c0-4.4-0.9-5.2-2.5-6v-0.1h6.5l9.9,10.8v-4.8c0-4.4-0.7-5.1-2.1-5.9
		l6.1-0.1V18z M138.9,26.9c-1.2,0.8-1.3,1.1-1.3,2.8v5.1h-0.1c-1.3,0.4-4.3,1.1-6.3,1.1c-4.7,0-10-3.1-10-8.9c0-6,5.9-9.3,10.4-9.3
		c2.8,0,4.8,0.7,5.6,1.1v4.3H137c-1.7-2.5-3.9-4.3-5.9-4.3c-3.1,0-4.9,3.3-4.9,7.9c0,5.3,2.4,7.9,5.5,7.9c0.7,0,1.2,0,1.7-0.1v-4.5
		c0-1.1-0.1-2-1.6-2.8l7.1-0.1V26.9z M145.4,35.5c-2.1,0-4.5-0.4-5.7-1.2v-4.9h0.1c1.7,2.8,3.6,5.1,5.6,5.1c1.3,0,2.8-0.9,2.8-2.5
		c0-3.1-8.4-4.4-8.4-9.5c0-3.1,3.2-5.1,6.3-5.1c2.1,0,4,0.7,4.9,1.1v4.4h-0.1c-1.5-2.4-3.1-4.3-4.8-4.3c-1.1,0-2.3,0.9-2.3,2.4
		c0,3.2,8.3,4,8.1,8.9C151.9,33.5,148.8,35.5,145.4,35.5z M161.2,35.4h-8v-0.1c1.6-0.8,1.7-1.5,1.7-3.5V21.3c0-1.9-0.1-2.5-1.7-3.3
		v-0.1h8V18c-1.6,0.7-1.7,1.5-1.7,3.3v10.5c0,1.9,0.1,2.5,1.7,3.5V35.4z M171.2,35.3h-4.5c-1.7,0-2.3-0.1-4-3.5l-2.7-5.1l3.6-4.7
		c1.7-2.1,1.5-3.5-0.8-4.1v-0.1h8V18c-1.7,0.7-2.9,1.3-5.3,4.1l-2,2.4l4.8,7.7c1.3,2,2,2.7,2.9,2.9V35.3z M185.2,35.4h-13.8v-0.1
		c1.6-0.8,1.7-1.5,1.7-3.5V21.4c0-1.9-0.1-2.5-1.7-3.3V18h13.2v4.8h-0.1c-1.7-2.8-2.7-3.6-4.8-3.6h-1.7V26h0.8
		c2.1,0,3.2-0.7,4.4-2.3h0.1v5.6h-0.1c-1.2-1.6-2.3-2.3-4.4-2.3h-0.8v7.1h1.7c2.5,0,2.9-0.1,5.6-4V35.4z"/>
</g>
<g>
</g>
<g>
</g>
<g>
</g>
<g>
</g>
<g>
</g>
<g>
</g>
<g>
</g>
<g>
</g>
<g>
</g>
<g>
</g>
<g>
</g>
<g>
</g>
<g>
</g>
<g>
</g>
<g>
</g>
</svg>
