<?xml version="1.0" encoding="UTF-8" standalone="no"?>
<svg
   xmlns:dc="http://purl.org/dc/elements/1.1/"
   xmlns:cc="http://creativecommons.org/ns#"
   xmlns:rdf="http://www.w3.org/1999/02/22-rdf-syntax-ns#"
   xmlns:svg="http://www.w3.org/2000/svg"
   xmlns="http://www.w3.org/2000/svg"
   viewBox="0 0 567.52002 217.03999"
   height="217.03999"
   width="567.52002"
   xml:space="preserve"
   id="svg2"
   version="1.1"><metadata
     id="metadata8"><rdf:RDF><cc:Work
         rdf:about=""><dc:format>image/svg+xml</dc:format><dc:type
           rdf:resource="http://purl.org/dc/dcmitype/StillImage" /></cc:Work></rdf:RDF></metadata><defs
     id="defs6"><clipPath
       id="clipPath20"
       clipPathUnits="userSpaceOnUse"><path
         id="path18"
         d="M 0,0 H 4256 V 1627.75 H 0 Z" /></clipPath></defs><g
     transform="matrix(1.3333333,0,0,-1.3333333,0,217.04)"
     id="g10"><g
       transform="scale(0.1)"
       id="g12"><g
         id="g14"><g
           clip-path="url(#clipPath20)"
           id="g16"><path
             id="path22"
             style="fill:#1da7e7;fill-opacity:1;fill-rule:nonzero;stroke:none"
             d="M 752.891,1627.75 V 68.6914 c 0,0 0,-56.6914 56.687,-56.6914 H 2283.59 c 0,0 56.7,0 56.7,56.6914 V 1627.75 H 752.891" /><path
             id="path24"
             style="fill:#ffffff;fill-opacity:1;fill-rule:nonzero;stroke:none"
             d="m 1081.38,877.047 -76.19,115 0.75,2.391 c 34.53,13.582 51.79,40.732 51.79,75.872 0,63.08 -38.66,86.24 -98.332,86.24 H 865.559 V 877.047 h 53.679 v 104.609 h 31.899 L 1014.2,877.047 Z m -79.95,192.463 c 0,-35.94 -16.512,-46.72 -48.41,-46.72 h -33.782 v 93.43 h 33.782 c 31.898,0 48.41,-10.78 48.41,-46.71 m 260.15,-191.662 v 143.342 c 0,64.69 -52.18,70.28 -99.09,69.88 -21.02,0 -52.92,-3.59 -69.44,-7.59 v -39.53 c 13.51,3.19 40.16,7.59 66.43,7.59 48.42,0 48.8,-14.77 48.8,-47.52 h -13.14 c -53.3,0 -115.23,-2.39 -115.23,-63.477 0,-58.301 43.17,-67.078 90.83,-67.883 h 12.77 c 24.77,0 49.16,1.594 78.07,5.188 m -53.3,33.547 c -10.51,-1.602 -19.52,-2.407 -30.78,-2.407 -22.14,0 -41.66,1.606 -41.66,29.555 0,27.945 19.52,29.551 41.66,29.551 5.63,0 24.02,0 30.78,-0.403 z m 272.11,-34.348 v 147.343 c 0,48.31 -32.28,65.48 -60.43,65.48 -25.9,0 -53.3,-11.18 -75.44,-21.96 v 18.77 h -48.04 V 877.047 h 53.29 v 155.323 c 5.63,2.8 30.4,11.98 49.17,11.98 27.03,0 28.15,-19.96 28.15,-30.74 V 877.047 Z m 214.35,5.195 v 294.678 h -53.3 v -88.65 c -14.26,1.6 -26.65,2 -33.4,2 -63.81,0 -103.6,-43.13 -103.6,-109.805 0,-71.477 49.92,-106.61 112.98,-106.61 27.4,0 64.18,5.196 77.32,8.387 m -53.3,34.336 c -11.64,-1.601 -22.14,-2.402 -33.78,-2.004 -37.91,1.203 -48.79,36.34 -48.79,65.891 0,39.535 13.51,69.475 52.92,69.475 14.64,0 29.65,-1.59 29.65,-1.59 z m 191.27,-44.316 c 36.78,0 69.81,8.379 69.81,8.379 v 35.937 c -16.89,-3.594 -33.78,-7.187 -56.68,-7.187 -33.03,0 -65.68,9.589 -69.06,56.699 h 141.13 c 1.5,83.85 -23.27,124.98 -96.84,124.98 -67.56,0 -100.59,-43.12 -100.59,-111.406 0,-80.254 50.3,-107.402 112.23,-107.402 m 27.4,128.968 h -83.33 c 0,28.34 11.26,53.5 41.66,53.5 35.29,0 41.67,-26.75 41.67,-53.5 m 205.49,40.73 v 46.31 c -18.39,0 -41.67,1.6 -76.95,-20.76 -0.37,0 0,19.17 0,19.17 h -47.29 V 877.047 h 53.3 v 151.333 c 19.14,14.38 51.42,13.58 70.94,13.58 m 176.06,-97.831 c 0,44.715 -42.03,55.496 -67.19,60.691 -19.14,3.99 -48.03,7.19 -48.03,26.36 0,19.56 26.27,22.76 43.16,22.76 25.15,0 52.92,-5.59 58.54,-6.8 v 37.54 c -9,1.2 -31.15,5.99 -69.06,5.99 -36.02,0 -87.07,-12.38 -87.07,-64.68 0,-49.119 50.67,-58.697 61.56,-61.502 31.53,-7.176 51.79,-8.379 51.79,-28.347 0,-20.364 -27.77,-25.149 -47.66,-25.149 -23.27,0 -44.29,5.188 -64.19,9.981 v -39.532 c 19.52,-4.394 45.04,-8.379 72.44,-8.379 58.18,0 95.71,26.348 95.71,71.067" /><path
             id="path26"
             style="fill:#231f20;fill-opacity:1;fill-rule:nonzero;stroke:none"
             d="M 728.109,12.1016 469.551,782.293 H 269.941 L 0,12.1016 H 161.344 L 216.16,188.141 H 508.852 L 564.703,12.1016 Z M 474.723,298.172 H 250.293 L 354.75,651.355 h 18.609 z M 1551.99,12.1016 V 418.102 c 0,140.828 -97.22,181.527 -177.89,181.527 -64.13,0 -137.56,-34.098 -190.31,-60.5 -32.06,41.812 -83.77,59.41 -129.28,59.41 -61.018,0 -120.998,-33.008 -170.647,-60.508 v 51.707 H 751.48 V 12.1016 H 898.34 V 451.109 c 21.719,8.801 50.68,22 98.262,22 68.258,0 77.558,-50.609 77.558,-84.73 V 12.1016 h 146.87 V 451.109 c 15.51,7.692 54.81,22 106.53,22 71.36,0 77.56,-56.109 77.56,-84.73 V 12.1016 Z M 1998.77,477.512 V 589.738 H 1833.29 V 792.191 C 1809.5,783.387 1691.6,741.578 1691.6,741.578 V 589.738 H 1581.97 V 477.512 H 1691.6 V 168.34 c 0,-156.2384 83.77,-156.2384 177.89,-156.2384 h 117.9 V 123.23 h -99.29 c -27.92,0 -54.81,9.899 -54.81,55.008 v 299.274 z m 482.88,-280.571 c 0,123.231 -115.84,152.938 -185.15,167.239 -52.73,11.011 -132.37,19.808 -132.37,72.621 0,53.91 72.4,62.719 118.94,62.719 69.29,0 145.84,-15.411 161.34,-18.711 V 584.23 c -24.82,3.309 -85.84,16.508 -190.3,16.508 -99.29,0 -239.95,-34.109 -239.95,-178.238 0,-135.328 139.63,-161.738 169.62,-169.441 86.88,-19.809 142.72,-23.11 142.72,-78.118 0,-56.121 -76.53,-69.32 -131.34,-69.32 -64.12,0 -122.04,14.309 -176.86,27.508 V 24.1992 c 53.78,-12.0976 124.11,-23.09764 199.61,-23.09764 160.31,0 263.74,72.60934 263.74,195.83944 M 3003.01,14.3008 V 409.301 c 0,178.238 -143.77,193.64 -273.05,192.539 -57.91,0 -145.83,-9.899 -191.33,-20.899 V 472.012 c 37.23,8.797 110.67,20.91 183.06,20.91 133.43,0 134.45,-40.711 134.45,-130.942 h -36.2 c -146.85,0 -317.51,-6.601 -317.51,-174.941 C 2502.43,26.3984 2621.37,2.19922 2752.71,0 h 35.17 c 68.26,0 135.49,4.39844 215.13,14.3008 m -146.87,92.4102 c -28.95,-4.391 -53.78,-6.59 -84.81,-6.59 -61.02,0 -114.8,4.399 -114.8,81.418 0,77.02 53.78,81.422 114.8,81.422 15.53,0 66.2,0 84.81,-1.102 z m 702.55,483.027 H 3420.1 L 3291.86,138.629 h -7.24 l -126.18,451.109 h -156.17 l 196.5,-577.6364 h 162.38 z m 168.48,0 H 3580.3 V 12.1016 h 146.87 z m 0,247.563 H 3580.3 V 693.172 h 146.87 z m 529.21,-640.36 c 0,123.231 -115.83,152.938 -185.13,167.239 -52.75,11.011 -132.38,19.808 -132.38,72.621 0,53.91 72.39,62.719 118.93,62.719 69.3,0 145.83,-15.411 161.34,-18.711 V 584.23 c -24.82,3.309 -85.84,16.508 -190.29,16.508 -99.3,0 -239.94,-34.109 -239.94,-178.238 0,-135.328 139.61,-161.738 169.61,-169.441 86.87,-19.809 142.72,-23.11 142.72,-78.118 0,-56.121 -76.53,-69.32 -131.35,-69.32 -64.12,0 -122.04,14.309 -176.86,27.508 V 24.1992 c 53.79,-12.0976 124.11,-23.09764 199.61,-23.09764 160.31,0 263.74,72.60934 263.74,195.83944" /></g></g></g></g></svg>