<?xml version="1.0" encoding="UTF-8" standalone="no"?>
<svg width="583px" height="163px" viewBox="0 0 583 163" version="1.1" xmlns="http://www.w3.org/2000/svg" xmlns:xlink="http://www.w3.org/1999/xlink" xmlns:sketch="http://www.bohemiancoding.com/sketch/ns">
    <!-- Generator: Sketch 3.3.2 (12043) - http://www.bohemiancoding.com/sketch -->
    <title>Århus Stiftstidende</title>
    <desc>Created with Sketch.</desc>
    <defs>
        <path id="path-1" d="M0,0.247 L582.206,0.247 L582.206,162.94 L0,162.94 L0,0.247 Z"></path>
    </defs>
    <g id="Page-1" stroke="none" stroke-width="1" fill="none" fill-rule="evenodd" sketch:type="MSPage">
        <g id="Århus-Stiftstidende" sketch:type="MSLayerGroup">
            <path d="M194.56,0.247 L194.56,150.367 C194.56,150.367 194.56,161.705 205.899,161.705 L342.37,161.705 C342.37,161.705 353.708,161.705 353.708,150.367 L353.708,0.247 L194.56,0.247" id="Fill-1" fill="#EE9F2D" sketch:type="MSShapeGroup"></path>
            <g id="Group-5">
                <mask id="mask-2" sketch:name="Clip 3" fill="white">
                    <use xlink:href="#path-1"></use>
                </mask>
                <g id="Clip-3"></g>
                <path d="M242.563,70.939 L230.13,35.635 C231.583,34.658 232.501,33.216 232.501,31.518 C232.501,28.584 229.598,26.217 225.583,26.217 C221.568,26.217 218.617,28.534 218.617,31.57 C218.617,33.37 219.681,34.914 221.326,35.841 L208.506,70.939 L215.908,70.939 L218.472,62.808 L232.404,62.808 L235.017,70.939 L242.563,70.939 L242.563,70.939 Z M230.856,57.713 L220.116,57.713 L225.341,41.347 L225.68,41.347 L230.856,57.713 L230.856,57.713 Z M228.679,31.57 C228.679,33.063 227.276,34.297 225.438,34.297 C223.601,34.297 222.487,33.114 222.487,31.57 C222.487,30.026 223.648,28.79 225.535,28.79 C227.421,28.79 228.728,30.026 228.679,31.57 L228.679,31.57 Z M259.867,49.633 L259.867,43.663 C257.497,43.663 254.498,43.457 249.95,46.339 C249.901,46.339 249.95,43.87 249.95,43.87 L243.854,43.87 L243.854,70.889 L250.725,70.889 L250.725,51.383 C253.191,49.531 257.352,49.633 259.867,49.633 L259.867,49.633 Z M285.24,70.889 L285.24,51.898 C285.24,45.31 280.645,43.407 276.823,43.407 C274.065,43.407 270.679,44.847 268.212,45.98 L268.212,32.29 L261.342,32.29 L261.342,70.889 L268.212,70.889 L268.212,50.869 C268.986,50.508 272.373,49.325 274.792,49.325 C277.742,49.325 278.372,51.795 278.372,53.596 L278.372,70.889 L285.24,70.889 L285.24,70.889 Z M312.877,70.889 L312.877,43.87 L306.007,43.87 L306.007,63.787 C304.798,64.351 302.96,65.432 299.767,65.432 C296.575,65.432 296.284,62.447 296.284,60.699 L296.284,43.87 L289.415,43.87 L289.415,62.654 C289.415,69.498 293.671,71.299 297.446,71.299 C301.122,71.299 303.685,70.014 306.636,68.469 L306.636,70.889 L312.877,70.889 L312.877,70.889 Z M337.907,62.242 C337.907,56.478 332.489,55.088 329.247,54.42 C326.78,53.904 323.054,53.494 323.054,51.023 C323.054,48.501 326.441,48.089 328.619,48.089 C331.86,48.089 335.439,48.809 336.165,48.964 L336.165,44.126 C335.003,43.972 332.149,43.355 327.263,43.355 C322.62,43.355 316.041,44.951 316.041,51.691 C316.041,58.023 322.572,59.258 323.973,59.617 C328.038,60.543 330.649,60.699 330.649,63.271 C330.649,65.896 327.071,66.514 324.506,66.514 C321.506,66.514 318.797,65.844 316.233,65.226 L316.233,70.322 C318.75,70.889 322.039,71.402 325.571,71.402 C333.069,71.402 337.907,68.006 337.907,62.242 L337.907,62.242 Z" id="Fill-2" fill="#DBDBDB" sketch:type="MSShapeGroup" mask="url(#mask-2)"></path>
                <path d="M22.539,163 C36.162,163 52.691,157.244 52.691,139.662 C52.691,111.422 15.126,123.357 15.126,106.945 C15.126,99.058 25.244,97.461 30.653,97.461 C39.268,97.461 47.281,99.486 47.281,99.486 L47.281,87.976 C47.281,87.976 38.967,85.846 29.251,85.846 C13.824,85.846 0,91.281 0,108.758 C0,135.08 37.264,126.234 37.264,141.047 C37.264,149.359 27.347,151.49 21.237,151.49 C12.221,151.49 0.501,148.4 0.501,148.4 L0.501,160.336 C0.501,160.336 10.018,163 22.539,163 L22.539,163 Z M90.235,116.643 L90.235,105.773 L74.207,105.773 L74.207,86.166 C71.903,87.017 60.483,91.068 60.483,91.068 L60.483,105.773 L49.865,105.773 L49.865,116.643 L60.483,116.643 L60.483,146.588 C60.483,161.721 68.597,161.721 77.713,161.721 L89.133,161.721 L89.133,150.957 L79.516,150.957 C76.811,150.957 74.207,149.998 74.207,145.629 L74.207,116.643 L90.235,116.643 L90.235,116.643 Z M93.96,161.721 L108.184,161.721 L108.184,105.773 L93.96,105.773 L93.96,161.721 Z M93.96,95.756 L108.184,95.756 L108.184,81.797 L93.96,81.797 L93.96,95.756 Z M151.427,116.43 L151.427,105.773 L135.5,105.773 L135.5,101.937 C135.5,93.092 137.503,92.027 145.517,92.027 L151.427,92.027 L151.427,81.797 L138.605,81.797 C134.298,81.797 130.591,81.902 127.185,84.674 C122.277,88.617 121.275,94.476 121.275,100.764 L121.275,105.773 L111.158,105.773 L111.158,116.43 L121.275,116.43 L121.275,161.721 L135.5,161.721 L135.5,116.43 L151.427,116.43 L151.427,116.43 Z M192.637,116.643 L192.637,105.773 L176.61,105.773 L176.61,86.166 C174.306,87.017 162.886,91.068 162.886,91.068 L162.886,105.773 L152.268,105.773 L152.268,116.643 L162.886,116.643 L162.886,146.588 C162.886,161.721 171,161.721 180.116,161.721 L191.535,161.721 L191.535,150.957 L181.919,150.957 C179.214,150.957 176.61,149.998 176.61,145.629 L176.61,116.643 L192.637,116.643 L192.637,116.643 Z M239.406,143.818 C239.406,131.883 228.187,129.004 221.475,127.619 C216.367,126.553 208.653,125.701 208.653,120.586 C208.653,115.365 215.666,114.512 220.173,114.512 C226.885,114.512 234.297,116.004 235.8,116.324 L235.8,106.307 C233.396,105.986 227.486,104.707 217.368,104.707 C207.752,104.707 194.129,108.012 194.129,121.971 C194.129,135.08 207.652,137.637 210.557,138.383 C218.971,140.301 224.38,140.621 224.38,145.949 C224.38,151.383 216.968,152.662 211.659,152.662 C205.448,152.662 199.838,151.277 194.529,149.998 L194.529,160.549 C199.738,161.721 206.55,162.787 213.862,162.787 C229.389,162.787 239.406,155.754 239.406,143.818 L239.406,143.818 Z M279.264,116.643 L279.264,105.773 L263.237,105.773 L263.237,86.166 C260.933,87.017 249.513,91.068 249.513,91.068 L249.513,105.773 L238.895,105.773 L238.895,116.643 L249.513,116.643 L249.513,146.588 C249.513,161.721 257.627,161.721 266.743,161.721 L278.162,161.721 L278.162,150.957 L268.546,150.957 C265.841,150.957 263.237,149.998 263.237,145.629 L263.237,116.643 L279.264,116.643 L279.264,116.643 Z M282.99,161.721 L297.214,161.721 L297.214,105.773 L282.99,105.773 L282.99,161.721 Z M282.99,95.756 L297.214,95.756 L297.214,81.797 L282.99,81.797 L282.99,95.756 Z M353.86,160.336 L353.86,81.689 L339.635,81.689 L339.635,105.348 C335.83,104.922 332.523,104.814 330.72,104.814 C313.691,104.814 303.073,116.324 303.073,134.121 C303.073,153.195 316.396,162.574 333.224,162.574 C340.538,162.574 350.354,161.187 353.86,160.336 L353.86,160.336 Z M339.635,151.17 C336.53,151.596 333.725,151.81 330.621,151.703 C320.503,151.383 317.598,142.006 317.598,134.121 C317.598,123.57 321.205,115.578 331.722,115.578 C335.629,115.578 339.635,116.004 339.635,116.004 L339.635,151.17 L339.635,151.17 Z M389.841,163 C399.658,163 408.473,160.762 408.473,160.762 L408.473,151.17 C403.965,152.129 399.458,153.088 393.347,153.088 C384.532,153.088 375.817,150.531 374.916,137.957 L412.581,137.957 C412.981,115.578 406.37,104.601 386.736,104.601 C368.706,104.601 359.89,116.111 359.89,134.334 C359.89,155.754 373.313,163 389.841,163 L389.841,163 Z M397.154,128.578 L374.916,128.578 C374.916,121.012 377.921,114.299 386.036,114.299 C395.452,114.299 397.154,121.439 397.154,128.578 L397.154,128.578 Z M467.103,161.721 L467.103,122.398 C467.103,109.504 458.488,104.922 450.975,104.922 C444.063,104.922 436.751,107.904 430.84,110.783 L430.84,105.773 L418.018,105.773 L418.018,161.721 L432.244,161.721 L432.244,120.266 C433.746,119.521 440.357,117.07 445.365,117.07 C452.579,117.07 452.878,122.398 452.878,125.275 L452.878,161.721 L467.103,161.721 L467.103,161.721 Z M523.468,160.336 L523.468,81.689 L509.245,81.689 L509.245,105.348 C505.438,104.922 502.132,104.814 500.33,104.814 C483.3,104.814 472.681,116.324 472.681,134.121 C472.681,153.195 486.004,162.574 502.833,162.574 C510.146,162.574 519.962,161.187 523.468,160.336 L523.468,160.336 Z M509.245,151.17 C506.139,151.596 503.334,151.81 500.229,151.703 C490.111,151.383 487.207,142.006 487.207,134.121 C487.207,123.57 490.812,115.578 501.331,115.578 C505.237,115.578 509.245,116.004 509.245,116.004 L509.245,151.17 L509.245,151.17 Z M559.45,163 C569.267,163 578.083,160.762 578.083,160.762 L578.083,151.17 C573.574,152.129 569.066,153.088 562.957,153.088 C554.141,153.088 545.426,150.531 544.524,137.957 L582.189,137.957 C582.589,115.578 575.978,104.601 556.344,104.601 C538.313,104.601 529.499,116.111 529.499,134.334 C529.499,155.754 542.921,163 559.45,163 L559.45,163 Z M566.762,128.578 L544.524,128.578 C544.524,121.012 547.529,114.299 555.643,114.299 C565.059,114.299 566.762,121.439 566.762,128.578 L566.762,128.578 Z" id="Fill-4" fill="#DBDBDB" sketch:type="MSShapeGroup" mask="url(#mask-2)"></path>
            </g>
        </g>
    </g>
</svg>