<?xml version="1.0" encoding="UTF-8" standalone="no"?>
<!-- Created with Inkscape (http://www.inkscape.org/) -->

<svg
   xmlns:dc="http://purl.org/dc/elements/1.1/"
   xmlns:cc="http://creativecommons.org/ns#"
   xmlns:rdf="http://www.w3.org/1999/02/22-rdf-syntax-ns#"
   xmlns:svg="http://www.w3.org/2000/svg"
   xmlns="http://www.w3.org/2000/svg"
   xmlns:inkscape="http://www.inkscape.org/namespaces/inkscape"
   version="1.1"
   width="727.76251"
   height="203.4375"
   id="svg2"
   xml:space="preserve"><metadata
     id="metadata8"><rdf:RDF><cc:Work
         rdf:about=""><dc:format>image/svg+xml</dc:format><dc:type
           rdf:resource="http://purl.org/dc/dcmitype/StillImage" /></cc:Work></rdf:RDF></metadata><defs
     id="defs6"><clipPath
       id="clipPath18"><path
         d="m 0,0 5822,0 0,1627.53 -5822,0 L 0,0 z"
         inkscape:connector-curvature="0"
         id="path20" /></clipPath></defs><g
     transform="matrix(1.25,0,0,-1.25,0,203.4375)"
     id="g10"><g
       transform="scale(0.1,0.1)"
       id="g12"><g
         id="g14"><g
           clip-path="url(#clipPath18)"
           id="g16"><path
             d="m 1945.6,1627.53 0,-1501.198 c 0,0 0,-113.3828 113.39,-113.3828 l 1364.71,0 c 0,0 113.38,0 113.38,113.3828 l 0,1501.198 -1591.48,0"
             inkscape:connector-curvature="0"
             id="path22"
             style="fill:#f89c0e;fill-opacity:1;fill-rule:nonzero;stroke:none" /><path
             d="M 2425.63,920.605 2301.3,1273.65 c 14.53,9.78 23.71,24.19 23.71,41.17 0,29.34 -29.03,53.01 -69.18,53.01 -40.15,0 -69.66,-23.17 -69.66,-53.53 0,-18 10.64,-33.44 27.09,-42.71 l -128.2,-350.985 74.02,0 25.64,81.305 139.32,0 26.13,-81.305 75.46,0 z m -117.07,132.265 -107.4,0 52.25,163.66 3.39,0 51.76,-163.66 z m -21.77,261.43 c 0,-14.93 -14.03,-27.27 -32.41,-27.27 -18.37,0 -29.51,11.83 -29.51,27.27 0,15.44 11.61,27.79 30.48,27.79 18.86,0 31.93,-12.35 31.44,-27.79 m 311.88,-180.63 0,59.69 c -23.7,0 -53.69,2.07 -99.17,-26.75 -0.49,0 0,24.69 0,24.69 l -60.96,0 0,-270.187 68.71,0 0,195.057 c 24.66,18.52 66.27,17.5 91.42,17.5 m 253.73,-212.557 0,189.907 c 0,65.88 -45.95,84.91 -84.17,84.91 -27.58,0 -61.44,-14.4 -86.11,-25.73 l 0,136.89 -68.7,0 0,-385.977 68.7,0 0,200.197 c 7.74,3.61 41.61,15.44 65.8,15.44 29.5,0 35.8,-24.7 35.8,-42.71 l 0,-172.927 68.68,0 z m 276.37,0 0,270.187 -68.7,0 0,-199.171 c -12.09,-5.645 -30.47,-16.445 -62.4,-16.445 -31.92,0 -34.83,29.846 -34.83,47.326 l 0,168.29 -68.69,0 0,-187.84 c 0,-68.44 42.56,-86.448 80.31,-86.448 36.76,0 62.39,12.851 91.9,28.3 l 0,-24.199 62.41,0 z m 250.3,86.467 c 0,57.63 -54.18,71.54 -86.6,78.22 -24.67,5.16 -61.93,9.26 -61.93,33.97 0,25.21 33.87,29.34 55.65,29.34 32.41,0 68.2,-7.2 75.46,-8.75 l 0,48.37 c -11.62,1.55 -40.16,7.72 -89.02,7.72 -46.43,0 -112.22,-15.96 -112.22,-83.36 0,-63.32 65.31,-75.67 79.32,-79.26 40.65,-9.26 66.76,-10.82 66.76,-36.545 0,-26.25 -35.78,-32.422 -61.43,-32.422 -30,0 -57.09,6.699 -82.73,12.871 l 0,-50.957 c 25.17,-5.664 58.06,-10.8 93.38,-10.8 74.98,0 123.36,33.964 123.36,91.603"
             inkscape:connector-curvature="0"
             id="path24"
             style="fill:#231f20;fill-opacity:1;fill-rule:nonzero;stroke:none" /><path
             d="m 225.391,0 c 136.23,0 301.523,57.5586 301.523,233.379 0,282.402 -375.652,163.051 -375.652,327.172 0,78.863 101.179,94.84 155.269,94.84 86.149,0 166.281,-20.254 166.281,-20.254 l 0,115.097 c 0,0 -83.14,21.309 -180.3,21.309 C 138.242,771.543 0,717.188 0,542.422 0,279.199 372.641,367.66 372.641,219.531 372.641,136.41 273.473,115.102 212.371,115.102 122.211,115.102 5.01172,146 5.01172,146 l 0,-119.3594 C 5.01172,26.6406 100.18,0 225.391,0 m 676.964,463.57 0,108.7 -160.285,0 0,196.07 C 719.031,759.824 604.836,719.316 604.836,719.316 l 0,-147.046 -106.184,0 0,-108.7 106.184,0 0,-299.449 c 0,-151.3319 81.137,-151.3319 172.297,-151.3319 l 114.199,0 0,107.6409 -96.172,0 c -27.051,0 -53.09,9.59 -53.09,53.281 l 0,289.859 160.285,0 z m 179.485,108.7 -142.238,0 0,-559.4809 142.238,0 0,559.4809 z m 0,239.761 -142.238,0 0,-139.59 142.238,0 0,139.59 z m 432.43,-346.332 0,106.571 -159.27,0 0,38.359 c 0,88.453 20.03,99.098 100.17,99.098 l 59.1,0 0,102.304 -128.22,0 c -43.07,0 -80.14,-1.054 -114.2,-28.769 -49.08,-39.434 -59.1,-98.028 -59.1,-160.903 l 0,-50.089 -101.17,0 0,-106.571 101.17,0 0,-452.9099 142.25,0 0,452.9099 159.27,0 z m 412.1,-2.129 0,108.7 -160.27,0 0,196.07 c -23.04,-8.516 -137.24,-49.024 -137.24,-49.024 l 0,-147.046 -106.18,0 0,-108.7 106.18,0 0,-299.449 c 0,-151.3319 81.14,-151.3319 172.3,-151.3319 l 114.19,0 0,107.6409 -96.16,0 c -27.05,0 -53.09,9.59 -53.09,53.281 l 0,289.859 160.27,0 z m 467.69,-271.75 c 0,119.352 -112.19,148.141 -179.31,161.989 -51.08,10.66 -128.22,19.179 -128.22,70.332 0,52.211 70.13,60.738 115.2,60.738 67.12,0 141.24,-14.918 156.27,-18.117 l 0,100.168 c -24.04,3.211 -83.14,16 -184.32,16 -96.16,0 -232.39,-33.051 -232.39,-172.641 0,-131.09 135.23,-156.66 164.28,-164.117 84.14,-19.184 138.23,-22.383 138.23,-75.66 0,-54.34 -74.12,-67.133 -127.21,-67.133 -62.11,0 -118.21,13.851 -171.3,26.641 l 0,-105.5083 c 52.09,-11.7226 120.21,-22.38279 193.33,-22.38279 155.27,0 255.44,70.33199 255.44,189.69109 m 398.58,271.75 0,108.7 -160.27,0 0,196.07 c -23.04,-8.516 -137.24,-49.024 -137.24,-49.024 l 0,-147.046 -106.18,0 0,-108.7 106.18,0 0,-299.449 c 0,-151.3319 81.14,-151.3319 172.3,-151.3319 l 114.19,0 0,107.6409 -96.16,0 c -27.05,0 -53.09,9.59 -53.09,53.281 l 0,289.859 160.27,0 z m 179.5,108.7 -142.24,0 0,-559.4809 142.24,0 0,559.4809 z m 0,239.761 -142.24,0 0,-139.59 142.24,0 0,139.59 z m 566.46,-785.3904 0,786.4644 -142.25,0 0,-236.585 c -38.05,4.261 -71.12,5.339 -89.15,5.339 -170.29,0 -276.47,-115.097 -276.47,-293.07 0,-190.7382 133.23,-284.52728 301.51,-284.52728 73.14,0 171.3,13.86718 206.36,22.37888 m -142.25,91.6604 c -31.05,-4.262 -59.1,-6.403 -90.14,-5.332 -101.18,3.203 -130.23,96.972 -130.23,175.82 0,105.512 36.07,185.43 141.24,185.43 39.07,0 79.13,-4.258 79.13,-4.258 l 0,-351.66 z M 3898.41,0 c 98.17,0 186.32,22.3789 186.32,22.3789 l 0,95.9221 c -45.08,-9.59 -90.15,-19.1799 -151.26,-19.1799 -88.15,0 -175.3,25.5699 -184.31,151.3089 l 376.65,0 c 4,223.789 -62.11,333.558 -258.45,333.558 -180.3,0 -268.46,-115.097 -268.46,-297.328 C 3598.9,72.4609 3733.13,0 3898.41,0 m 73.13,344.219 -222.38,0 c 0,75.66 30.05,142.793 111.2,142.793 94.16,0 111.18,-71.403 111.18,-142.793 m 699.49,-331.4299 0,393.2309 c 0,128.941 -86.15,174.761 -161.28,174.761 -69.12,0 -142.24,-29.82 -201.35,-58.609 l 0,50.098 -128.22,0 0,-559.4809 142.26,0 0,414.5509 c 15.02,7.449 81.13,31.961 131.21,31.961 72.14,0 75.13,-53.281 75.13,-82.051 l 0,-364.4609 142.25,0 z m 563.65,13.8515 0,786.4644 -142.23,0 0,-236.585 c -38.07,4.261 -71.13,5.339 -89.15,5.339 -170.3,0 -276.49,-115.097 -276.49,-293.07 0,-190.7382 133.23,-284.52728 301.52,-284.52728 73.13,0 171.29,13.86718 206.35,22.37888 m -142.23,91.6604 c -31.06,-4.262 -59.11,-6.403 -90.16,-5.332 -101.18,3.203 -130.22,96.972 -130.22,175.82 0,105.512 36.05,185.43 141.24,185.43 39.06,0 79.14,-4.258 79.14,-4.258 l 0,-351.66 z M 5594.5,0 c 98.17,0 186.33,22.3789 186.33,22.3789 l 0,95.9221 c -45.09,-9.59 -90.17,-19.1799 -151.26,-19.1799 -88.16,0 -175.31,25.5699 -184.33,151.3089 l 376.65,0 c 4,223.789 -62.11,333.558 -258.45,333.558 -180.31,0 -268.45,-115.097 -268.45,-297.328 C 5294.99,72.4609 5429.21,0 5594.5,0 m 73.12,344.219 -222.38,0 c 0,75.66 30.05,142.793 111.19,142.793 94.16,0 111.19,-71.403 111.19,-142.793"
             inkscape:connector-curvature="0"
             id="path26"
             style="fill:#231f20;fill-opacity:1;fill-rule:nonzero;stroke:none" /></g></g></g></g></svg>