<?xml version="1.0" standalone="no"?>
<!DOCTYPE svg PUBLIC "-//W3C//DTD SVG 1.1//EN" "http://www.w3.org/Graphics/SVG/1.1/DTD/svg11.dtd" >
<svg xmlns="http://www.w3.org/2000/svg">
<metadata></metadata>
<defs>
<font id="bt_oneitalic" horiz-adv-x="761" >
<font-face units-per-em="2048" ascent="1536" descent="-512" />
<missing-glyph horiz-adv-x="323" />
<glyph unicode="&#xfb00;" horiz-adv-x="1218" d="M172 0l170 979h-143l24 147h142q1 9 5 28t5 28q14 82 42.5 134.5t74.5 79.5t97 36.5t126 9.5q100 0 164 -17l-23 -133q-68 15 -147 15q-42 0 -68 -6.5t-42 -25.5t-23 -41t-15 -63l-6 -45h385l8 56q14 82 42.5 134.5t74.5 79.5t97 36.5t126 9.5q99 0 166 -17l-22 -133 q-72 15 -150 15q-42 0 -67.5 -6.5t-41 -25.5t-22 -40.5t-14.5 -63.5l-9 -45h273l-25 -147h-272q-24 -146 -84 -489t-84 -490h-188l167 979h-385q-160 -919 -170 -979h-188z" />
<glyph unicode="&#xfb01;" horiz-adv-x="1058" d="M172 0l170 979h-143l24 147h142l8 39q15 88 46 143.5t84.5 84.5t116 39t160.5 10q163 0 230 -17l-23 -133q-22 5 -95.5 10t-117.5 5q-104 0 -151 -32.5t-64 -117.5q0 -4 -2 -15.5t-2 -15.5h571l-192 -1126h-186l167 979h-385q-160 -919 -170 -979h-188z" />
<glyph unicode="&#xfb02;" horiz-adv-x="1060" d="M172 0l170 979h-143l24 147h142q1 9 5 28t5 28q14 82 42.5 134.5t74.5 79.5t97 36.5t126 9.5q100 0 164 -17l-23 -133q-68 15 -147 15q-42 0 -68 -6.5t-42 -25.5t-23 -41t-15 -63l-6 -45h272l-24 -147h-273q-160 -919 -170 -979h-188zM745 0l242 1413l193 25l-246 -1438 h-189z" />
<glyph unicode="&#xfb03;" horiz-adv-x="1495" d="M172 0l170 979h-143l24 147h142q1 9 5 28t5 28q14 82 42.5 134.5t74.5 79.5t97 36.5t126 9.5q100 0 164 -17l-23 -133q-68 15 -147 15q-42 0 -68 -6.5t-42 -25.5t-23 -41t-15 -63l-6 -45h385l8 39q31 159 126 218t280 59q165 0 229 -17l-22 -133q-20 4 -94 9.5t-117 5.5 q-108 0 -153 -30t-62 -120l-7 -31h572l-193 -1126h-186l168 979h-385q-24 -146 -84 -489t-84 -490h-188l167 979h-385q-160 -919 -170 -979h-188z" />
<glyph unicode="&#xfb04;" horiz-adv-x="1497" d="M172 0l170 979h-143l24 147h142q1 9 5 28t5 28q14 82 42.5 134.5t74.5 79.5t97 36.5t126 9.5q100 0 164 -17l-23 -133q-68 15 -147 15q-42 0 -68 -6.5t-42 -25.5t-23 -41t-15 -63l-6 -45h385l8 56q14 82 42.5 134.5t74.5 79.5t97 36.5t126 9.5q99 0 166 -17l-22 -133 q-72 15 -150 15q-42 0 -67.5 -6.5t-41 -25.5t-22 -40.5t-14.5 -63.5l-9 -45h273l-25 -147h-272q-24 -146 -84 -489t-84 -490h-188l167 979h-385q-160 -919 -170 -979h-188zM1319 0l242 1413l194 25l-248 -1438h-188z" />
<glyph unicode="ft" horiz-adv-x="1290" d="M172 0l170 979h-143l24 147h142q1 9 5 28t5 28q14 82 42.5 134.5t74.5 79.5t97 36.5t126 9.5q100 0 164 -17l-23 -133q-68 15 -147 15q-42 0 -68 -6.5t-42 -25.5t-23 -41t-15 -63l-6 -45h272l-24 -147h-273q-160 -919 -170 -979h-188zM836 979l24 147h137q5 31 17.5 93.5 t17.5 93.5l195 57l-41 -244h270l-24 -147h-271l-114 -660q-13 -70 -13 -102q0 -51 25 -70.5t88 -19.5q74 0 141 16l-24 -139q-87 -22 -199 -22q-122 0 -172.5 39.5t-50.5 136.5q0 56 12 129l121 692h-139z" />
<glyph unicode="ty" horiz-adv-x="1611" d="M195 979l24 147h133q5 30 17.5 93t17.5 94l195 57l-41 -244h270l-25 -147h-270l-129 -735q-6 -65 20.5 -92t94.5 -27q60 0 141 18l-25 -143q-48 -13 -186 -18h-12q-121 0 -172 40.5t-51 137.5q0 54 12 127l121 692h-135zM856 1126h193l55 -505q42 -376 51 -463l125 268 q128 280 317 700h189l-176 -374l-492 -1039h-188q28 59 119 238l24 49h-74z" />
<glyph unicode="fff" horiz-adv-x="1935" d="M172 0l170 979h-143l24 147h142q1 9 5 28t5 28q14 82 42.5 134.5t74.5 79.5t97 36.5t126 9.5q100 0 164 -17l-23 -133q-68 15 -147 15q-42 0 -68 -6.5t-42 -25.5t-23 -41t-15 -63l-6 -45h272l-24 -147h-273q-160 -919 -170 -979h-188zM817 0l168 979h-139l22 147h142 q1 9 5 28t5 28q14 82 41.5 134.5t73.5 79.5t97 36.5t126 9.5q99 0 166 -17l-23 -133q-72 15 -147 15q-42 0 -68 -6.5t-42 -25.5t-23 -41t-15 -63l-8 -45h272l-22 -147h-274q-24 -146 -83.5 -489t-84.5 -490h-189zM1460 0l170 979h-141l24 147h140q1 9 5 28t5 28 q14 82 42.5 134.5t74.5 79.5t97.5 36.5t127.5 9.5q98 0 162 -17l-21 -133q-67 15 -147 15q-77 0 -106 -30.5t-42 -105.5l-8 -45h273l-25 -147h-272q-25 -147 -84.5 -489.5t-83.5 -489.5h-191z" />
<glyph unicode="fb" horiz-adv-x="1710" d="M172 0l170 979h-143l24 147h142q1 9 5 28t5 28q14 82 42.5 134.5t74.5 79.5t97 36.5t126 9.5q100 0 164 -17l-23 -133q-68 15 -147 15q-42 0 -68 -6.5t-42 -25.5t-23 -41t-15 -63l-6 -45h272l-24 -147h-273q-160 -919 -170 -979h-188zM766 0l242 1413l196 25l-63 -365h4 q93 78 295 78q81 0 135.5 -12t95.5 -44t59.5 -89.5t18.5 -145.5q0 -107 -31 -285q-60 -324 -168 -462t-315 -138q-105 0 -177 30t-97 75l-23 -80h-172zM991 190q25 -28 87 -48.5t134 -20.5q70 0 118.5 20.5t87 74t65.5 140.5t51 224q25 147 25 231q0 116 -46 155.5 t-155 39.5q-124 0 -238 -43h2z" />
<glyph unicode="fh" horiz-adv-x="1699" d="M172 0l170 979h-143l24 147h142q1 9 5 28t5 28q14 82 42.5 134.5t74.5 79.5t97 36.5t126 9.5q100 0 164 -17l-23 -133q-68 15 -147 15q-42 0 -68 -6.5t-42 -25.5t-23 -41t-15 -63l-6 -45h272l-24 -147h-273q-160 -919 -170 -979h-188zM766 0l242 1413l194 25l-65 -398 q58 45 143.5 78t175.5 33q58 0 102 -8.5t86.5 -30.5t65.5 -69t23 -117q0 -29 -11 -97l-141 -829h-188l137 797q8 39 8 75q0 73 -37.5 102.5t-116.5 29.5q-131 0 -274 -95h2l-156 -909h-190z" />
<glyph unicode="fj" horiz-adv-x="1071" d="M172 0l170 979h-143l24 147h142q1 9 5 28t5 28q14 82 42.5 134.5t74.5 79.5t97 36.5t126 9.5q100 0 164 -17l-23 -133q-68 15 -147 15q-42 0 -68 -6.5t-42 -25.5t-23 -41t-15 -63l-6 -45h272l-24 -147h-273q-160 -919 -170 -979h-188zM604 -174q42 33 72.5 73.5t64 129 t54.5 215.5l153 882h191l-152 -884q-15 -87 -34.5 -157.5t-45.5 -122.5t-49 -89.5t-57 -70t-56.5 -50.5t-60.5 -45zM967 1221l30 192h193l-33 -192h-190z" />
<glyph unicode="fk" horiz-adv-x="1613" d="M172 0l170 979h-143l24 147h142q1 9 5 28t5 28q14 82 42.5 134.5t74.5 79.5t97 36.5t126 9.5q100 0 164 -17l-23 -133q-68 15 -147 15q-42 0 -68 -6.5t-42 -25.5t-23 -41t-15 -63l-6 -45h272l-24 -147h-273q-160 -919 -170 -979h-188zM766 0l242 1413l192 25l-129 -756 h150q86 50 200 211q15 22 72 106t84 127h201l-127 -184q-105 -147 -161 -206.5t-124 -102.5h2q0 -4 -2 -12.5t-2 -12.5h-2q27 -18 44.5 -33t42 -44.5t43 -75t30.5 -105.5l73 -350h-200l-54 274q-42 189 -147 273h-145l-95 -547h-188z" />
<glyph unicode="ffb" horiz-adv-x="2355" d="M172 0l170 979h-143l24 147h142q1 9 5 28t5 28q14 82 42.5 134.5t74.5 79.5t97 36.5t126 9.5q100 0 164 -17l-23 -133q-68 15 -147 15q-42 0 -68 -6.5t-42 -25.5t-23 -41t-15 -63l-6 -45h272l-24 -147h-273q-160 -919 -170 -979h-188zM817 0l170 979h-143l24 147h142 q1 9 5 28t5 28q14 82 42.5 134.5t74.5 79.5t97 36.5t126 9.5q100 0 164 -17l-23 -133q-67 15 -147 15q-42 0 -68 -6.5t-42 -25.5t-23 -41t-15 -63l-6 -45h273l-25 -147h-272q-160 -919 -170 -979h-189zM1409 0l242 1413l196 25l-63 -365h4q93 78 295 78q81 0 135.5 -12 t95.5 -44t59.5 -89.5t18.5 -145.5q0 -107 -31 -285q-60 -324 -168 -462t-315 -138q-105 0 -177 30t-97 75l-23 -80h-172zM1634 190q25 -28 87 -48.5t134 -20.5q70 0 118.5 20.5t87 74t65.5 140.5t51 224q25 147 25 231q0 116 -46 155.5t-155 39.5q-124 0 -238 -43h2z" />
<glyph unicode="ffh" horiz-adv-x="2344" d="M172 0l170 979h-143l24 147h142q1 9 5 28t5 28q14 82 42.5 134.5t74.5 79.5t97 36.5t126 9.5q100 0 164 -17l-23 -133q-68 15 -147 15q-42 0 -68 -6.5t-42 -25.5t-23 -41t-15 -63l-6 -45h272l-24 -147h-273q-160 -919 -170 -979h-188zM817 0l170 979h-143l24 147h142 q1 9 5 28t5 28q14 82 42.5 134.5t74.5 79.5t97 36.5t126 9.5q100 0 164 -17l-23 -133q-67 15 -147 15q-42 0 -68 -6.5t-42 -25.5t-23 -41t-15 -63l-6 -45h273l-25 -147h-272q-160 -919 -170 -979h-189zM1409 0l242 1413l194 25l-65 -398q58 45 143.5 78t175.5 33 q58 0 102 -8.5t86.5 -30.5t65.5 -69t23 -117q0 -29 -11 -97l-141 -829h-188l137 797q8 39 8 75q0 73 -37 102.5t-116 29.5q-132 0 -275 -95h2l-156 -909h-190z" />
<glyph unicode="ffj" horiz-adv-x="1716" d="M172 0l170 979h-143l24 147h142q1 9 5 28t5 28q14 82 42.5 134.5t74.5 79.5t97 36.5t126 9.5q100 0 164 -17l-23 -133q-68 15 -147 15q-42 0 -68 -6.5t-42 -25.5t-23 -41t-15 -63l-6 -45h272l-24 -147h-273q-160 -919 -170 -979h-188zM817 0l170 979h-143l24 147h142 q1 9 5 28t5 28q14 82 42.5 134.5t74.5 79.5t97 36.5t126 9.5q100 0 164 -17l-23 -133q-67 15 -147 15q-42 0 -68 -6.5t-42 -25.5t-23 -41t-15 -63l-6 -45h273l-25 -147h-272q-160 -919 -170 -979h-189zM1247 -174q42 33 72.5 73.5t64 129t54.5 215.5l153 882h191l-152 -884 q-15 -87 -34.5 -157.5t-45.5 -122.5t-49 -89.5t-57 -70t-56.5 -50.5t-60.5 -45zM1610 1221l30 192h193l-33 -192h-190z" />
<glyph unicode="ffk" horiz-adv-x="2256" d="M172 0l170 979h-143l24 147h142q1 9 5 28t5 28q14 82 42.5 134.5t74.5 79.5t97 36.5t126 9.5q100 0 164 -17l-23 -133q-68 15 -147 15q-42 0 -68 -6.5t-42 -25.5t-23 -41t-15 -63l-6 -45h272l-24 -147h-273q-160 -919 -170 -979h-188zM817 0l170 979h-143l24 147h142 q1 9 5 28t5 28q14 82 42.5 134.5t74.5 79.5t97 36.5t126 9.5q100 0 164 -17l-23 -133q-67 15 -147 15q-42 0 -68 -6.5t-42 -25.5t-23 -41t-15 -63l-6 -45h273l-25 -147h-272q-160 -919 -170 -979h-189zM1409 0l242 1413l192 25l-129 -756h150q86 50 200 211q15 22 72 106 t84 127h201l-127 -184q-105 -147 -161 -206.5t-124 -102.5h2q0 -4 -2 -12.5t-2 -12.5h-2q27 -18 44.5 -33t42 -44.5t43 -75t30.5 -105.5l73 -350h-200l-53 274q-42 188 -148 273h-145l-95 -547h-188z" />
<glyph horiz-adv-x="0" />
<glyph horiz-adv-x="682" />
<glyph unicode=" "  horiz-adv-x="323" />
<glyph unicode="&#x09;" horiz-adv-x="323" />
<glyph unicode="&#xa0;" horiz-adv-x="323" />
<glyph unicode="!" horiz-adv-x="485" d="M152 0l45 262h178l-43 -262h-180zM248 401l123 1012h229l-227 -1012h-125z" />
<glyph unicode="&#x22;" horiz-adv-x="561" d="M252 1018l70 395h145l-68 -395h-147zM512 1018l70 395h145l-68 -395h-147z" />
<glyph unicode="#" horiz-adv-x="976" d="M158 461l30 119h166l56 251h-168l12 54l14 65h170q18 75 53 231.5t52 231.5h127l-105 -463h197q17 75 52 231.5t52 231.5h129l-104 -463h168l-29 -119h-168l-51 -251h166l-29 -119h-168l-51 -232l-49 -229h-131l102 461h-196l-101 -461h-129l103 461h-170zM483 580h197 l55 251h-196z" />
<glyph unicode="$" horiz-adv-x="1003" d="M119 8l57 162q144 -47 273 -47q117 0 205 59t106 168q9 51 -2 94.5t-46.5 83.5t-65.5 65t-87 66q-35 26 -46 34.5t-43.5 34t-44.5 38.5t-36.5 38.5t-34.5 45t-23.5 46.5t-18.5 55t-5 59q0 35 6 65q27 147 128.5 237t256.5 115h-4l25 138h174l-23 -127q129 -5 246 -29 l-57 -149q-139 32 -254 32t-194.5 -57t-100.5 -141q-6 -46 7.5 -90t47 -84t64 -68t76.5 -64q47 -35 73.5 -56.5t65 -59t59 -70t36 -78.5t15.5 -96q0 -34 -6 -72q-25 -144 -122 -236t-240 -126h4q-5 -34 -17.5 -101.5t-17.5 -101.5h-174l31 184q-205 3 -293 33z" />
<glyph unicode="%" horiz-adv-x="1626" d="M227 838q0 68 19 176q39 220 124 309.5t263 89.5q145 0 207.5 -50t62.5 -175q0 -75 -18 -174q-40 -220 -125 -309t-264 -89q-144 0 -206.5 50t-62.5 172zM381 866q0 -67 29.5 -88.5t109.5 -21.5q104 0 142 47t69 211q17 104 17 147q0 67 -30.5 89t-109.5 22 q-56 0 -87.5 -8.5t-56 -38.5t-38.5 -77t-29 -134q-16 -101 -16 -148zM406 0l909 1413h164l-912 -1413h-161zM961 199q0 72 18 174q40 221 125.5 310t263.5 89q147 0 208.5 -49.5t61.5 -175.5q0 -75 -18 -174q-42 -220 -126.5 -309t-262.5 -89q-145 0 -207.5 50t-62.5 174z M1116 225q0 -67 29.5 -88.5t107.5 -21.5q55 0 87 9t57 39t39.5 77.5t29.5 132.5q17 104 17 149q0 67 -29.5 88t-107.5 21q-56 0 -88 -8.5t-57 -38t-39.5 -77.5t-28.5 -134q-17 -107 -17 -148z" />
<glyph unicode="&#x26;" horiz-adv-x="1323" d="M117 279q0 49 8 88q16 79 56 147t99 120.5t125 92.5t148 74h-2q-57 154 -57 264q0 39 6 76q23 127 129.5 212t263.5 85q133 0 203.5 -62t70.5 -172q0 -35 -6 -65q-24 -127 -129 -224t-254 -161h2q70 -148 234 -379q121 165 157 350h189q-64 -277 -256 -481h2 q19 -25 151 -191q6 -6 20.5 -25.5t22.5 -27.5h-229q-68 77 -108 129q-218 -154 -459 -154q-182 0 -284.5 77t-102.5 227zM330 311q0 -94 54 -141t169 -47q176 0 326 121h-2q-185 262 -277 448q-112 -59 -177.5 -129t-84.5 -176q-8 -54 -8 -76zM684 1120q-18 -106 47 -258 q105 54 172.5 115t81.5 145q29 170 -119 170q-76 0 -122 -45t-60 -127z" />
<glyph unicode="'" horiz-adv-x="301" d="M252 1018l70 395h145l-68 -395h-147z" />
<glyph unicode="(" horiz-adv-x="473" d="M186 291q0 159 31 340q42 232 130.5 447.5t225.5 469.5h148q-123 -261 -200.5 -472t-117.5 -445q-36 -205 -36 -428q0 -219 39 -490h-150q-70 348 -70 578z" />
<glyph unicode=")" horiz-adv-x="473" d="M-33 -287q121 258 200 471t120 447q35 200 35 411q0 169 -37 506h149q68 -349 68 -583q0 -161 -29 -334q-40 -235 -129 -450.5t-227 -467.5h-150z" />
<glyph unicode="*" horiz-adv-x="696" d="M225 1128l64 136l213 -105q3 41 11 127t11 127h140l-66 -256l246 107l14 -136l-252 -57h4q21 -31 64 -94.5t63 -95.5l-127 -78l-90 211q-19 -26 -75.5 -98.5t-84.5 -110.5l-102 76l205 190z" />
<glyph unicode="+" horiz-adv-x="1044" d="M244 653l22 138h316l63 366h150l-62 -366h316l-25 -138h-315l-64 -366h-151l63 366h-313z" />
<glyph unicode="," horiz-adv-x="331" d="M20 -233l117 233h-76l37 211h205l-37 -211l-147 -233h-99z" />
<glyph unicode="-" horiz-adv-x="466" d="M121 528l24 144h408l-25 -144h-407z" />
<glyph unicode="." horiz-adv-x="331" d="M61 0l37 211h205l-37 -211h-205z" />
<glyph unicode="/" horiz-adv-x="585" d="M-8 -31l694 1475h154l-697 -1475h-151z" />
<glyph unicode="0" horiz-adv-x="1044" d="M147 285q0 143 48 422q22 126 43 220.5t46 171t50 129t60 91.5t69 61.5t84 35.5t100 17.5t121 4.5q82 0 136.5 -6.5t102.5 -25t74 -52.5t41 -89t15 -135q0 -139 -50 -423q-28 -162 -56 -275t-65 -196.5t-76 -133t-97.5 -78.5t-121.5 -39t-155 -10q-83 0 -137 6.5t-102 25 t-74 53t-41 89.5t-15 136zM334 309q0 -61 11 -98t38 -57t63 -26.5t97 -6.5q59 0 98.5 7.5t74.5 33t57.5 62t45.5 107.5t40.5 155.5t41.5 218.5q49 305 49 397q0 60 -10.5 97t-37.5 57t-62.5 27t-94.5 7q-60 0 -100 -7.5t-75.5 -33.5t-58 -62.5t-46 -107.5t-41.5 -155.5 t-41 -218.5q-49 -305 -49 -396z" />
<glyph unicode="1" horiz-adv-x="1044" d="M197 0l24 147h266q29 172 91.5 527.5t91.5 527.5l-275 -178l-49 115l371 274h178l-219 -1266h235l-24 -147h-690z" />
<glyph unicode="2" horiz-adv-x="1044" d="M88 0l25 139l483 492q133 136 201 235.5t82 190.5q19 103 -39.5 164t-184.5 61q-129 0 -299 -53l-18 151q176 58 375 58q186 0 285.5 -75.5t99.5 -217.5q0 -49 -8 -88q-23 -107 -102.5 -224.5t-227.5 -267.5l-416 -418h600l-24 -147h-832z" />
<glyph unicode="3" horiz-adv-x="1044" d="M109 39l73 145q147 -63 275 -63q152 0 241.5 83.5t118.5 233.5q6 34 6 66q0 59 -21.5 99.5t-62.5 61.5t-88.5 29t-111.5 8q-71 0 -95 -6l-30 103l463 465h-537l25 149h759l-22 -133l-449 -449q20 5 29 5q70 -6 127.5 -24t104.5 -52t73.5 -89.5t26.5 -129.5q0 -46 -8 -90 q-39 -233 -189 -354.5t-381 -121.5q-195 0 -327 64z" />
<glyph unicode="4" horiz-adv-x="1044" d="M98 334l25 135l754 944h227l-162 -940h121l-23 -139h-122l-58 -334h-182l57 334h-637zM301 473h457l129 739z" />
<glyph unicode="5" horiz-adv-x="1030" d="M90 39l78 145q166 -63 287 -63q296 0 356 317q6 38 6 74q0 60 -20.5 100t-60.5 60t-84 27.5t-105 7.5q-54 0 -113 -10t-84 -19l-84 61l176 674h693l-27 -147h-539l-108 -428q63 18 157 18q182 0 287 -75t105 -232q0 -32 -11 -100q-39 -234 -185.5 -354t-375.5 -120 q-104 0 -198 17.5t-150 46.5z" />
<glyph unicode="6" horiz-adv-x="1034" d="M170 297q0 137 43 379q40 225 96.5 375t134.5 234.5t169 118.5t216 34q89 0 182.5 -14.5t149.5 -34.5l-57 -148q-166 49 -301 49q-55 0 -95 -9.5t-82.5 -38t-74.5 -79.5t-63.5 -137t-57.5 -207q35 26 117.5 39.5t157.5 13.5q180 0 264 -57.5t84 -206.5q0 -52 -13 -135 q-26 -146 -70 -244.5t-108 -153.5t-139.5 -77.5t-177.5 -22.5q-103 0 -169 13t-115 48t-70 98.5t-21 162.5zM358 326q0 -121 45 -163t156 -42q135 0 197 71t94 263q10 54 10 112q0 98 -51 133t-176 35q-55 0 -126 -15.5t-106 -31.5h2q-1 -8 -5 -25.5t-5 -25.5 q-35 -205 -35 -311z" />
<glyph unicode="7" horiz-adv-x="1044" d="M180 0l774 1264h-651l27 149h839l-18 -121l-764 -1292h-207z" />
<glyph unicode="8" horiz-adv-x="1044" d="M127 256q0 49 10 104q14 81 49 146.5t83 109t97 71t103 44.5h-2l4 21h2q-199 72 -199 260q0 26 7 73q30 174 158.5 263.5t334.5 89.5q381 0 381 -264q0 -36 -6 -76q-14 -80 -52 -143.5t-89 -102.5t-95.5 -61t-93.5 -37h2q0 -3 -1 -9.5t-1 -9.5h-2q116 -42 177 -106 t61 -174q0 -35 -6 -78q-20 -113 -67.5 -192.5t-119 -124.5t-156 -65t-192.5 -20q-187 0 -287 65.5t-100 215.5zM315 299q0 -96 56 -137t172 -41q133 0 213.5 56.5t105.5 201.5q6 30 6 59q0 49 -19 87t-56 65.5t-77.5 46t-99.5 37.5q-112 -31 -190.5 -106t-101.5 -193 q-9 -61 -9 -76zM457 1071q-8 -51 5.5 -93t46 -73t72.5 -53t93 -41q114 35 193.5 101t95.5 159q19 110 -31 165.5t-180 55.5q-257 0 -295 -221z" />
<glyph unicode="9" horiz-adv-x="1034" d="M131 37l70 141q150 -57 276 -57q73 0 123.5 19t96.5 71t81.5 144.5t69.5 238.5q-128 -55 -289 -55q-172 0 -252 59t-80 207q0 53 15 149q26 137 73.5 232.5t114 150t144 78t176.5 23.5q96 0 159.5 -14.5t109.5 -51.5t66.5 -102t20.5 -164q0 -129 -37 -340 q-34 -191 -77 -327.5t-94.5 -226.5t-120.5 -142.5t-146 -73.5t-180 -21q-95 0 -181 17t-139 45zM416 844q0 -88 46.5 -127t162.5 -39q72 0 143 14.5t106 30.5h-2q0 4 2.5 14.5t2.5 14.5l6 30q35 222 35 303q0 119 -44 162t-149 43q-132 0 -198 -72.5t-97 -246.5 q-14 -82 -14 -127z" />
<glyph unicode=":" horiz-adv-x="331" d="M61 0l37 211h205l-37 -211h-205zM219 913l35 213h205l-35 -213h-205z" />
<glyph unicode=";" horiz-adv-x="331" d="M20 -233l117 233h-76l37 211h205l-37 -211l-147 -233h-99zM219 913l35 213h205l-35 -213h-205z" />
<glyph unicode="&#x3c;" horiz-adv-x="1044" d="M242 639l26 170l844 356l-27 -149l-684 -291l584 -293l-27 -147z" />
<glyph unicode="=" horiz-adv-x="1044" d="M213 479l25 137h780l-25 -137h-780zM272 827l25 138h780l-22 -138h-783z" />
<glyph unicode="&#x3e;" horiz-adv-x="1044" d="M178 285l27 147l686 293l-586 291l27 149l719 -356l-29 -170z" />
<glyph unicode="?" horiz-adv-x="741" d="M248 0l45 262h176l-43 -262h-178zM285 1251l2 146q47 14 151 27.5t172 13.5q141 0 215 -59t74 -167q0 -30 -6 -67q-11 -59 -45 -128.5t-67.5 -118.5t-88.5 -122q-42 -58 -65.5 -91.5t-56.5 -87t-53 -101.5t-30 -95h-159q12 68 34.5 130t60 125t61.5 98t71 100 q45 58 69.5 93.5t48.5 84.5t32 92q15 85 -21.5 122.5t-134.5 37.5q-47 0 -134 -12t-130 -21z" />
<glyph unicode="@" horiz-adv-x="1587" d="M156 313q0 77 16 183q60 347 282.5 542t561.5 195q283 0 438.5 -131t155.5 -383q0 -61 -15 -160q-42 -219 -161 -353t-265 -134q-131 0 -157 90q-50 -44 -120 -73.5t-147 -29.5q-111 0 -167 42t-56 143q0 42 10 94q12 69 35 115.5t55 77t86 46t116 21.5t157 6h37 q6 0 17 -1t18 -1l14 80q13 77 -16 106t-117 29q-65 0 -148 -14t-129 -29l-12 117q40 18 134.5 32.5t187.5 14.5q138 0 205 -40t67 -142q0 -32 -6 -70l-70 -387q-17 -121 43 -121q68 0 127 99t88 264q15 85 15 161q0 400 -447 400q-256 0 -421.5 -158t-223.5 -446 q-16 -94 -16 -168q0 -217 117.5 -323.5t332.5 -106.5q72 0 158.5 15.5t150.5 43.5l15 -115q-69 -33 -164.5 -51t-189.5 -18q-279 0 -435.5 135.5t-156.5 402.5zM680 272q0 -56 28.5 -76t96.5 -20q63 0 105 13.5t83 43.5h-2l45 263h-92q-61 0 -96.5 -3t-66 -11t-47 -26 t-27.5 -45t-19 -71q-8 -54 -8 -68z" />
<glyph unicode="A" horiz-adv-x="1071" d="M14 0l633 1413h266l144 -1413h-197l-37 406h-444l-172 -406h-193zM440 549h375l-65 713z" />
<glyph unicode="B" horiz-adv-x="1107" d="M133 0l242 1413h397q240 0 337 -49.5t97 -183.5q0 -43 -10 -111q-25 -135 -92.5 -212t-161.5 -97h4l-6 -35h-4q76 -9 117 -62t41 -147q0 -34 -11 -106q-17 -100 -43 -169t-64.5 -117t-98 -74.5t-134 -38t-182.5 -11.5h-428zM348 147h254q64 0 106 7t76 23.5t55.5 48.5 t36.5 77t27 115q8 44 8 84q0 90 -52 127t-165 37h-256zM461 805h291q114 0 175 63.5t83 178.5q6 41 6 69q0 85 -52.5 116.5t-183.5 31.5h-239z" />
<glyph unicode="C" horiz-adv-x="909" d="M178 283q0 145 49 426q21 120 44.5 214t51.5 168t57.5 128t68 92.5t78 63t92 39t105.5 19.5t122 5q66 0 149.5 -8.5t124.5 -18.5l-47 -151q-22 8 -104 17t-133 9t-83 -2.5t-69 -11.5t-60.5 -25.5t-50 -46.5t-45 -72t-38.5 -104t-37 -141.5t-35 -184.5q-45 -261 -45 -370 q0 -36 3.5 -64t12 -49t18.5 -35.5t28.5 -24.5t34.5 -15.5t44.5 -8.5t51.5 -3.5t61 -0.5q50 0 141 9t117 14l-13 -146q-38 -8 -141.5 -18.5t-169.5 -10.5q-72 0 -121 4t-95.5 15.5t-75 32.5t-50.5 55t-31.5 83.5t-9.5 117.5z" />
<glyph unicode="D" horiz-adv-x="1185" d="M133 0l242 1413h467q74 0 128 -5t102 -18.5t79 -37t54.5 -60t33.5 -88t10 -121.5q0 -133 -41 -364q-27 -159 -55.5 -269.5t-68 -192.5t-83.5 -130.5t-110.5 -77.5t-139 -39t-178.5 -10h-440zM348 147h248q54 0 89.5 2.5t73 12.5t61.5 27t50 47.5t43.5 72t37 104t35.5 139 t34 181.5q37 224 37 318q0 130 -55 171.5t-199 41.5h-262z" />
<glyph unicode="E" horiz-adv-x="925" d="M133 0l242 1413h735l-27 -149h-542l-82 -469h522l-25 -146h-522l-86 -502h547l-25 -147h-737z" />
<glyph unicode="F" horiz-adv-x="931" d="M129 0l242 1413h759l-26 -149h-569l-80 -473h538l-26 -146h-539l-111 -645h-188z" />
<glyph unicode="G" horiz-adv-x="1110" d="M180 307q0 136 45 400q22 124 45.5 220t53.5 170.5t61 128.5t74 92t85.5 61.5t102.5 36.5t118.5 17.5t139.5 4.5q84 0 192.5 -10t151.5 -21q-23 -61 -47 -147q-32 8 -149 19t-174 11q-55 0 -93 -3t-78.5 -13t-67.5 -27.5t-56 -48t-49.5 -73.5t-42 -104.5t-39 -140.5 t-35.5 -182q-39 -217 -39 -342q0 -52 6.5 -90t23 -63.5t36 -41t53 -23.5t66 -10.5t83.5 -2.5q117 0 203 18h-4q15 87 45.5 263.5t44.5 263.5l186 22l-116 -674q-51 -14 -170.5 -28.5t-214.5 -14.5q-71 0 -121 3t-99.5 11t-81.5 23t-61 39.5t-44.5 60t-24.5 83.5t-9 112z" />
<glyph unicode="H" horiz-adv-x="1167" d="M133 0l242 1413h190l-106 -614h522l106 614h189l-242 -1413h-188l108 645h-520l-110 -645h-191z" />
<glyph unicode="I" horiz-adv-x="466" d="M141 0l242 1413h188l-241 -1413h-189z" />
<glyph unicode="J" horiz-adv-x="733" d="M16 0l35 154q23 -9 86.5 -21t95.5 -12q113 0 165.5 56.5t80.5 211.5q28 166 88 512t88 512h193l-176 -1007q-44 -238 -142 -334.5t-290 -96.5q-134 0 -224 25z" />
<glyph unicode="K" horiz-adv-x="1073" d="M133 0l242 1413h190l-106 -618h207q117 80 233 278l201 340h194l-217 -362q-78 -130 -132.5 -193.5t-113.5 -101.5h3l-7 -35h-2q123 -51 168 -307l72 -414h-203l-69 389q-22 114 -61 175t-97 87h-199l-112 -651h-191z" />
<glyph unicode="L" horiz-adv-x="878" d="M133 0l242 1413h190l-217 -1266h533l-25 -147h-723z" />
<glyph unicode="M" horiz-adv-x="1497" d="M133 0l242 1413h280l142 -1128q88 189 265 563.5t265 564.5h279l-244 -1413h-174l209 1217l-572 -1217h-155l-152 1223l-211 -1223h-174z" />
<glyph unicode="N" horiz-adv-x="1189" d="M133 0l242 1413h252l293 -1180q198 1146 204 1180h176l-243 -1413h-250l-293 1176q-21 -119 -94 -534t-111 -642h-176z" />
<glyph unicode="O" horiz-adv-x="1181" d="M178 299q0 138 45 408q22 126 43.5 220t47.5 170.5t52 129t63.5 91.5t74.5 61.5t92 36t109.5 18t132.5 4.5q74 0 125.5 -4.5t100.5 -17.5t80 -36.5t54.5 -61t34 -92t10.5 -128.5q0 -149 -43 -391q-28 -162 -57 -275.5t-68.5 -197t-81.5 -132.5t-106 -78.5t-133 -39 t-170 -9.5q-92 0 -151 6.5t-112 25.5t-82 55t-45 94t-16 143zM373 334q0 -47 5.5 -81.5t19.5 -58t31 -37.5t46 -21.5t59 -10t76 -2.5q64 0 106 7t82 29.5t66 60t52 105.5t46.5 158t43.5 224q41 249 41 360q0 74 -13 119t-45 67.5t-71 29.5t-105 7q-64 0 -106 -7t-82 -30 t-66 -60.5t-52.5 -105t-47 -157.5t-43.5 -223q-43 -258 -43 -373z" />
<glyph unicode="P" horiz-adv-x="1067" d="M133 0l242 1413h442q199 0 283 -62t84 -212q0 -69 -19 -174q-43 -248 -163 -347.5t-347 -99.5h-243l-88 -518h-191zM436 662h252q140 0 202 68.5t91 234.5q14 74 14 131q0 100 -54 134t-189 34h-211z" />
<glyph unicode="Q" horiz-adv-x="1181" d="M178 299q0 138 45 408q22 126 43.5 220t47.5 170.5t52 129t63.5 91.5t74.5 61.5t92 36t109.5 18t132.5 4.5q74 0 125.5 -4.5t100.5 -17.5t80 -36.5t54.5 -61t34 -92t10.5 -128.5q0 -149 -43 -391q-28 -162 -57 -275.5t-68.5 -197t-81.5 -132.5t-106 -78.5t-133 -39 t-170 -9.5q-92 0 -151 6.5t-112 25.5t-82 55t-45 94t-16 143zM360 -133l33 92q65 0 130 -10.5t105.5 -21.5t100.5 -31q152 -50 244 -50l-23 -147q-54 0 -115.5 15t-96.5 29t-103 44q-58 26 -94 40t-87 27t-94 13zM373 334q0 -47 5.5 -81.5t19.5 -58t31 -37.5t46 -21.5 t59 -10t76 -2.5q64 0 106 7t82 29.5t66 60t52 105.5t46.5 158t43.5 224q41 249 41 360q0 74 -13 119t-45 67.5t-71 29.5t-105 7q-64 0 -106 -7t-82 -30t-66 -60.5t-52.5 -105t-47 -157.5t-43.5 -223q-43 -258 -43 -373z" />
<glyph unicode="R" horiz-adv-x="1089" d="M133 0l242 1413h411q228 0 317 -49t89 -190q0 -61 -16 -162q-45 -265 -244 -322h2l-6 -33h-2q54 -27 81 -85t27 -171q0 -24 -4 -94l-22 -307h-191l27 332q2 23 2 45q0 151 -86 231h-332l-104 -608h-191zM453 748h229q75 0 121.5 9t84 36.5t58.5 76.5t35 129q12 67 12 113 q0 90 -50 121t-181 31h-221z" />
<glyph unicode="S" horiz-adv-x="882" d="M55 8l60 162q138 -47 270 -47q113 0 201.5 61.5t111.5 165.5q3 18 3 35q-1 30 -9 58q-12 44 -45 83t-66 67.5t-85 65.5q-35 26 -46 34.5t-43.5 34t-44.5 38.5t-36.5 38.5t-34.5 45t-23.5 46.5t-18.5 55t-5 59q0 35 6 65q36 172 175 267.5t343 95.5q150 0 287 -29 l-58 -149q-139 32 -254 32q-124 0 -202 -54.5t-92 -143.5q-3 -18 -3 -35q0 -27 8 -55q13 -44 46.5 -84t64.5 -68t78 -64q55 -41 90 -70.5t76 -76t61.5 -99.5t20.5 -114q0 -34 -6 -72q-31 -182 -176 -281.5t-344 -99.5q-201 0 -310 33z" />
<glyph unicode="T" horiz-adv-x="946" d="M246 1264l26 149h889l-24 -149h-351l-217 -1264h-188l217 1264h-352z" />
<glyph unicode="U" horiz-adv-x="1159" d="M190 260q0 92 25 236q13 79 72 414.5t86 502.5h186l-158 -921q-16 -98 -16 -160q0 -117 55 -163t185 -46q120 0 243 18h-4q36 212 109.5 636t109.5 636h187l-240 -1390q-86 -19 -214.5 -33.5t-203.5 -14.5q-120 0 -195.5 12t-129 44t-75.5 87t-22 142z" />
<glyph unicode="V" horiz-adv-x="1071" d="M256 1413h195l104 -1280h2l551 1280h190l-628 -1413h-271z" />
<glyph unicode="W" horiz-adv-x="1677" d="M268 1413h193l45 -1192l475 1192h203l63 -1190l455 1190h190l-557 -1413h-239l-66 1128l-455 -1128h-233z" />
<glyph unicode="X" horiz-adv-x="1060" d="M2 0l545 731l-268 682h210l205 -528l381 528h205l-514 -688l293 -725h-217l-221 567l-410 -567h-209z" />
<glyph unicode="Y" horiz-adv-x="1015" d="M256 1413h197l182 -690l420 690h190l-553 -883l-90 -530h-190l90 530z" />
<glyph unicode="Z" horiz-adv-x="870" d="M27 0l20 133l801 1131h-606l24 149h821l-22 -133l-803 -1133h612l-22 -147h-825z" />
<glyph unicode="[" horiz-adv-x="505" d="M74 -291l317 1835h354l-22 -131h-170q-44 -259 -136 -787.5t-136 -787.5h172l-25 -129h-354z" />
<glyph unicode="\" horiz-adv-x="585" d="M246 1444h151l187 -1475h-152z" />
<glyph unicode="]" horiz-adv-x="505" d="M-25 -291l23 129h170q44 259 136 787.5t136 787.5h-172l23 131h354l-317 -1835h-353z" />
<glyph unicode="^" horiz-adv-x="591" d="M197 948l239 465h205l80 -465h-137l-66 352l-184 -352h-137z" />
<glyph unicode="_" horiz-adv-x="737" d="M-49 -248l24 139h748l-25 -139h-747z" />
<glyph unicode="`" horiz-adv-x="454" d="M324 1413h204l64 -209h-162z" />
<glyph unicode="a" horiz-adv-x="993" d="M119 209q0 48 14 137q13 77 31 131.5t48.5 94t67 63t94 37.5t121 19t156.5 5h74q13 0 38.5 -1t41.5 -1l20 117q6 37 6 66q0 72 -42 99.5t-144 27.5q-86 0 -184.5 -18.5t-157.5 -37.5l-14 144q56 22 171 40.5t230 18.5q172 0 252 -50.5t80 -178.5q0 -40 -10 -105 l-142 -817h-174l11 98q-40 -50 -123.5 -86.5t-194.5 -36.5q-137 0 -203.5 52t-66.5 182zM305 254q0 -79 38.5 -108t127.5 -29q81 0 135.5 21t116.5 67h-2l61 362h-129q-68 0 -108.5 -2t-79.5 -10t-60 -21.5t-40 -39.5t-29.5 -60t-20.5 -86q-10 -62 -10 -94z" />
<glyph unicode="b" horiz-adv-x="1064" d="M121 0l241 1413l197 25l-63 -365h4q93 78 295 78q81 0 135.5 -12t95.5 -44t59.5 -89.5t18.5 -145.5q0 -107 -31 -285q-60 -324 -168 -462t-315 -138q-105 0 -177.5 30t-97.5 75l-22 -80h-172zM346 190q25 -28 87 -48.5t134 -20.5q70 0 118.5 20.5t87 74t65.5 140.5 t51 224q24 141 24 231q0 116 -45.5 155.5t-154.5 39.5q-124 0 -238 -43h2z" />
<glyph unicode="c" horiz-adv-x="792" d="M154 272q0 116 30 289q25 143 58 243t75 168.5t101 107t130 55t169 16.5q130 0 229 -29l-41 -143q-25 7 -88.5 16t-101.5 9q-54 0 -92.5 -7t-73 -26t-59 -50t-47 -81.5t-40 -117.5t-34.5 -161q-27 -162 -27 -235q0 -122 53 -163.5t183 -41.5q83 0 194 24l-8 -145 q-128 -25 -250 -25q-99 0 -162.5 12t-110.5 45t-67 91t-20 149z" />
<glyph unicode="d" horiz-adv-x="1064" d="M150 258q0 114 30 287q34 188 76 305t104.5 184.5t138.5 92t191 24.5q84 0 148.5 -19t97.5 -45h4l55 326l195 25l-246 -1438h-178l10 100q-40 -57 -124 -91t-201 -34q-163 0 -232 62.5t-69 220.5zM340 305q0 -59 11 -96t36.5 -56t57.5 -25.5t85 -6.5q155 0 256 76h-2 q22 127 67 382t67 382h2q-103 45 -228 45q-73 0 -120.5 -18.5t-85.5 -70.5t-64.5 -136.5t-52.5 -223.5q-29 -171 -29 -252z" />
<glyph unicode="e" horiz-adv-x="1001" d="M156 289q0 102 28 272q26 150 60 253.5t75.5 170t102 103t127.5 50t164 13.5q91 0 150.5 -12.5t102.5 -44.5t62 -88t19 -142q0 -105 -27 -258q-2 -16 -8 -47t-8 -47h-644q-18 -105 -18 -180q0 -125 55.5 -168t184.5 -43q81 0 176.5 16.5t150.5 34.5l-2 -149 q-58 -19 -167.5 -33.5t-211.5 -14.5q-101 0 -167.5 14t-114.5 49t-69 96.5t-21 154.5zM383 641h463q20 111 20 193q0 101 -40 135.5t-140 34.5q-94 0 -149.5 -31.5t-91.5 -108.5t-62 -223z" />
<glyph unicode="f" horiz-adv-x="645" d="M172 0l170 979h-143l24 147h142q1 9 5 28t5 28q14 82 42.5 134.5t74.5 79.5t97 36.5t126 9.5q100 0 164 -17l-23 -133q-68 15 -147 15q-42 0 -68 -6.5t-42 -25.5t-23 -41t-15 -63l-6 -45h272l-24 -147h-273q-160 -919 -170 -979h-188z" />
<glyph unicode="g" horiz-adv-x="1060" d="M100 -246l64 146q199 -43 332 -43q124 0 183 47.5t79 148.5q2 14 8 42t8 44q-106 -106 -328 -106q-155 0 -221.5 60.5t-66.5 213.5q0 98 28 268q18 108 40 190t47 143.5t58 103.5t67.5 69t83 42t97 20.5t115.5 5.5q180 0 246 -62h4l25 39h164l-189 -1091 q-13 -78 -42.5 -135t-70.5 -92.5t-99 -57t-120.5 -29.5t-144.5 -8q-183 0 -367 41zM346 352q0 -57 10.5 -92t34.5 -53t52.5 -23.5t76.5 -5.5q179 0 275 74h-2l125 713h2q-94 41 -236 41q-49 0 -82 -5t-64.5 -21t-52.5 -43.5t-42 -74.5t-37 -112t-33 -158q-27 -153 -27 -240z " />
<glyph unicode="h" horiz-adv-x="1054" d="M121 0l241 1413l195 25l-65 -398q58 45 143.5 78t175.5 33q46 0 82 -4.5t74 -18.5t63 -38t41 -66t16 -98q0 -35 -10 -97l-141 -829h-188l137 797q8 39 8 75q0 73 -37.5 102.5t-116.5 29.5q-131 0 -274 -95h2l-156 -909h-190z" />
<glyph unicode="i" horiz-adv-x="438" d="M125 0l192 1126h187l-193 -1126h-186zM334 1214l33 199h188l-35 -199h-186z" />
<glyph unicode="j" horiz-adv-x="428" d="M-41 -174q42 33 72.5 73.5t64 129t54.5 215.5l153 882h191l-152 -884q-15 -87 -34.5 -157.5t-45.5 -122.5t-49 -89.5t-57 -70t-56.5 -50.5t-60.5 -45zM322 1221l30 192h193l-33 -192h-190z" />
<glyph unicode="k" horiz-adv-x="968" d="M121 0l241 1413l193 25l-129 -756h149q87 51 201 211q15 22 72 106t84 127h201l-127 -184q-105 -147 -161 -206.5t-124 -102.5h2q0 -4 -2 -12.5t-2 -12.5h-2q27 -18 44.5 -33t42 -44.5t43 -75t30.5 -105.5l73 -350h-200l-54 274q-42 189 -147 273h-146l-94 -547h-188z " />
<glyph unicode="l" horiz-adv-x="446" d="M129 0l242 1413l192 25l-246 -1438h-188z" />
<glyph unicode="m" horiz-adv-x="1669" d="M121 0l192 1126h181l-17 -94h2q59 48 150 82.5t188 34.5q215 0 254 -129q191 131 356 131q59 0 102 -8t85.5 -30t65 -68.5t22.5 -116.5q0 -37 -10 -99l-142 -829h-188l137 797q8 39 8 75q0 73 -37 104.5t-114 31.5q-126 0 -275 -99h2l-155 -909h-185l136 797q8 39 8 75 q0 73 -37.5 104.5t-114.5 31.5q-125 0 -274 -99h2l-156 -909h-186z" />
<glyph unicode="n" horiz-adv-x="1054" d="M121 0l192 1126h181l-17 -96h2q157 121 348 121q52 0 92.5 -8.5t80.5 -31t62.5 -69.5t22.5 -116q0 -35 -10 -97l-141 -829h-186l137 797q6 34 6 69q0 142 -150 142q-131 0 -280 -99h2l-156 -909h-186z" />
<glyph unicode="o" horiz-adv-x="1046" d="M152 258q0 99 34 305q21 121 43 204.5t53 152.5t68 110.5t91.5 70t121 39.5t158.5 11q203 0 283.5 -60.5t80.5 -224.5q0 -103 -32 -303q-22 -124 -44 -209t-53 -154t-68 -109.5t-92 -68t-121 -37.5t-159 -10q-203 0 -283.5 60t-80.5 223zM340 297q0 -105 45 -140.5 t158 -35.5q54 0 92 6.5t70 27t53 50t41 83t35 118t32 163.5q33 193 33 271q0 101 -44 132.5t-161 31.5q-56 0 -92.5 -5t-69.5 -23t-53 -45.5t-40 -79.5t-34.5 -116.5t-31.5 -165.5q-33 -196 -33 -272z" />
<glyph unicode="p" horiz-adv-x="1064" d="M74 -287l243 1413h175q2 -8 2 -26q0 -21 2 -25h4q88 76 274 76q89 0 146 -11t101 -42t63.5 -88.5t19.5 -147.5q0 -116 -29 -280q-58 -306 -161 -452t-285 -146q-128 0 -202 19.5t-103 64.5l-62 -355h-188zM346 190q25 -28 87 -48.5t136 -20.5q92 0 149.5 39.5t98 136.5 t72.5 274q29 168 29 250q0 59 -11.5 96t-38.5 56.5t-61.5 26t-91.5 6.5q-132 0 -240 -43h2z" />
<glyph unicode="q" horiz-adv-x="1064" d="M150 258q0 105 32 289q43 236 108.5 368t158.5 184t239 52q92 0 157 -18t91 -46h4q16 27 21 39h176l-244 -1415h-191l62 365q-105 -101 -320 -101q-158 0 -226 63t-68 220zM342 305q0 -59 10.5 -96t35 -56t55.5 -25.5t81 -6.5q96 0 155 20.5t107 55.5h-2q22 127 67 380.5 t67 380.5h2q-109 48 -226 48q-62 0 -104 -11.5t-76 -38t-58.5 -79t-44 -125t-40.5 -185.5q-29 -179 -29 -262z" />
<glyph unicode="r" horiz-adv-x="647" d="M113 0l192 1126h178l-22 -120h4q62 60 153.5 102.5t204.5 42.5l-30 -170h-52q-160 0 -292 -94h2l-154 -887h-184z" />
<glyph unicode="s" horiz-adv-x="819" d="M47 14l66 152q37 -16 113.5 -30.5t142.5 -14.5q107 0 179.5 41.5t86.5 124.5q5 32 -3.5 59.5t-22.5 45.5t-46 39.5t-52.5 32.5t-64.5 32q-122 60 -170 100q-88 76 -88 187q0 26 5 53q15 83 59.5 145.5t110.5 98.5t144.5 53.5t170.5 17.5q167 0 270 -27l-51 -143 q-32 8 -109 15.5t-133 7.5q-108 0 -182 -37t-90 -119q-5 -32 4 -59.5t22.5 -46t45.5 -40.5t52.5 -32.5t63.5 -32.5q122 -61 170 -103q85 -75 85 -182q0 -25 -5 -53q-15 -86 -59.5 -150t-109.5 -101t-141 -55t-163 -18q-178 0 -301 39z" />
<glyph unicode="t" horiz-adv-x="657" d="M199 979l24 147h137q5 30 17.5 93t17.5 94l195 57l-41 -244h270l-24 -147h-271l-114 -660q-13 -70 -13 -102q0 -51 25 -70.5t88 -19.5q74 0 141 16l-24 -139q-87 -22 -199 -22q-122 0 -172.5 39.5t-50.5 136.5q0 56 12 129l121 692h-139z" />
<glyph unicode="u" horiz-adv-x="1040" d="M154 197q0 49 8 98l143 831h184l-135 -798q-8 -41 -8 -82q0 -70 33 -99.5t106 -29.5q138 0 293 98h-2q26 152 79 456t79 455h184l-192 -1126h-178l16 94h-2q-56 -46 -151 -82.5t-189 -36.5q-46 0 -81.5 4.5t-72.5 18.5t-60.5 37.5t-38.5 64.5t-15 97z" />
<glyph unicode="v" horiz-adv-x="966" d="M211 1126h192l107 -968l440 968h191l-531 -1126h-254z" />
<glyph unicode="w" horiz-adv-x="1480" d="M221 1126h185l51 -899q336 768 393 899h174l78 -905l362 905h183l-473 -1126h-205l-78 872q-64 -145 -193 -436t-192 -436h-199z" />
<glyph unicode="x" horiz-adv-x="972" d="M12 0l471 580q-96 210 -245 546h204l183 -403q36 46 101 127.5t119 149.5t101 126h187l-441 -542q43 -95 134.5 -292t134.5 -292h-211l-199 438l-346 -438h-193z" />
<glyph unicode="y" horiz-adv-x="966" d="M211 1126h190l109 -970l440 970h193l-670 -1413h-188l143 287h-74z" />
<glyph unicode="z" horiz-adv-x="854" d="M35 0l20 133l703 846h-539l25 147h753l-22 -131l-694 -850h565l-25 -145h-786z" />
<glyph unicode="{" horiz-adv-x="593" d="M145 551l27 160q98 33 158 103t84 200l24 137q33 199 132.5 287t285.5 106l-20 -125q-92 -15 -140.5 -70t-70.5 -169q-4 -26 -14.5 -82t-14.5 -82q-15 -89 -41.5 -154t-67 -109t-84.5 -71.5t-106 -52.5q87 -43 131.5 -102t44.5 -165q0 -38 -12 -120l-27 -166 q-8 -41 -8 -80q0 -70 33 -107t102 -49l-20 -127q-156 14 -224.5 76t-68.5 199q0 74 18 176l13 72q8 44 8 94q0 167 -142 221z" />
<glyph unicode="|" horiz-adv-x="497" d="M115 -399l334 1943h129l-334 -1943h-129z" />
<glyph unicode="}" horiz-adv-x="593" d="M-47 -287l22 127q91 18 139 71.5t68 164.5q4 27 14.5 83t14.5 83q15 88 42 152.5t67.5 108.5t84.5 72t107 54q-43 22 -73 43.5t-55 52.5t-37.5 73t-12.5 97q0 39 12 121l27 164q8 44 8 86q0 71 -32 106t-103 47l20 125q158 -14 226.5 -76t68.5 -202q0 -64 -16 -170 l-13 -70q-10 -62 -10 -102q0 -88 36 -137.5t106 -75.5l-27 -160q-99 -33 -157.5 -101.5t-82.5 -199.5l-24 -144q-38 -191 -140.5 -284.5t-279.5 -108.5z" />
<glyph unicode="~" horiz-adv-x="1060" d="M203 573q124 162 278 162q81 0 209 -63q42 -20 58.5 -27.5t47 -17t52.5 -9.5q85 0 170 111l69 -82q-124 -162 -278 -162q-77 0 -199 62q-108 55 -166 55q-91 0 -174 -108z" />
<glyph unicode="&#xa1;" horiz-adv-x="485" d="M344 1126h180l43 -262h-178zM440 725h125l228 -1012h-230z" />
<glyph unicode="&#xa2;" horiz-adv-x="974" d="M242 424q0 102 32 299q29 172 66 282t92.5 175.5t122.5 93t168 33.5h-4q3 21 11 65.5t11 65.5h174l-22 -131q87 -6 139 -21l-39 -141q-86 22 -194 22q-101 0 -161.5 -35t-104.5 -131.5t-78 -281.5q-25 -150 -25 -236q0 -65 12.5 -105.5t42 -62t67.5 -29t99 -7.5 q102 0 205 24l-8 -143q-93 -20 -191 -25l-26 -162h-176l28 166q-128 12 -184.5 75.5t-56.5 209.5z" />
<glyph unicode="&#xa3;" horiz-adv-x="999" d="M80 0l24 141q107 52 161 132.5t79 220.5l31 180h-191l25 139h190l39 221q37 221 138.5 312.5t312.5 91.5q70 0 158.5 -20.5t119.5 -43.5l-88 -133q-30 16 -97.5 30.5t-115.5 14.5q-102 0 -156 -52.5t-77 -184.5q-6 -39 -20.5 -118t-20.5 -118h387l-23 -139h-389l-32 -187 q-22 -125 -69.5 -205t-133.5 -135h633l-23 -147h-862z" />
<glyph unicode="&#xa4;" horiz-adv-x="1148" d="M117 291l135 121h-2q-60 102 -60 221q0 45 9 88q38 196 161 311h-2l-94 113l105 94l92 -117q70 50 157 78.5t170 28.5t159 -29t132 -80q22 18 66 58t65 59l68 -88l-133 -117h2q61 -85 61 -219q0 -30 -8 -92q-33 -179 -160 -309h2l91 -119l-39 -33l-64 -55l-90 117 q-149 -109 -330 -109q-80 0 -157.5 30t-128.5 81l-140 -121zM317 649q0 -140 88.5 -233.5t225.5 -93.5q154 0 282 119.5t160 279.5q6 35 6 70q0 138 -87 232.5t-224 94.5q-156 0 -286 -117t-158 -282q-7 -44 -7 -70z" />
<glyph unicode="&#xa5;" horiz-adv-x="1044" d="M150 289l24 139h324l18 102q0 1 -1 5t-1 6q-4 12 -4 20h-311l24 137h250q-19 77 -42.5 167t-52.5 198.5t-44 165.5l-49 184h194q83 -331 115 -467l55 -221q36 63 269 455q22 38 69 116.5t68 116.5h190q-23 -39 -69 -113l-369 -602h256l-23 -137h-315l-18 -31l-19 -102 h328l-25 -139h-327l-48 -289h-190l47 289h-323z" />
<glyph unicode="&#xa6;" horiz-adv-x="423" d="M76 -410l135 781h127l-135 -781h-127zM279 764l135 780h127l-135 -780h-127z" />
<glyph unicode="&#xa7;" horiz-adv-x="1034" d="M115 -98l84 147q42 -28 125 -50t155 -22q100 0 167.5 40t78.5 104q5 27 -7 52t-29.5 42.5t-55 38.5t-63.5 32.5t-76 32.5q-154 65 -215 109q-125 90 -103 219q20 101 95 171.5t184 99.5q-130 96 -109 231q24 135 150 212t301 77q83 0 172 -21t139 -49l-57 -102 q-22 -37 -23 -39q-47 22 -118.5 40.5t-131.5 18.5q-100 0 -164 -37t-73 -94q-5 -26 1 -49.5t25.5 -44t37.5 -35.5t55 -33t57.5 -27.5t64.5 -27.5q147 -60 204 -99q115 -82 93 -202q-18 -107 -92 -179t-178 -102q125 -93 104 -219q-28 -145 -155.5 -228t-294.5 -83 q-102 0 -199 23t-149 53zM360 672q3 -64 70 -114t182 -97l82 -39q75 26 132 75t71 115q-1 33 -22 63t-61 56t-80 45.5t-97 42.5q-20 8 -70 23q-77 -19 -135.5 -66t-71.5 -104z" />
<glyph unicode="&#xa8;" horiz-adv-x="641" d="M307 1212l33 191h156l-33 -191h-156zM594 1212l33 191h155l-30 -191h-158z" />
<glyph unicode="&#xa9;" horiz-adv-x="1570" d="M193 573q0 76 10 132q35 198 156.5 365.5t300.5 265.5t374 98q172 0 306.5 -78.5t208 -214t73.5 -303.5q0 -66 -12 -133q-34 -198 -155.5 -365.5t-301 -266t-373.5 -98.5q-173 0 -308 78.5t-207 214.5t-72 305zM338 588q0 -140 55.5 -253.5t162 -181t245.5 -67.5 q118 0 231.5 50.5t201 134.5t149 197.5t81.5 236.5q11 56 11 120q0 140 -55 253t-160.5 180t-243.5 67q-117 0 -230 -51t-201 -136.5t-151 -198.5t-86 -234q-10 -62 -10 -117zM496 618q0 52 8 91q26 116 98.5 217.5t176.5 164t212 62.5q102 0 178 -47.5t111 -118.5l-129 -94 q-28 55 -74.5 88t-107.5 33q-105 0 -189.5 -92t-107.5 -215q-6 -30 -6 -62q0 -105 53.5 -176.5t144.5 -71.5q60 0 118 32t101 83l101 -88q-68 -74 -160 -120t-190 -46q-150 0 -244 101.5t-94 258.5z" />
<glyph unicode="&#xaa;" horiz-adv-x="669" d="M121 479l18 113h561l-18 -113h-561zM188 829q0 11 9 76q13 71 36.5 115t67 68.5t98 33t142.5 8.5h41q8 0 25.5 -1t29.5 -1q1 10 5 33t5 33q10 64 -14.5 86.5t-91.5 22.5q-97 0 -234 -35l-18 102q38 15 122 28t158 13q135 0 195.5 -47.5t38.5 -167.5l-86 -510h-154l4 43 q-60 -57 -184 -57q-95 0 -145 34.5t-50 122.5zM346 848q0 -43 20.5 -58.5t71.5 -15.5q77 0 148 51h-2l37 211h-74q-46 0 -72 -2t-50 -9t-36.5 -21t-21.5 -36.5t-15 -58.5q-6 -37 -6 -61z" />
<glyph unicode="&#xab;" horiz-adv-x="802" d="M143 565l299 463h156l-279 -463l119 -461h-157zM496 565l299 463h155l-278 -463l119 -461h-158z" />
<glyph unicode="&#xac;" horiz-adv-x="1044" d="M244 653l22 140h783l-91 -506h-147l63 366h-630z" />
<glyph unicode="&#xad;" horiz-adv-x="0" />
<glyph unicode="&#xae;" horiz-adv-x="1570" d="M193 573q0 76 10 132q26 148 104 282.5t188 232.5t251 156t286 58q173 0 308 -78.5t208.5 -214t73.5 -303.5q0 -66 -12 -133q-34 -198 -155.5 -365.5t-301.5 -266t-375 -98.5q-173 0 -307 78.5t-206 214.5t-72 305zM338 588q0 -141 55.5 -255t161.5 -181.5t244 -67.5 q119 0 232.5 50.5t201 135t149.5 198.5t82 237q11 56 11 118q0 214 -127 357t-336 143q-116 0 -228.5 -51t-200 -135.5t-150 -197.5t-85.5 -234q-10 -62 -10 -117zM571 291l146 844h282q139 0 206.5 -68.5t47.5 -187.5q-35 -192 -229 -238h4q16 -47 68 -176l67 -174h-155 q-19 44 -62 162l-61 161h-117l-53 -323h-144zM786 719h142q67 0 119 41t65 112q11 67 -22 106.5t-105 39.5h-145z" />
<glyph unicode="&#xaf;" horiz-adv-x="591" d="M248 1233l22 133h521l-23 -133h-520z" />
<glyph unicode="&#xb0;" horiz-adv-x="811" d="M229 870q0 54 17 158q20 117 50 191.5t79.5 117.5t113.5 59.5t160 16.5q153 0 219 -48t66 -177q0 -62 -16 -160q-20 -116 -50 -189.5t-80 -116t-113 -59t-159 -16.5q-154 0 -220.5 47.5t-66.5 175.5zM383 903q0 -74 34.5 -95.5t123.5 -21.5q59 0 89.5 6t59 30.5 t44.5 72.5t30 133q14 74 14 129q0 73 -33 94t-120 21q-59 0 -90.5 -6.5t-60.5 -32t-45.5 -73.5t-31.5 -132q-14 -89 -14 -125z" />
<glyph unicode="&#xb1;" horiz-adv-x="1044" d="M131 0l23 137h782l-25 -137h-780zM244 653l22 138h316l63 366h150l-62 -366h316l-25 -138h-315l-64 -366h-151l63 366h-313z" />
<glyph unicode="&#xb2;" d="M178 557l21 111l329 303q83 76 119 121t43 92q10 57 -22.5 88t-96.5 31q-56 0 -130.5 -16t-110.5 -32l-15 125q118 47 297 47q140 0 204.5 -62t47.5 -173q-21 -112 -211 -287l-243 -221h376l-22 -127h-586z" />
<glyph unicode="&#xb3;" d="M168 578l51 127q113 -37 225 -37q82 0 129.5 35.5t61.5 119.5q13 81 -21 116.5t-114 35.5q-44 0 -80 -8l-23 84l242 237h-336l23 125h534l-16 -106l-223 -217q91 -6 142.5 -52.5t51.5 -134.5q0 -30 -6 -67q-24 -145 -125.5 -219t-263.5 -74q-124 0 -252 35z" />
<glyph unicode="&#xb4;" horiz-adv-x="454" d="M287 1204l137 209h205l-176 -209h-166z" />
<glyph unicode="&#xb5;" horiz-adv-x="1040" d="M61 -287l244 1413h184l-135 -798q-8 -41 -8 -82q0 -70 33.5 -99.5t107.5 -29.5q136 0 291 98h-2q26 152 79 456t79 455h184l-192 -1126h-178l16 94h-2q-59 -46 -156.5 -79t-191.5 -33q-64 0 -117 18l-49 -287h-187z" />
<glyph unicode="&#xb6;" horiz-adv-x="901" d="M201 1044q0 36 6 66q24 127 115 215t235 88h510l-6 -31l-53 -36q-47 -35 -52 -76l-270 -1559h-106l278 1614h-188q-45 -265 -139.5 -807t-139.5 -807h-106l188 1094q-138 0 -205 66t-67 173z" />
<glyph unicode="&#xb7;" horiz-adv-x="325" d="M168 618l37 211h205l-37 -211h-205z" />
<glyph unicode="&#xb8;" horiz-adv-x="495" d="M18 -324l45 84q81 -18 99 -18q82 0 90 57q5 28 -19 39.5t-92 11.5h-55l135 150h121l-70 -72q65 -7 96 -34.5t21 -88.5q-12 -58 -51.5 -94t-84 -47.5t-97.5 -11.5q-84 0 -138 24z" />
<glyph unicode="&#xb9;" d="M229 557l21 125h186l99 563q-99 -56 -103 -59l-84 -47l-47 98l281 176h145l-127 -731h160l-21 -125h-510z" />
<glyph unicode="&#xba;" horiz-adv-x="757" d="M158 479l18 113h612l-18 -113h-612zM231 895q0 52 17 152q20 114 50 186t77.5 111.5t104.5 54t143 14.5q137 0 199.5 -45.5t62.5 -169.5q0 -51 -17 -151q-20 -113 -50 -185.5t-77.5 -112.5t-104 -54.5t-140.5 -14.5q-139 0 -202 45t-63 170zM389 909q0 -61 28 -82.5 t101 -21.5q94 0 129 45.5t62 193.5q16 91 16 138q0 64 -27.5 85t-97.5 21q-50 0 -78.5 -8t-51 -36t-36.5 -73t-28 -127q-17 -97 -17 -135z" />
<glyph unicode="&#xbb;" horiz-adv-x="784" d="M43 104l281 461l-121 463h155l142 -463l-301 -461h-156zM379 104l280 461l-120 463h155l142 -463l-301 -461h-156z" />
<glyph unicode="&#xbc;" horiz-adv-x="1918" d="M229 557l21 125h186l99 563q-99 -56 -103 -59l-84 -47l-47 98l281 176h145l-127 -731h160l-21 -125h-510zM502 0l987 1413h149l-989 -1413h-147zM1196 186l23 125l491 543h168l-94 -549h90l-19 -119h-90q-5 -31 -17 -94.5t-17 -93.5h-160l35 188h-410zM1362 305h264 l62 361z" />
<glyph unicode="&#xbd;" horiz-adv-x="1918" d="M229 557l21 125h186l99 563q-99 -56 -103 -59l-84 -47l-47 98l281 176h145l-127 -731h160l-21 -125h-510zM502 0l987 1413h149l-989 -1413h-147zM1192 -2l20 111l330 303q83 76 119 121t43 92q10 57 -22 87.5t-97 30.5q-57 0 -132 -16t-110 -31l-14 125q118 47 297 47 q140 0 204.5 -62t47.5 -173q-21 -112 -211 -287l-244 -221h377l-22 -127h-586z" />
<glyph unicode="&#xbe;" horiz-adv-x="1918" d="M168 578l51 127q113 -37 225 -37q82 0 129.5 35.5t61.5 119.5q13 81 -21 116.5t-114 35.5q-44 0 -80 -8l-23 84l242 237h-336l23 125h534l-16 -106l-223 -217q91 -6 142.5 -52.5t51.5 -134.5q0 -30 -6 -67q-24 -145 -125.5 -219t-263.5 -74q-124 0 -252 35zM502 0 l987 1413h149l-989 -1413h-147zM1196 186l23 125l491 543h168l-94 -549h90l-19 -119h-90q-5 -31 -17 -94.5t-17 -93.5h-160l35 188h-410zM1362 305h264l62 361z" />
<glyph unicode="&#xbf;" horiz-adv-x="741" d="M47 -86q0 31 6 68q11 59 45.5 128.5t67 117.5t88.5 122q42 58 65.5 91.5t56.5 87t53 101.5t30 95h159q-12 -68 -34.5 -130t-60 -125t-61.5 -98t-71 -100q-66 -87 -102 -147.5t-47 -122.5q-15 -85 21 -122.5t134 -37.5q47 0 134.5 12t130.5 21l-3 -145q-47 -14 -151 -27.5 t-172 -13.5q-141 0 -215 58.5t-74 166.5zM477 864l43 262h178l-45 -262h-176z" />
<glyph unicode="&#xc0;" horiz-adv-x="1071" d="M14 0l633 1413h266l144 -1413h-197l-37 406h-444l-172 -406h-193zM440 549h375l-65 713zM602 1698h205l63 -209h-161z" />
<glyph unicode="&#xc1;" horiz-adv-x="1071" d="M14 0l633 1413h266l144 -1413h-197l-37 406h-444l-172 -406h-193zM440 549h375l-65 713zM705 1489l137 209h205l-177 -209h-165z" />
<glyph unicode="&#xc2;" horiz-adv-x="1071" d="M14 0l633 1413h266l144 -1413h-197l-37 406h-444l-172 -406h-193zM440 549h375l-65 713zM559 1489l160 209h209l90 -209h-123l-88 113l-125 -113h-123z" />
<glyph unicode="&#xc3;" horiz-adv-x="1071" d="M14 0l633 1413h266l144 -1413h-197l-37 406h-444l-172 -406h-193zM440 549h375l-65 713zM518 1569q22 41 76.5 84t122.5 43q51 0 131 -41q64 -33 90 -33q45 0 104 82l56 -64q-16 -38 -72 -84.5t-125 -46.5q-52 0 -132 41q-5 3 -7 4q-6 3 -17.5 9.5t-18 9.5t-15.5 7 t-16.5 5.5t-14.5 1.5q-44 0 -107 -80z" />
<glyph unicode="&#xc4;" horiz-adv-x="1071" d="M14 0l633 1413h266l144 -1413h-197l-37 406h-444l-172 -406h-193zM440 549h375l-65 713zM567 1497l33 191h156l-33 -191h-156zM854 1497l33 191h155l-30 -191h-158z" />
<glyph unicode="&#xc5;" horiz-adv-x="1071" d="M14 0l518 1155q-42 65 -26 150q19 104 102.5 171.5t190.5 67.5t170 -68t45 -171q-15 -81 -80 -146h2q20 -192 61 -579t60 -580h-197l-37 406h-444l-172 -406h-193zM440 549h375l-47 516q-36 -4 -53 -4q-26 0 -56 6q-35 -84 -109.5 -259t-109.5 -259zM651 1298 q-8 -50 16.5 -81t71.5 -31q46 0 82 31.5t43 80.5q9 50 -16 82.5t-72 32.5q-46 0 -82 -33t-43 -82zM768 1065v2h4z" />
<glyph unicode="&#xc6;" horiz-adv-x="1554" d="M8 0l787 1413h952l-27 -149h-534l-80 -469h512l-27 -146h-512l-86 -502h539l-25 -147h-727l68 406h-416l-221 -406h-203zM506 549h368l123 715h-98z" />
<glyph unicode="&#xc7;" horiz-adv-x="909" d="M178 283q0 145 49 426q21 120 44.5 214t51.5 168t57.5 128t68 92.5t78 63t92 39t105.5 19.5t122 5q66 0 149.5 -8.5t124.5 -18.5l-47 -151q-22 8 -104 17t-133 9t-83 -2.5t-69 -11.5t-60.5 -25.5t-50 -46.5t-45 -72t-38.5 -104t-37 -141.5t-35 -184.5q-45 -261 -45 -370 q0 -36 3.5 -64t12 -49t18.5 -35.5t28.5 -24.5t34.5 -15.5t44.5 -8.5t51.5 -3.5t61 -0.5q50 0 141 9t117 14l-13 -146q-38 -8 -141.5 -18.5t-169.5 -10.5q-72 0 -121 4t-95.5 15.5t-75 32.5t-50.5 55t-31.5 83.5t-9.5 117.5zM305 -324l45 84q81 -18 99 -18q82 0 90 57 q5 28 -19 39.5t-92 11.5h-55l135 150h121l-70 -72q65 -7 96 -34.5t21 -88.5q-12 -58 -52 -94t-84.5 -47.5t-97.5 -11.5q-83 0 -137 24z" />
<glyph unicode="&#xc8;" horiz-adv-x="925" d="M133 0l242 1413h735l-27 -149h-542l-82 -469h522l-25 -146h-522l-86 -502h547l-25 -147h-737zM590 1698h205l63 -209h-162z" />
<glyph unicode="&#xc9;" horiz-adv-x="925" d="M133 0l242 1413h735l-27 -149h-542l-82 -469h522l-25 -146h-522l-86 -502h547l-25 -147h-737zM647 1489l137 209h205l-176 -209h-166z" />
<glyph unicode="&#xca;" horiz-adv-x="925" d="M133 0l242 1413h735l-27 -149h-542l-82 -469h522l-25 -146h-522l-86 -502h547l-25 -147h-737zM537 1489l159 209h209l90 -209h-123l-88 113l-125 -113h-122z" />
<glyph unicode="&#xcb;" horiz-adv-x="925" d="M133 0l242 1413h735l-27 -149h-542l-82 -469h522l-25 -146h-522l-86 -502h547l-25 -147h-737zM545 1497l33 191h155l-33 -191h-155zM831 1497l33 191h156l-31 -191h-158z" />
<glyph unicode="&#xcc;" horiz-adv-x="466" d="M141 0l242 1413h188l-241 -1413h-189zM373 1698h205l63 -209h-162z" />
<glyph unicode="&#xcd;" horiz-adv-x="466" d="M141 0l242 1413h188l-241 -1413h-189zM336 1489l137 209h205l-176 -209h-166z" />
<glyph unicode="&#xce;" horiz-adv-x="466" d="M141 0l242 1413h188l-241 -1413h-189zM262 1489l160 209h209l90 -209h-123l-88 113l-125 -113h-123z" />
<glyph unicode="&#xcf;" horiz-adv-x="466" d="M141 0l242 1413h188l-241 -1413h-189zM270 1497l33 191h156l-33 -191h-156zM557 1497l33 191h155l-30 -191h-158z" />
<glyph unicode="&#xd0;" horiz-adv-x="1185" d="M127 643l25 156h116l107 614h467q74 0 128 -5t102 -18.5t79 -37t54.5 -60t33.5 -88t10 -121.5q0 -133 -41 -364q-27 -159 -55.5 -269.5t-68 -192.5t-83.5 -130.5t-110.5 -77.5t-139 -39t-178.5 -10h-440l111 643h-117zM348 147h248q69 0 114 6.5t88.5 29t71.5 60.5 t55.5 105.5t49 159t45.5 225.5q37 214 37 318q0 130 -55 171.5t-199 41.5h-262l-82 -465h262l-27 -156h-260z" />
<glyph unicode="&#xd1;" horiz-adv-x="1189" d="M133 0l242 1413h252l293 -1180q198 1146 204 1180h176l-243 -1413h-250l-293 1176q-21 -119 -94 -534t-111 -642h-176zM580 1569q22 41 76 84t122 43q51 0 131 -41q64 -33 90 -33q46 0 105 82l55 -64q-16 -38 -71.5 -84.5t-124.5 -46.5q-52 0 -140 45q-6 3 -17.5 9.5 t-18 9.5t-15.5 7t-16.5 5.5t-14.5 1.5q-43 0 -106 -80z" />
<glyph unicode="&#xd2;" horiz-adv-x="1181" d="M178 299q0 138 45 408q22 126 43.5 220t47.5 170.5t52 129t63.5 91.5t74.5 61.5t92 36t109.5 18t132.5 4.5q74 0 125.5 -4.5t100.5 -17.5t80 -36.5t54.5 -61t34 -92t10.5 -128.5q0 -149 -43 -391q-28 -162 -57 -275.5t-68.5 -197t-81.5 -132.5t-106 -78.5t-133 -39 t-170 -9.5q-92 0 -151 6.5t-112 25.5t-82 55t-45 94t-16 143zM373 334q0 -47 5.5 -81.5t19.5 -58t31 -37.5t46 -21.5t59 -10t76 -2.5q64 0 106 7t82 29.5t66 60t52 105.5t46.5 158t43.5 224q41 249 41 360q0 74 -13 119t-45 67.5t-71 29.5t-105 7q-64 0 -106 -7t-82 -30 t-66 -60.5t-52.5 -105t-47 -157.5t-43.5 -223q-43 -258 -43 -373zM664 1698h204l64 -209h-162z" />
<glyph unicode="&#xd3;" horiz-adv-x="1181" d="M178 299q0 138 45 408q22 126 43.5 220t47.5 170.5t52 129t63.5 91.5t74.5 61.5t92 36t109.5 18t132.5 4.5q74 0 125.5 -4.5t100.5 -17.5t80 -36.5t54.5 -61t34 -92t10.5 -128.5q0 -149 -43 -391q-28 -162 -57 -275.5t-68.5 -197t-81.5 -132.5t-106 -78.5t-133 -39 t-170 -9.5q-92 0 -151 6.5t-112 25.5t-82 55t-45 94t-16 143zM373 334q0 -47 5.5 -81.5t19.5 -58t31 -37.5t46 -21.5t59 -10t76 -2.5q64 0 106 7t82 29.5t66 60t52 105.5t46.5 158t43.5 224q41 249 41 360q0 74 -13 119t-45 67.5t-71 29.5t-105 7q-64 0 -106 -7t-82 -30 t-66 -60.5t-52.5 -105t-47 -157.5t-43.5 -223q-43 -258 -43 -373zM707 1489l137 209h205l-177 -209h-165z" />
<glyph unicode="&#xd4;" horiz-adv-x="1181" d="M178 299q0 138 45 408q22 126 43.5 220t47.5 170.5t52 129t63.5 91.5t74.5 61.5t92 36t109.5 18t132.5 4.5q74 0 125.5 -4.5t100.5 -17.5t80 -36.5t54.5 -61t34 -92t10.5 -128.5q0 -149 -43 -391q-28 -162 -57 -275.5t-68.5 -197t-81.5 -132.5t-106 -78.5t-133 -39 t-170 -9.5q-92 0 -151 6.5t-112 25.5t-82 55t-45 94t-16 143zM373 334q0 -47 5.5 -81.5t19.5 -58t31 -37.5t46 -21.5t59 -10t76 -2.5q64 0 106 7t82 29.5t66 60t52 105.5t46.5 158t43.5 224q41 249 41 360q0 74 -13 119t-45 67.5t-71 29.5t-105 7q-64 0 -106 -7t-82 -30 t-66 -60.5t-52.5 -105t-47 -157.5t-43.5 -223q-43 -258 -43 -373zM614 1489l160 209h209l90 -209h-123l-88 113l-125 -113h-123z" />
<glyph unicode="&#xd5;" horiz-adv-x="1181" d="M178 299q0 138 45 408q22 126 43.5 220t47.5 170.5t52 129t63.5 91.5t74.5 61.5t92 36t109.5 18t132.5 4.5q74 0 125.5 -4.5t100.5 -17.5t80 -36.5t54.5 -61t34 -92t10.5 -128.5q0 -149 -43 -391q-28 -162 -57 -275.5t-68.5 -197t-81.5 -132.5t-106 -78.5t-133 -39 t-170 -9.5q-92 0 -151 6.5t-112 25.5t-82 55t-45 94t-16 143zM373 334q0 -47 5.5 -81.5t19.5 -58t31 -37.5t46 -21.5t59 -10t76 -2.5q64 0 106 7t82 29.5t66 60t52 105.5t46.5 158t43.5 224q41 249 41 360q0 74 -13 119t-45 67.5t-71 29.5t-105 7q-64 0 -106 -7t-82 -30 t-66 -60.5t-52.5 -105t-47 -157.5t-43.5 -223q-43 -258 -43 -373zM573 1569q22 41 76.5 84t122.5 43q51 0 131 -41q64 -33 90 -33q46 0 105 82l55 -64q-16 -38 -72 -84.5t-125 -46.5q-52 0 -132 41q-5 3 -7 4q-6 3 -17.5 9.5t-18 9.5t-15.5 7t-16.5 5.5t-14.5 1.5 q-43 0 -106 -80z" />
<glyph unicode="&#xd6;" horiz-adv-x="1181" d="M178 299q0 138 45 408q22 126 43.5 220t47.5 170.5t52 129t63.5 91.5t74.5 61.5t92 36t109.5 18t132.5 4.5q74 0 125.5 -4.5t100.5 -17.5t80 -36.5t54.5 -61t34 -92t10.5 -128.5q0 -149 -43 -391q-28 -162 -57 -275.5t-68.5 -197t-81.5 -132.5t-106 -78.5t-133 -39 t-170 -9.5q-92 0 -151 6.5t-112 25.5t-82 55t-45 94t-16 143zM373 334q0 -47 5.5 -81.5t19.5 -58t31 -37.5t46 -21.5t59 -10t76 -2.5q64 0 106 7t82 29.5t66 60t52 105.5t46.5 158t43.5 224q41 249 41 360q0 74 -13 119t-45 67.5t-71 29.5t-105 7q-64 0 -106 -7t-82 -30 t-66 -60.5t-52.5 -105t-47 -157.5t-43.5 -223q-43 -258 -43 -373zM625 1497l32 191h156l-33 -191h-155zM911 1497l33 191h156l-31 -191h-158z" />
<glyph unicode="&#xd7;" horiz-adv-x="1044" d="M229 446l320 275h-2l-223 274l114 97h6q102 -121 218 -269l317 273l39 -49l41 -50l-316 -276h2q36 -45 110 -135t110 -135l-117 -105l-223 277q-52 -45 -157 -138.5t-157 -138.5q-1 2 -23 29t-32 41z" />
<glyph unicode="&#xd8;" horiz-adv-x="1181" d="M178 299q0 138 45 408q22 126 43.5 220t47.5 170.5t52 129t63.5 91.5t74.5 61.5t92 36t109.5 18t132.5 4.5q73 0 124.5 -4.5t100 -17.5t79.5 -36.5t54.5 -61t34 -91.5t10.5 -127q0 -132 -43 -393q-28 -163 -57 -276t-68 -196.5t-81 -132.5t-105.5 -78.5t-132.5 -39 t-170 -9.5q-92 0 -151 6.5t-112 25.5t-82 55t-45 94t-16 143zM377 385l651 809q-24 56 -74 76t-141 20q-49 0 -82.5 -3t-68 -13t-57 -27t-46.5 -48t-40.5 -72t-35 -103t-34 -138t-33.5 -179q-36 -220 -39 -322zM389 209q23 -52 73.5 -69t147.5 -17q47 0 79 2.5t66 12 t56.5 25.5t46 44t40.5 66.5t35 94.5t33 126.5t31 164.5q46 246 43 361q-55 -70 -167 -209t-168 -209q-50 -64 -158 -196.5t-158 -196.5z" />
<glyph unicode="&#xd9;" horiz-adv-x="1159" d="M190 260q0 92 25 236q13 79 72 414.5t86 502.5h186l-158 -921q-16 -98 -16 -160q0 -117 55 -163t185 -46q120 0 243 18h-4q36 212 109.5 636t109.5 636h187l-240 -1390q-86 -19 -214.5 -33.5t-203.5 -14.5q-120 0 -195.5 12t-129 44t-75.5 87t-22 142zM717 1698h205 l63 -209h-162z" />
<glyph unicode="&#xda;" horiz-adv-x="1159" d="M190 260q0 92 25 236q13 79 72 414.5t86 502.5h186l-158 -921q-16 -98 -16 -160q0 -117 55 -163t185 -46q120 0 243 18h-4q36 212 109.5 636t109.5 636h187l-240 -1390q-86 -19 -214.5 -33.5t-203.5 -14.5q-120 0 -195.5 12t-129 44t-75.5 87t-22 142zM680 1489l137 209 h205l-176 -209h-166z" />
<glyph unicode="&#xdb;" horiz-adv-x="1159" d="M190 260q0 92 25 236q13 79 72 414.5t86 502.5h186l-158 -921q-16 -98 -16 -160q0 -117 55 -163t185 -46q120 0 243 18h-4q36 212 109.5 636t109.5 636h187l-240 -1390q-86 -19 -214.5 -33.5t-203.5 -14.5q-120 0 -195.5 12t-129 44t-75.5 87t-22 142zM602 1489l160 209 h209l90 -209h-123l-88 113l-125 -113h-123z" />
<glyph unicode="&#xdc;" horiz-adv-x="1159" d="M190 260q0 92 25 236q13 79 72 414.5t86 502.5h186l-158 -921q-16 -98 -16 -160q0 -117 55 -163t185 -46q120 0 243 18h-4q36 212 109.5 636t109.5 636h187l-240 -1390q-86 -19 -214.5 -33.5t-203.5 -14.5q-120 0 -195.5 12t-129 44t-75.5 87t-22 142zM614 1497l33 191 h156l-33 -191h-156zM901 1497l33 191h156l-31 -191h-158z" />
<glyph unicode="&#xdd;" horiz-adv-x="1015" d="M256 1413h197l182 -690l420 690h190l-553 -883l-90 -530h-190l90 530zM608 1489l137 209h205l-176 -209h-166z" />
<glyph unicode="&#xde;" horiz-adv-x="1067" d="M133 0l242 1413h190l-37 -225h250q199 0 283 -62.5t84 -212.5q0 -62 -19 -174q-45 -242 -166 -344t-342 -102h-245l-49 -293h-191zM397 436h254q140 0 201 68t90 235q14 93 14 131q0 101 -53.5 134.5t-189.5 33.5h-211z" />
<glyph unicode="&#xdf;" horiz-adv-x="1075" d="M127 0l184 1077q14 79 31 134.5t45 97.5t61.5 67t86 40t112.5 20.5t146 5.5q208 0 291 -44t83 -171q0 -51 -12 -121q-20 -112 -53.5 -173t-82.5 -88t-140 -44h4l-4 -33h-5q112 -21 160.5 -67t48.5 -150q0 -67 -14 -141q-42 -230 -163 -320t-371 -90h-113l22 133 q88 0 136 19q155 6 215.5 60t85.5 204q12 65 12 108q0 48 -14 81t-38.5 53t-71 30t-97 13.5t-131.5 3.5l22 139q158 0 237 20t114 66.5t51 144.5q10 51 10 103q0 81 -46 105t-169 24q-51 0 -85.5 -3.5t-61.5 -15t-43.5 -27t-29.5 -45t-21 -62t-17 -85.5l-185 -1069h-190z " />
<glyph unicode="&#xe0;" horiz-adv-x="993" d="M119 209q0 48 14 137q13 77 31 131.5t48.5 94t67 63t94 37.5t121 19t156.5 5h74q13 0 38.5 -1t41.5 -1l20 117q6 37 6 66q0 72 -42 99.5t-144 27.5q-86 0 -184.5 -18.5t-157.5 -37.5l-14 144q56 22 171 40.5t230 18.5q172 0 252 -50.5t80 -178.5q0 -40 -10 -105 l-142 -817h-174l11 98q-40 -50 -123.5 -86.5t-194.5 -36.5q-137 0 -203.5 52t-66.5 182zM305 254q0 -79 38.5 -108t127.5 -29q81 0 135.5 21t116.5 67h-2l61 362h-129q-68 0 -108.5 -2t-79.5 -10t-60 -21.5t-40 -39.5t-29.5 -60t-20.5 -86q-10 -62 -10 -94zM553 1413h205 l63 -209h-162z" />
<glyph unicode="&#xe1;" horiz-adv-x="993" d="M119 209q0 48 14 137q13 77 31 131.5t48.5 94t67 63t94 37.5t121 19t156.5 5h74q13 0 38.5 -1t41.5 -1l20 117q6 37 6 66q0 72 -42 99.5t-144 27.5q-86 0 -184.5 -18.5t-157.5 -37.5l-14 144q56 22 171 40.5t230 18.5q172 0 252 -50.5t80 -178.5q0 -40 -10 -105 l-142 -817h-174l11 98q-40 -50 -123.5 -86.5t-194.5 -36.5q-137 0 -203.5 52t-66.5 182zM305 254q0 -79 38.5 -108t127.5 -29q81 0 135.5 21t116.5 67h-2l61 362h-129q-68 0 -108.5 -2t-79.5 -10t-60 -21.5t-40 -39.5t-29.5 -60t-20.5 -86q-10 -62 -10 -94zM547 1204 l137 209h205l-176 -209h-166z" />
<glyph unicode="&#xe2;" horiz-adv-x="993" d="M119 209q0 48 14 137q13 77 31 131.5t48.5 94t67 63t94 37.5t121 19t156.5 5h74q13 0 38.5 -1t41.5 -1l20 117q6 37 6 66q0 72 -42 99.5t-144 27.5q-86 0 -184.5 -18.5t-157.5 -37.5l-14 144q56 22 171 40.5t230 18.5q172 0 252 -50.5t80 -178.5q0 -40 -10 -105 l-142 -817h-174l11 98q-40 -50 -123.5 -86.5t-194.5 -36.5q-137 0 -203.5 52t-66.5 182zM305 254q0 -79 38.5 -108t127.5 -29q81 0 135.5 21t116.5 67h-2l61 362h-129q-68 0 -108.5 -2t-79.5 -10t-60 -21.5t-40 -39.5t-29.5 -60t-20.5 -86q-10 -62 -10 -94zM471 1204 l160 209h209l90 -209h-123l-88 113l-125 -113h-123z" />
<glyph unicode="&#xe3;" horiz-adv-x="993" d="M119 209q0 48 14 137q13 77 31 131.5t48.5 94t67 63t94 37.5t121 19t156.5 5h74q13 0 38.5 -1t41.5 -1l20 117q6 37 6 66q0 72 -42 99.5t-144 27.5q-86 0 -184.5 -18.5t-157.5 -37.5l-14 144q56 22 171 40.5t230 18.5q172 0 252 -50.5t80 -178.5q0 -40 -10 -105 l-142 -817h-174l11 98q-40 -50 -123.5 -86.5t-194.5 -36.5q-137 0 -203.5 52t-66.5 182zM305 254q0 -79 38.5 -108t127.5 -29q81 0 135.5 21t116.5 67h-2l61 362h-129q-68 0 -108.5 -2t-79.5 -10t-60 -21.5t-40 -39.5t-29.5 -60t-20.5 -86q-10 -62 -10 -94zM430 1284 q22 41 76.5 84t122.5 43q51 0 131 -41q64 -33 90 -33q45 0 104 82l56 -63q-16 -38 -72 -84.5t-125 -46.5q-52 0 -132 41q-5 3 -7 4q-6 3 -17.5 9.5t-18 9.5t-15.5 7t-16.5 5.5t-14.5 1.5q-44 0 -107 -80z" />
<glyph unicode="&#xe4;" horiz-adv-x="993" d="M119 209q0 48 14 137q13 77 31 131.5t48.5 94t67 63t94 37.5t121 19t156.5 5h74q13 0 38.5 -1t41.5 -1l20 117q6 37 6 66q0 72 -42 99.5t-144 27.5q-86 0 -184.5 -18.5t-157.5 -37.5l-14 144q56 22 171 40.5t230 18.5q172 0 252 -50.5t80 -178.5q0 -40 -10 -105 l-142 -817h-174l11 98q-40 -50 -123.5 -86.5t-194.5 -36.5q-137 0 -203.5 52t-66.5 182zM305 254q0 -79 38.5 -108t127.5 -29q81 0 135.5 21t116.5 67h-2l61 362h-129q-68 0 -108.5 -2t-79.5 -10t-60 -21.5t-40 -39.5t-29.5 -60t-20.5 -86q-10 -62 -10 -94zM481 1212l33 191 h156l-33 -191h-156zM768 1212l33 191h155l-30 -191h-158z" />
<glyph unicode="&#xe5;" horiz-adv-x="890" d="M86 209q0 48 14 137q13 77 31 131.5t48.5 94t67 63t94 37.5t121 19t156.5 5h74q13 0 38.5 -1t41.5 -1l21 117q6 37 6 66q0 72 -42.5 99.5t-144.5 27.5q-86 0 -184.5 -18.5t-157.5 -37.5l-14 144q56 22 171 40.5t230 18.5q172 0 252 -50.5t80 -178.5q0 -40 -10 -105 l-141 -817h-174l10 98q-40 -50 -123.5 -86.5t-194.5 -36.5q-137 0 -203.5 52t-66.5 182zM272 254q0 -79 38.5 -108t127.5 -29q81 0 135.5 21t116.5 67h-2l62 362h-129q-68 0 -108.5 -2t-79.5 -10t-60 -21.5t-40 -39.5t-29.5 -60t-20.5 -86q-11 -68 -11 -94zM451 1372 q18 83 86.5 126.5t162.5 43.5q99 0 153.5 -42t41.5 -128q-16 -88 -84.5 -130t-167.5 -42q-96 0 -150.5 43.5t-41.5 128.5zM557 1372q-8 -41 16.5 -60.5t85.5 -19.5q114 0 129 80q5 39 -19 59.5t-81 20.5q-63 0 -94 -19t-37 -61z" />
<glyph unicode="&#xe6;" horiz-adv-x="1570" d="M109 197q0 55 14 137q13 73 31 125t46.5 90.5t63.5 62t88.5 38t115 19.5t148.5 5q117 0 185 -2l26 141q7 40 7 61q0 74 -45 102t-150 28q-87 0 -187 -18.5t-159 -37.5q-9 103 -14 144q56 20 157.5 37t208.5 20q135 0 213 -23.5t109 -83.5q57 62 136.5 85.5t199.5 23.5 q88 0 146 -12t100 -43t60.5 -85t18.5 -137q0 -92 -29 -268l-12 -69h-635q-16 -80 4 -111q-4 -27 -4 -74q0 -117 55.5 -171t172.5 -54q83 0 173 15t138 34l-4 -153q-58 -19 -165 -33.5t-206 -14.5q-141 0 -221 34t-113 112q-167 -146 -397 -146q-69 0 -115 8.5t-85 31.5 t-57.5 68t-18.5 114zM295 238q0 -74 37 -98.5t127 -24.5q77 0 144 28t153 95h-2q-6 105 26 309h-133h-6q-85 0 -121 -2t-82.5 -11.5t-65.5 -32t-37.5 -61.5t-29.5 -102q-10 -51 -10 -100zM973 666h457q0 4 2 13t2 13q14 85 14 154q0 96 -39.5 129t-136.5 33q-129 0 -194 -71 t-101 -245q0 -4 -2 -13t-2 -13z" />
<glyph unicode="&#xe7;" horiz-adv-x="792" d="M154 272q0 116 30 289q25 143 58 243t75 168.5t101 107t130 55t169 16.5q130 0 229 -29l-41 -143q-25 7 -88.5 16t-101.5 9q-54 0 -92.5 -7t-73 -26t-59 -50t-47 -81.5t-40 -117.5t-34.5 -161q-27 -162 -27 -235q0 -122 53 -163.5t183 -41.5q83 0 194 24l-8 -145 q-128 -25 -250 -25q-99 0 -162.5 12t-110.5 45t-67 91t-20 149zM244 -324l45 84q81 -18 98 -18q82 0 90 57q5 28 -18.5 39.5t-91.5 11.5h-56l135 150h121l-69 -72q65 -7 95.5 -34.5t20.5 -88.5q-12 -58 -51.5 -94t-84 -47.5t-97.5 -11.5q-83 0 -137 24z" />
<glyph unicode="&#xe8;" horiz-adv-x="1001" d="M156 289q0 102 28 272q26 150 60 253.5t75.5 170t102 103t127.5 50t164 13.5q91 0 150.5 -12.5t102.5 -44.5t62 -88t19 -142q0 -105 -27 -258q-2 -16 -8 -47t-8 -47h-644q-18 -105 -18 -180q0 -125 55.5 -168t184.5 -43q81 0 176.5 16.5t150.5 34.5l-2 -149 q-58 -19 -167.5 -33.5t-211.5 -14.5q-101 0 -167.5 14t-114.5 49t-69 96.5t-21 154.5zM383 641h463q20 111 20 193q0 101 -40 135.5t-140 34.5q-94 0 -149.5 -31.5t-91.5 -108.5t-62 -223zM555 1413h205l63 -209h-161z" />
<glyph unicode="&#xe9;" horiz-adv-x="1001" d="M156 289q0 102 28 272q26 150 60 253.5t75.5 170t102 103t127.5 50t164 13.5q91 0 150.5 -12.5t102.5 -44.5t62 -88t19 -142q0 -105 -27 -258q-2 -16 -8 -47t-8 -47h-644q-18 -105 -18 -180q0 -125 55.5 -168t184.5 -43q81 0 176.5 16.5t150.5 34.5l-2 -149 q-58 -19 -167.5 -33.5t-211.5 -14.5q-101 0 -167.5 14t-114.5 49t-69 96.5t-21 154.5zM383 641h463q20 111 20 193q0 101 -40 135.5t-140 34.5q-94 0 -149.5 -31.5t-91.5 -108.5t-62 -223zM610 1204l138 209h204l-176 -209h-166z" />
<glyph unicode="&#xea;" horiz-adv-x="1001" d="M156 289q0 102 28 272q26 150 60 253.5t75.5 170t102 103t127.5 50t164 13.5q91 0 150.5 -12.5t102.5 -44.5t62 -88t19 -142q0 -105 -27 -258q-2 -16 -8 -47t-8 -47h-644q-18 -105 -18 -180q0 -125 55.5 -168t184.5 -43q81 0 176.5 16.5t150.5 34.5l-2 -149 q-58 -19 -167.5 -33.5t-211.5 -14.5q-101 0 -167.5 14t-114.5 49t-69 96.5t-21 154.5zM383 641h463q20 111 20 193q0 101 -40 135.5t-140 34.5q-94 0 -149.5 -31.5t-91.5 -108.5t-62 -223zM481 1204l160 209h209l90 -209h-123l-88 113l-125 -113h-123z" />
<glyph unicode="&#xeb;" horiz-adv-x="1001" d="M156 289q0 102 28 272q26 150 60 253.5t75.5 170t102 103t127.5 50t164 13.5q91 0 150.5 -12.5t102.5 -44.5t62 -88t19 -142q0 -105 -27 -258q-2 -16 -8 -47t-8 -47h-644q-18 -105 -18 -180q0 -125 55.5 -168t184.5 -43q81 0 176.5 16.5t150.5 34.5l-2 -149 q-58 -19 -167.5 -33.5t-211.5 -14.5q-101 0 -167.5 14t-114.5 49t-69 96.5t-21 154.5zM383 641h463q20 111 20 193q0 101 -40 135.5t-140 34.5q-94 0 -149.5 -31.5t-91.5 -108.5t-62 -223zM494 1212l32 191h156l-33 -191h-155zM780 1212l33 191h156l-31 -191h-158z" />
<glyph unicode="&#xec;" horiz-adv-x="438" d="M125 0l192 1126h187l-193 -1126h-186zM289 1413h205l63 -209h-162z" />
<glyph unicode="&#xed;" horiz-adv-x="438" d="M125 0l192 1126h187l-193 -1126h-186zM291 1204l137 209h205l-176 -209h-166z" />
<glyph unicode="&#xee;" horiz-adv-x="438" d="M125 0l192 1126h187l-193 -1126h-186zM197 1204l159 209h209l90 -209h-123l-88 113l-125 -113h-122z" />
<glyph unicode="&#xef;" horiz-adv-x="438" d="M125 0l192 1126h187l-193 -1126h-186zM207 1212l33 191h155l-33 -191h-155zM494 1212l32 191h156l-31 -191h-157z" />
<glyph unicode="&#xf0;" horiz-adv-x="1046" d="M152 258q0 99 34 305q21 121 43 204.5t53 152.5t68 110.5t91.5 70t121 39.5t158.5 11q75 0 127 -18q-29 65 -76 118l-201 -45l-12 105l135 30q-78 67 -119 95h230q30 -18 72 -56l184 43l8 -104l-115 -27h4q125 -160 125 -420q0 -128 -30 -309q-22 -124 -44 -209t-53 -154 t-68 -109.5t-92 -68t-121 -37.5t-159 -10q-203 0 -283.5 60t-80.5 223zM340 297q0 -105 45 -140.5t158 -35.5q54 0 92 6.5t70 27t53 50t41 83t35 118t32 163.5q33 193 33 271q0 101 -44 132.5t-161 31.5q-56 0 -92.5 -5t-69.5 -23t-53 -45.5t-40 -79.5t-34.5 -116.5 t-31.5 -165.5q-33 -196 -33 -272z" />
<glyph unicode="&#xf1;" horiz-adv-x="1054" d="M121 0l192 1126h181l-17 -96h2q157 121 348 121q52 0 92.5 -8.5t80.5 -31t62.5 -69.5t22.5 -116q0 -35 -10 -97l-141 -829h-186l137 797q6 34 6 69q0 142 -150 142q-131 0 -280 -99h2l-156 -909h-186zM463 1284q22 41 76.5 84t122.5 43q51 0 131 -41q64 -33 90 -33 q45 0 104 82l55 -63q-16 -38 -71.5 -84.5t-124.5 -46.5q-52 0 -132 41q-5 3 -7 4q-6 3 -17.5 9.5t-18 9.5t-15.5 7t-16.5 5.5t-14.5 1.5q-44 0 -107 -80z" />
<glyph unicode="&#xf2;" horiz-adv-x="1046" d="M152 258q0 99 34 305q21 121 43 204.5t53 152.5t68 110.5t91.5 70t121 39.5t158.5 11q203 0 283.5 -60.5t80.5 -224.5q0 -103 -32 -303q-22 -124 -44 -209t-53 -154t-68 -109.5t-92 -68t-121 -37.5t-159 -10q-203 0 -283.5 60t-80.5 223zM340 297q0 -105 45 -140.5 t158 -35.5q54 0 92 6.5t70 27t53 50t41 83t35 118t32 163.5q33 193 33 271q0 101 -44 132.5t-161 31.5q-56 0 -92.5 -5t-69.5 -23t-53 -45.5t-40 -79.5t-34.5 -116.5t-31.5 -165.5q-33 -196 -33 -272zM543 1413h205l63 -209h-162z" />
<glyph unicode="&#xf3;" horiz-adv-x="1046" d="M152 258q0 99 34 305q21 121 43 204.5t53 152.5t68 110.5t91.5 70t121 39.5t158.5 11q203 0 283.5 -60.5t80.5 -224.5q0 -103 -32 -303q-22 -124 -44 -209t-53 -154t-68 -109.5t-92 -68t-121 -37.5t-159 -10q-203 0 -283.5 60t-80.5 223zM340 297q0 -105 45 -140.5 t158 -35.5q54 0 92 6.5t70 27t53 50t41 83t35 118t32 163.5q33 193 33 271q0 101 -44 132.5t-161 31.5q-56 0 -92.5 -5t-69.5 -23t-53 -45.5t-40 -79.5t-34.5 -116.5t-31.5 -165.5q-33 -196 -33 -272zM629 1204l137 209h205l-176 -209h-166z" />
<glyph unicode="&#xf4;" horiz-adv-x="1046" d="M152 258q0 99 34 305q21 121 43 204.5t53 152.5t68 110.5t91.5 70t121 39.5t158.5 11q203 0 283.5 -60.5t80.5 -224.5q0 -103 -32 -303q-22 -124 -44 -209t-53 -154t-68 -109.5t-92 -68t-121 -37.5t-159 -10q-203 0 -283.5 60t-80.5 223zM340 297q0 -105 45 -140.5 t158 -35.5q54 0 92 6.5t70 27t53 50t41 83t35 118t32 163.5q33 193 33 271q0 101 -44 132.5t-161 31.5q-56 0 -92.5 -5t-69.5 -23t-53 -45.5t-40 -79.5t-34.5 -116.5t-31.5 -165.5q-33 -196 -33 -272zM498 1204l159 209h209l90 -209h-122l-89 113l-124 -113h-123z" />
<glyph unicode="&#xf5;" horiz-adv-x="1046" d="M152 258q0 99 34 305q21 121 43 204.5t53 152.5t68 110.5t91.5 70t121 39.5t158.5 11q203 0 283.5 -60.5t80.5 -224.5q0 -103 -32 -303q-22 -124 -44 -209t-53 -154t-68 -109.5t-92 -68t-121 -37.5t-159 -10q-203 0 -283.5 60t-80.5 223zM340 297q0 -105 45 -140.5 t158 -35.5q54 0 92 6.5t70 27t53 50t41 83t35 118t32 163.5q33 193 33 271q0 101 -44 132.5t-161 31.5q-56 0 -92.5 -5t-69.5 -23t-53 -45.5t-40 -79.5t-34.5 -116.5t-31.5 -165.5q-33 -196 -33 -272zM457 1284q22 41 76 84t122 43q51 0 131 -41q64 -33 91 -33q45 0 104 82 l55 -63q-16 -38 -71.5 -84.5t-124.5 -46.5q-52 0 -140 45q-6 3 -17.5 9.5t-18 9.5t-15.5 7t-16.5 5.5t-14.5 1.5q-43 0 -106 -80z" />
<glyph unicode="&#xf6;" horiz-adv-x="1046" d="M152 258q0 99 34 305q21 121 43 204.5t53 152.5t68 110.5t91.5 70t121 39.5t158.5 11q203 0 283.5 -60.5t80.5 -224.5q0 -103 -32 -303q-22 -124 -44 -209t-53 -154t-68 -109.5t-92 -68t-121 -37.5t-159 -10q-203 0 -283.5 60t-80.5 223zM340 297q0 -105 45 -140.5 t158 -35.5q54 0 92 6.5t70 27t53 50t41 83t35 118t32 163.5q33 193 33 271q0 101 -44 132.5t-161 31.5q-56 0 -92.5 -5t-69.5 -23t-53 -45.5t-40 -79.5t-34.5 -116.5t-31.5 -165.5q-33 -196 -33 -272zM508 1212l33 191h155l-32 -191h-156zM795 1212l32 191h156l-31 -191 h-157z" />
<glyph unicode="&#xf7;" horiz-adv-x="1003" d="M223 653l23 138h782l-24 -138h-781zM422 160l37 211h205l-37 -211h-205zM580 1073l34 213h205l-35 -213h-204z" />
<glyph unicode="&#xf8;" horiz-adv-x="1028" d="M141 260q0 91 35 303q21 120 43 204t53 153t68.5 110.5t92.5 70t121.5 39.5t158.5 11q203 0 283.5 -59.5t80.5 -223.5q0 -93 -35 -305q-22 -121 -44 -204.5t-53 -152.5t-68 -110.5t-91 -70t-120.5 -39.5t-157.5 -11q-204 0 -285.5 60.5t-81.5 224.5zM336 336l170 199 q51 58 171.5 199.5t184.5 213.5q-40 56 -176 56q-57 0 -93.5 -5t-69.5 -23t-53 -45t-39.5 -79.5t-34 -117t-31.5 -165.5q-27 -162 -29 -233zM354 186q33 -65 181 -65q42 0 73 3.5t59 14t47.5 25.5t38.5 43t32 60.5t26.5 85t25 110t25.5 139.5q23 135 23 203 q-87 -102 -265.5 -309t-265.5 -310z" />
<glyph unicode="&#xf9;" horiz-adv-x="1040" d="M154 197q0 49 8 98l143 831h184l-135 -798q-8 -41 -8 -82q0 -70 33 -99.5t106 -29.5q138 0 293 98h-2q26 152 79 456t79 455h184l-192 -1126h-178l16 94h-2q-56 -46 -151 -82.5t-189 -36.5q-46 0 -81.5 4.5t-72.5 18.5t-60.5 37.5t-38.5 64.5t-15 97zM608 1413h205 l64 -209h-162z" />
<glyph unicode="&#xfa;" horiz-adv-x="1040" d="M154 197q0 49 8 98l143 831h184l-135 -798q-8 -41 -8 -82q0 -70 33 -99.5t106 -29.5q138 0 293 98h-2q26 152 79 456t79 455h184l-192 -1126h-178l16 94h-2q-56 -46 -151 -82.5t-189 -36.5q-46 0 -81.5 4.5t-72.5 18.5t-60.5 37.5t-38.5 64.5t-15 97zM571 1204l138 209 h204l-176 -209h-166z" />
<glyph unicode="&#xfb;" horiz-adv-x="1040" d="M154 197q0 49 8 98l143 831h184l-135 -798q-8 -41 -8 -82q0 -70 33 -99.5t106 -29.5q138 0 293 98h-2q26 152 79 456t79 455h184l-192 -1126h-178l16 94h-2q-56 -46 -151 -82.5t-189 -36.5q-46 0 -81.5 4.5t-72.5 18.5t-60.5 37.5t-38.5 64.5t-15 97zM496 1204l159 209 h209l90 -209h-123l-88 113l-125 -113h-122z" />
<glyph unicode="&#xfc;" horiz-adv-x="1040" d="M154 197q0 49 8 98l143 831h184l-135 -798q-8 -41 -8 -82q0 -70 33 -99.5t106 -29.5q138 0 293 98h-2q26 152 79 456t79 455h184l-192 -1126h-178l16 94h-2q-56 -46 -151 -82.5t-189 -36.5q-46 0 -81.5 4.5t-72.5 18.5t-60.5 37.5t-38.5 64.5t-15 97zM504 1212l33 191 h155l-33 -191h-155zM791 1212l32 191h156l-31 -191h-157z" />
<glyph unicode="&#xfd;" horiz-adv-x="966" d="M211 1126h190l109 -970l440 970h193l-670 -1413h-188l143 287h-74zM549 1204l137 209h205l-176 -209h-166z" />
<glyph unicode="&#xfe;" horiz-adv-x="1064" d="M74 -287l293 1700l192 25l-63 -363h4q90 72 309 72q78 0 130.5 -12.5t91.5 -44t57 -87.5t18 -141q0 -105 -31 -280q-61 -321 -170.5 -464t-310.5 -143q-100 0 -170.5 25.5t-99.5 65.5l-62 -353h-188zM346 190q25 -28 87 -48.5t136 -20.5q92 0 149.5 39.5t98 136.5 t72.5 274q29 168 29 250q0 59 -11.5 96t-38.5 56.5t-61.5 26t-91.5 6.5q-132 0 -240 -43h2z" />
<glyph unicode="&#xff;" horiz-adv-x="966" d="M211 1126h190l109 -970l440 970h193l-670 -1413h-188l143 287h-74zM469 1212l33 191h155l-32 -191h-156zM756 1212l32 191h156l-31 -191h-157z" />
<glyph unicode="&#x152;" horiz-adv-x="1654" d="M182 346q0 139 41 373q27 155 55 262.5t66 186.5t80 125.5t105.5 74t132 36.5t169.5 9h1010l-26 -149h-545l-80 -469h522l-26 -146h-523l-86 -502h549l-24 -147h-990q-120 0 -194.5 13t-131 50.5t-80.5 106t-24 176.5zM377 365q0 -73 14 -117t49.5 -66t78.5 -28.5 t120 -6.5h248l192 1117h-262q-70 0 -115.5 -6.5t-86.5 -29t-66 -56t-49.5 -96.5t-41.5 -142t-38 -201q-43 -243 -43 -368z" />
<glyph unicode="&#x153;" horiz-adv-x="1673" d="M152 258q0 99 34 305q21 121 43 204.5t53 152.5t68 110.5t91.5 70t121 39.5t158.5 11q136 0 211.5 -34.5t103.5 -110.5q58 83 138.5 114t207.5 31q182 0 259 -60t77 -227q0 -111 -26 -258q-2 -16 -8.5 -47t-8.5 -47h-641q-18 -108 -18 -182q0 -65 14 -106.5t46 -64 t72.5 -30.5t104.5 -8q81 0 177 16.5t151 34.5l-4 -149q-56 -19 -165 -33.5t-212 -14.5q-134 0 -210 32.5t-107 113.5q-53 -78 -140 -112t-227 -34q-203 0 -283.5 60t-80.5 223zM340 295q0 -104 44.5 -139t158.5 -35q54 0 92 6.5t70 27t53 50t41 83t35 118t32 163.5 q33 193 33 269q0 101 -44.5 133.5t-160.5 32.5q-67 0 -109 -10.5t-76 -35t-57 -77t-41 -124t-38 -188.5q-33 -196 -33 -274zM1055 641h461l8 51q14 83 14 146q0 97 -41.5 131.5t-138.5 34.5q-94 0 -150 -31.5t-92 -109t-61 -222.5z" />
<glyph unicode="&#x178;" horiz-adv-x="1015" d="M256 1413h197l182 -690l420 690h190l-553 -883l-90 -530h-190l90 530zM543 1497l32 191h156l-33 -191h-155zM829 1497l33 191h156l-31 -191h-158z" />
<glyph unicode="&#x2c6;" horiz-adv-x="593" d="M272 1204l160 209h209l90 -209h-123l-88 113l-125 -113h-123z" />
<glyph unicode="&#x2dc;" horiz-adv-x="673" d="M266 1284q22 41 76.5 84t122.5 43q51 0 131 -41q64 -33 90 -33q46 0 105 82l55 -63q-16 -38 -72 -84.5t-125 -46.5q-52 0 -132 41q-5 3 -7 4q-6 3 -17.5 9.5t-18 9.5t-15.5 7t-16.5 5.5t-14.5 1.5q-43 0 -106 -80z" />
<glyph unicode="&#x2000;" horiz-adv-x="852" />
<glyph unicode="&#x2001;" horiz-adv-x="1704" />
<glyph unicode="&#x2002;" horiz-adv-x="852" />
<glyph unicode="&#x2003;" horiz-adv-x="1704" />
<glyph unicode="&#x2004;" horiz-adv-x="568" />
<glyph unicode="&#x2005;" horiz-adv-x="426" />
<glyph unicode="&#x2006;" horiz-adv-x="284" />
<glyph unicode="&#x2007;" horiz-adv-x="284" />
<glyph unicode="&#x2008;" horiz-adv-x="213" />
<glyph unicode="&#x2009;" horiz-adv-x="340" />
<glyph unicode="&#x200a;" horiz-adv-x="94" />
<glyph unicode="&#x2010;" horiz-adv-x="466" d="M121 528l24 144h408l-25 -144h-407z" />
<glyph unicode="&#x2011;" horiz-adv-x="466" d="M121 528l24 144h408l-25 -144h-407z" />
<glyph unicode="&#x2012;" horiz-adv-x="466" d="M121 528l24 144h408l-25 -144h-407z" />
<glyph unicode="&#x2013;" horiz-adv-x="1003" d="M86 524l25 144h1011l-24 -144h-1012z" />
<glyph unicode="&#x2014;" horiz-adv-x="2007" d="M86 524l25 144h2015l-25 -144h-2015z" />
<glyph unicode="&#x2018;" horiz-adv-x="301" d="M221 983l35 205l141 225h95q-43 -89 -115 -225h78l-37 -205h-197z" />
<glyph unicode="&#x2019;" horiz-adv-x="301" d="M221 983l115 225h-76l35 205h197l-35 -205l-144 -225h-92z" />
<glyph unicode="&#x201a;" horiz-adv-x="301" d="M12 -225l115 225h-76l35 203h197l-33 -203l-146 -225h-92z" />
<glyph unicode="&#x201c;" horiz-adv-x="587" d="M221 983l35 205l141 225h95q-43 -89 -115 -225h78l-37 -205h-197zM506 983l35 205l141 225h94q-56 -114 -114 -225h77l-37 -205h-196z" />
<glyph unicode="&#x201d;" horiz-adv-x="587" d="M221 983l115 225h-76l35 205h197l-35 -205l-144 -225h-92zM506 983l115 225h-76l35 205h196l-35 -205l-143 -225h-92z" />
<glyph unicode="&#x201e;" horiz-adv-x="587" d="M12 -225l115 225h-76l35 203h197l-33 -203l-146 -225h-92zM297 -225l115 225h-76l35 203h196l-32 -203l-146 -225h-92z" />
<glyph unicode="&#x2022;" horiz-adv-x="958" d="M180 623q0 35 6 75q31 173 172.5 294.5t311.5 121.5q154 0 252 -97t98 -245q0 -36 -6 -74q-31 -173 -173.5 -296t-312.5 -123q-154 0 -251 97.5t-97 246.5z" />
<glyph unicode="&#x2026;" horiz-adv-x="995" d="M61 0l37 211h205l-37 -211h-205zM393 0l37 211h207l-37 -211h-207zM727 0l35 211h205l-35 -211h-205z" />
<glyph unicode="&#x202f;" horiz-adv-x="340" />
<glyph unicode="&#x2039;" horiz-adv-x="450" d="M143 565l299 463h156l-279 -463l119 -461h-157z" />
<glyph unicode="&#x203a;" horiz-adv-x="450" d="M43 104l281 461l-121 463h155l142 -463l-301 -461h-156z" />
<glyph unicode="&#x2044;" horiz-adv-x="217" d="M-338 0l987 1413h150l-989 -1413h-148z" />
<glyph unicode="&#x205f;" horiz-adv-x="426" />
<glyph unicode="&#x2070;" d="M211 758q0 80 25 221q32 183 77.5 278t117 132.5t196.5 37.5q142 0 202 -46.5t60 -176.5q0 -84 -25 -225q-24 -138 -53 -221.5t-76.5 -132t-107 -65.5t-154.5 -17q-143 0 -202.5 43.5t-59.5 171.5zM373 776q0 -73 26.5 -92.5t96.5 -19.5q59 0 93 24t60 90t51 199 q23 148 23 207q0 76 -26 100.5t-91 24.5q-64 0 -97.5 -22t-59.5 -91.5t-52 -218.5q-24 -135 -24 -201z" />
<glyph unicode="&#x2074;" d="M182 745l23 125l491 543h168l-94 -549h90l-18 -119h-90q-5 -31 -17.5 -94t-17.5 -94h-160l35 188h-410zM348 864h264l62 361z" />
<glyph unicode="&#x2075;" d="M170 567l47 123q119 -26 219 -26q92 0 138.5 36t66.5 131q12 83 -17.5 114.5t-103.5 31.5q-68 0 -137 -19l-104 35l127 420h460l-20 -125h-330l-59 -203q47 15 112 15q125 0 186.5 -40.5t61.5 -141.5q0 -22 -8 -80q-30 -163 -122.5 -229t-268.5 -66q-140 0 -248 24z" />
<glyph unicode="&#x2076;" d="M217 762q0 58 21 180q45 263 147 371t289 108h22q127 -3 191 -24l-35 -119q-113 25 -201 25q-86 0 -140 -46t-87 -170q90 33 186 33q120 0 176 -40t56 -138q0 -32 -8 -90q-33 -169 -120 -241t-237 -72q-138 0 -199 49.5t-61 173.5zM375 772q0 -68 28 -91.5t101 -23.5 q37 0 60.5 6t44.5 25t35 56t24 98q8 41 8 76q0 52 -24.5 69t-86.5 17q-70 0 -166 -27h2l-6 -35q-20 -120 -20 -170z" />
<glyph unicode="&#x2077;" d="M240 557l501 731h-465l23 125h631l-19 -104l-489 -752h-182z" />
<glyph unicode="&#x2078;" d="M199 715q0 25 6 59q17 86 70.5 139.5t144.5 85.5q-145 70 -121 209q21 113 102.5 164t223.5 51q151 0 209.5 -52t39.5 -157q-23 -132 -186 -202q163 -64 137 -226q-26 -137 -117 -192t-239 -55q-130 0 -200 38t-70 138zM375 793q-14 -81 14 -107.5t105 -26.5 q75 0 114.5 26t50.5 99q10 59 -25.5 95.5t-117.5 66.5q-62 -28 -96.5 -62t-44.5 -91zM455 1206q-7 -45 30.5 -85.5t98.5 -63.5q110 56 123 139q11 66 -13.5 87.5t-93.5 21.5q-72 0 -104 -21t-41 -78z" />
<glyph unicode="&#x2079;" d="M201 563l37 119q102 -25 198 -25q91 0 147 58t89 192q-97 -33 -193 -33q-118 0 -173.5 40t-55.5 135q0 27 8 81q30 159 112.5 226t235.5 67q142 0 203 -49.5t61 -175.5q0 -76 -18 -178q-49 -267 -149 -374t-287 -107q-126 0 -215 24zM416 1079q0 -50 26 -69t90 -19 q86 0 162 27h-2q21 129 21 170q0 68 -28 91.5t-101 23.5q-75 0 -109.5 -31t-52.5 -129q-6 -37 -6 -64z" />
<glyph unicode="&#x2080;" d="M115 199q0 86 24 221q32 183 77.5 278t117 132.5t196.5 37.5q142 0 202.5 -46.5t60.5 -176.5q0 -84 -25 -225q-24 -138 -53 -221.5t-76.5 -132t-107 -65.5t-154.5 -17q-143 0 -202.5 43.5t-59.5 171.5zM276 217q0 -73 26.5 -93t96.5 -20q59 0 93.5 24.5t60.5 91t51 198.5 q23 148 23 207q0 76 -26 100.5t-91 24.5q-64 0 -97.5 -22t-59.5 -91.5t-52 -218.5q-25 -141 -25 -201z" />
<glyph unicode="&#x2081;" d="M133 -2l21 125h186l98 563q-81 -47 -102 -59l-84 -47l-47 98l280 176h146l-127 -731h160l-21 -125h-510z" />
<glyph unicode="&#x2082;" d="M82 -2l20 111l330 303q83 76 119 121t43 92q10 57 -22 87.5t-97 30.5q-57 0 -132 -16t-110 -31l-14 125q118 47 297 47q140 0 204.5 -62t47.5 -173q-21 -112 -211 -287l-244 -221h377l-22 -127h-586z" />
<glyph unicode="&#x2083;" d="M72 18l51 127q110 -36 225 -36q82 0 129.5 35.5t61.5 119.5q13 81 -21 116.5t-115 35.5q-43 0 -79 -8l-23 84l242 237h-336l22 125h535l-16 -106l-224 -218q92 -6 143.5 -52t51.5 -134q0 -30 -6 -68q-24 -145 -125.5 -218.5t-263.5 -73.5q-127 0 -252 34z" />
<glyph unicode="&#x2084;" d="M86 186l23 125l491 543h168l-94 -549h90l-19 -119h-90q-5 -30 -17 -94t-17 -94h-160l35 188h-410zM252 305h264l62 361z" />
<glyph unicode="&#x2085;" d="M74 8l47 123q124 -27 219 -27q92 0 138.5 36t66.5 132q12 83 -17.5 114.5t-103.5 31.5q-68 0 -137 -19l-105 35l127 420h461l-20 -125h-330l-60 -203q47 15 113 15q125 0 186.5 -41t61.5 -142q0 -21 -8 -79q-30 -163 -122.5 -229t-268.5 -66q-140 0 -248 24z" />
<glyph unicode="&#x2086;" d="M121 203q0 63 20 180q45 263 147.5 371t289.5 108h22q127 -3 191 -24l-35 -119q-108 24 -201 24q-86 0 -140 -46t-87 -169q90 33 186 33q120 0 175.5 -40t55.5 -138q0 -32 -8 -90q-33 -169 -119.5 -241t-236.5 -72q-138 0 -199 49.5t-61 173.5zM279 213q0 -68 28 -91.5 t101 -23.5q50 0 77.5 11.5t50 52.5t35.5 121q9 46 9 75q0 52 -24.5 69t-86.5 17q-73 0 -166 -26h2l-6 -35q-20 -120 -20 -170z" />
<glyph unicode="&#x2087;" d="M143 -2l502 731h-465l23 125h631l-19 -104l-489 -752h-183z" />
<glyph unicode="&#x2088;" d="M102 156q0 19 7 59q17 86 70.5 139.5t144.5 85.5q-145 70 -121 209q21 113 102 164t223 51q151 0 210 -52t40 -157q-23 -132 -186 -202q163 -64 137 -226q-26 -137 -117 -192t-239 -55q-63 0 -109 7.5t-84.5 26.5t-58 54.5t-19.5 87.5zM279 233q-14 -81 13.5 -107 t104.5 -26q75 0 115 26t51 99q10 59 -25.5 95.5t-117.5 66.5q-62 -28 -96.5 -62.5t-44.5 -91.5zM358 647q-7 -45 30.5 -85.5t98.5 -63.5q110 56 123 139q11 66 -13 87t-93 21q-73 0 -105 -20.5t-41 -77.5z" />
<glyph unicode="&#x2089;" d="M104 4l37 119q102 -25 199 -25q91 0 146.5 57.5t88.5 192.5q-97 -33 -192 -33q-118 0 -173.5 39.5t-55.5 134.5q0 28 8 82q30 159 112.5 226t235.5 67q142 0 203 -49.5t61 -175.5q0 -76 -18 -178q-49 -267 -149.5 -374t-287.5 -107q-126 0 -215 24zM319 520 q0 -50 26.5 -69t90.5 -19q86 0 162 27h-2q20 123 20 170q0 68 -28 91t-101 23q-75 0 -109 -30.5t-52 -128.5q-7 -44 -7 -64z" />
<glyph unicode="&#x20ac;" horiz-adv-x="1032" d="M137 481l21 127h149l19 101q6 49 18 96h-151l22 129h156q32 129 72.5 218.5t87.5 145.5t112.5 87t134.5 42t166 11q66 0 150 -8.5t125 -18.5l-45 -151q-22 7 -103.5 15.5t-134.5 8.5q-54 0 -90.5 -4t-74.5 -16.5t-64.5 -36t-53 -62.5t-48.5 -95.5t-42 -135.5h531 l-39 -129h-516q-12 -49 -21 -105q-2 -15 -8 -45.5t-8 -46.5h483q-21 -55 -39 -127h-463q-10 -95 -10 -149q0 -42 5.5 -73.5t14 -53.5t26 -36.5t34.5 -23t47.5 -12.5t56 -5t68.5 -1q52 0 143 9t115 14l-12 -148q-37 -7 -140.5 -17t-168.5 -10q-61 0 -104.5 2.5t-87 10.5 t-72 22t-53.5 37t-39 56t-22 78t-8 104q0 85 15 196h-154z" />
<glyph unicode="&#x2122;" horiz-adv-x="1064" d="M240 1319l14 94h381l-17 -94h-129q-11 -69 -38 -225t-39 -224h-123l78 449h-127zM600 870l94 543h166l41 -383q24 59 64 144q95 217 104 239h170l-94 -543h-119l61 361l-163 -361h-103l-41 355l-63 -355h-117z" />
<glyph unicode="&#x2153;" horiz-adv-x="1918" d="M229 557l21 125h186l99 563q-99 -56 -103 -59l-84 -47l-47 98l281 176h145l-127 -731h160l-21 -125h-510zM502 0l987 1413h149l-989 -1413h-147zM1182 18l51 127q110 -36 225 -36q82 0 129.5 35.5t61.5 119.5q13 81 -21 116.5t-115 35.5q-43 0 -79 -8l-23 84l242 237 h-336l22 125h535l-16 -106l-224 -218q92 -6 143.5 -52t51.5 -134q0 -30 -6 -68q-24 -145 -125.5 -218.5t-263.5 -73.5q-127 0 -252 34z" />
<glyph unicode="&#x2154;" horiz-adv-x="1918" d="M178 557l21 111l329 303q83 76 119 121t43 92q10 57 -22.5 88t-96.5 31q-56 0 -130.5 -16t-110.5 -32l-15 125q118 47 297 47q140 0 204.5 -62t47.5 -173q-21 -112 -211 -287l-243 -221h376l-22 -127h-586zM502 0l987 1413h149l-989 -1413h-147zM1182 18l51 127 q110 -36 225 -36q82 0 129.5 35.5t61.5 119.5q13 81 -21 116.5t-115 35.5q-43 0 -79 -8l-23 84l242 237h-336l22 125h535l-16 -106l-224 -218q92 -6 143.5 -52t51.5 -134q0 -30 -6 -68q-24 -145 -125.5 -218.5t-263.5 -73.5q-127 0 -252 34z" />
<glyph unicode="&#x215b;" horiz-adv-x="1918" d="M229 557l21 125h186l99 563q-99 -56 -103 -59l-84 -47l-47 98l281 176h145l-127 -731h160l-21 -125h-510zM502 0l987 1413h149l-989 -1413h-147zM1212 156q0 19 7 59q17 86 70.5 139.5t144.5 85.5q-145 70 -121 209q21 113 102 164t223 51q151 0 210 -52t40 -157 q-23 -132 -186 -202q163 -64 137 -226q-26 -137 -117 -192t-239 -55q-63 0 -109 7.5t-84.5 26.5t-58 54.5t-19.5 87.5zM1389 233q-14 -81 13.5 -107t104.5 -26q75 0 115 26t51 99q10 59 -25.5 95.5t-117.5 66.5q-62 -28 -96.5 -62.5t-44.5 -91.5zM1468 647 q-7 -45 30.5 -85.5t98.5 -63.5q110 56 123 139q11 66 -13 87t-93 21q-73 0 -105 -20.5t-41 -77.5z" />
<glyph unicode="&#x215c;" horiz-adv-x="1918" d="M168 578l51 127q113 -37 225 -37q82 0 129.5 35.5t61.5 119.5q13 81 -21 116.5t-114 35.5q-44 0 -80 -8l-23 84l242 237h-336l23 125h534l-16 -106l-223 -217q91 -6 142.5 -52.5t51.5 -134.5q0 -30 -6 -67q-24 -145 -125.5 -219t-263.5 -74q-124 0 -252 35zM502 0 l987 1413h149l-989 -1413h-147zM1212 156q0 19 7 59q17 86 70.5 139.5t144.5 85.5q-145 70 -121 209q21 113 102 164t223 51q151 0 210 -52t40 -157q-23 -132 -186 -202q163 -64 137 -226q-26 -137 -117 -192t-239 -55q-63 0 -109 7.5t-84.5 26.5t-58 54.5t-19.5 87.5z M1389 233q-14 -81 13.5 -107t104.5 -26q75 0 115 26t51 99q10 59 -25.5 95.5t-117.5 66.5q-62 -28 -96.5 -62.5t-44.5 -91.5zM1468 647q-7 -45 30.5 -85.5t98.5 -63.5q110 56 123 139q11 66 -13 87t-93 21q-73 0 -105 -20.5t-41 -77.5z" />
<glyph unicode="&#x215d;" horiz-adv-x="1918" d="M170 567l47 123q119 -26 219 -26q92 0 138.5 36t66.5 131q12 83 -17.5 114.5t-103.5 31.5q-68 0 -137 -19l-104 35l127 420h460l-20 -125h-330l-59 -203q47 15 112 15q125 0 186.5 -40.5t61.5 -141.5q0 -22 -8 -80q-30 -163 -122.5 -229t-268.5 -66q-140 0 -248 24z M502 0l987 1413h149l-989 -1413h-147zM1212 156q0 19 7 59q17 86 70.5 139.5t144.5 85.5q-145 70 -121 209q21 113 102 164t223 51q151 0 210 -52t40 -157q-23 -132 -186 -202q163 -64 137 -226q-26 -137 -117 -192t-239 -55q-63 0 -109 7.5t-84.5 26.5t-58 54.5t-19.5 87.5 zM1389 233q-14 -81 13.5 -107t104.5 -26q75 0 115 26t51 99q10 59 -25.5 95.5t-117.5 66.5q-62 -28 -96.5 -62.5t-44.5 -91.5zM1468 647q-7 -45 30.5 -85.5t98.5 -63.5q110 56 123 139q11 66 -13 87t-93 21q-73 0 -105 -20.5t-41 -77.5z" />
<glyph unicode="&#x215e;" horiz-adv-x="1918" d="M240 557l501 731h-465l23 125h631l-19 -104l-489 -752h-182zM502 0l987 1413h149l-989 -1413h-147zM1212 156q0 19 7 59q17 86 70.5 139.5t144.5 85.5q-145 70 -121 209q21 113 102 164t223 51q151 0 210 -52t40 -157q-23 -132 -186 -202q163 -64 137 -226 q-26 -137 -117 -192t-239 -55q-63 0 -109 7.5t-84.5 26.5t-58 54.5t-19.5 87.5zM1389 233q-14 -81 13.5 -107t104.5 -26q75 0 115 26t51 99q10 59 -25.5 95.5t-117.5 66.5q-62 -28 -96.5 -62.5t-44.5 -91.5zM1468 647q-7 -45 30.5 -85.5t98.5 -63.5q110 56 123 139 q11 66 -13 87t-93 21q-73 0 -105 -20.5t-41 -77.5z" />
<glyph unicode="&#x25fc;" horiz-adv-x="1126" d="M0 0v1126h1126v-1126h-1126z" />
<glyph d="M242 942q0 86 24 221q24 138 53 222.5t76 136.5t107.5 71t154.5 19q142 0 202.5 -46.5t60.5 -176.5q0 -85 -25 -226q-24 -138 -53 -221.5t-76.5 -132t-107 -65.5t-154.5 -17q-143 0 -202.5 43.5t-59.5 171.5zM403 961q0 -73 26.5 -93t96.5 -20q59 0 93.5 24t60.5 90.5 t51 198.5q23 148 23 207q0 76 -26 100.5t-91 24.5q-64 0 -97.5 -22t-59.5 -91.5t-52 -218.5q-25 -141 -25 -200z" />
<glyph d="M260 741l21 125h186l98 564q-53 -30 -102 -60l-84 -47l-47 98l280 176h146l-127 -731h160l-21 -125h-510z" />
<glyph d="M209 741l20 111l330 303q83 76 119 121t43 92q10 57 -22.5 88t-96.5 31q-57 0 -132 -16t-110 -31l-14 125q118 47 297 47q140 0 204.5 -62.5t47.5 -173.5q-11 -61 -64.5 -130.5t-146.5 -155.5l-244 -222h377l-22 -127h-586z" />
<glyph d="M199 762l51 127q113 -37 225 -37q82 0 129.5 36t61.5 120q13 81 -21 116t-115 35q-43 0 -79 -8l-23 84l242 238h-336l22 124h535l-17 -106l-223 -217q91 -6 143 -52.5t52 -134.5q0 -29 -6 -67q-24 -145 -125.5 -219t-263.5 -74q-124 0 -252 35z" />
<glyph d="M213 930l23 125l491 542h168l-94 -548h90l-19 -119h-90q-5 -31 -17 -94.5t-17 -94.5h-160l35 189h-410zM379 1049h264l62 360z" />
<glyph d="M201 752l47 122q119 -26 219 -26q92 0 138.5 36t66.5 132q12 83 -17.5 114t-103.5 31q-72 0 -137 -18l-105 35l127 419h461l-20 -124h-330l-60 -203q44 14 113 14q125 0 186.5 -40.5t61.5 -141.5q0 -22 -8 -80q-30 -163 -122.5 -229t-268.5 -66q-135 0 -248 25z" />
<glyph d="M248 946q0 63 20 180q45 263 147.5 371.5t289.5 108.5h22q123 -3 191 -25l-35 -119q-113 25 -201 25q-86 0 -140 -46t-87 -169q90 33 186 33q120 0 175.5 -40.5t55.5 -138.5q0 -32 -8 -90q-33 -169 -119.5 -241t-236.5 -72q-138 0 -199 49.5t-61 173.5zM406 956 q0 -68 28 -91t101 -23q37 0 60 6t44.5 24.5t35 55.5t23.5 98q9 46 9 76q0 52 -24.5 69t-86.5 17q-70 0 -166 -27h2l-6 -35q-20 -120 -20 -170z" />
<glyph d="M270 741l502 732h-465l23 124h631l-19 -104l-489 -752h-183z" />
<glyph d="M229 899q0 19 7 59q17 86 70.5 140t144.5 86q-145 70 -121 209q21 113 102 164t223 51q151 0 210 -52t40 -157q-23 -133 -186 -203q163 -64 137 -225q-26 -137 -117 -192.5t-239 -55.5q-63 0 -109 7.5t-84.5 26.5t-58 54.5t-19.5 87.5zM406 977q-14 -81 13.5 -107 t104.5 -26q75 0 115 26t51 99q10 58 -25.5 94.5t-117.5 66.5q-62 -28 -96.5 -62t-44.5 -91zM485 1391q-7 -45 30.5 -86t98.5 -64q110 56 123 139q11 66 -13 87.5t-93 21.5q-73 0 -105 -20.5t-41 -77.5z" />
<glyph d="M231 748l37 118q98 -24 199 -24q91 0 146.5 57.5t88.5 192.5q-97 -33 -192 -33q-118 0 -173.5 39.5t-55.5 134.5q0 28 8 82q30 159 112.5 226t235.5 67q141 0 202.5 -50t61.5 -176q0 -76 -18 -178q-49 -267 -149.5 -374t-287.5 -107q-122 0 -215 25zM446 1264 q0 -50 26.5 -69t90.5 -19q89 0 162 26h-2q20 123 20 170q0 68 -28 91.5t-101 23.5q-75 0 -109 -31t-52 -129q-7 -44 -7 -63z" />
<glyph horiz-adv-x="1918" d="M229 557l21 125h186l99 563q-99 -56 -103 -59l-84 -47l-47 98l281 176h145l-127 -731h160l-21 -125h-510zM502 0l987 1413h149l-989 -1413h-147zM1253 -2l502 731h-465l23 125h631l-19 -104l-489 -752h-183z" />
<glyph horiz-adv-x="1918" d="M178 557l21 111l329 303q83 76 119 121t43 92q10 57 -22.5 88t-96.5 31q-56 0 -130.5 -16t-110.5 -32l-15 125q118 47 297 47q140 0 204.5 -62t47.5 -173q-21 -112 -211 -287l-243 -221h376l-22 -127h-586zM502 0l987 1413h149l-989 -1413h-147zM1253 -2l502 731h-465 l23 125h631l-19 -104l-489 -752h-183z" />
<glyph horiz-adv-x="1918" d="M168 578l51 127q113 -37 225 -37q82 0 129.5 35.5t61.5 119.5q13 81 -21 116.5t-114 35.5q-44 0 -80 -8l-23 84l242 237h-336l23 125h534l-16 -106l-223 -217q91 -6 142.5 -52.5t51.5 -134.5q0 -30 -6 -67q-24 -145 -125.5 -219t-263.5 -74q-124 0 -252 35zM502 0 l987 1413h149l-989 -1413h-147zM1253 -2l502 731h-465l23 125h631l-19 -104l-489 -752h-183z" />
<glyph horiz-adv-x="1918" d="M182 745l23 125l491 543h168l-94 -549h90l-18 -119h-90q-5 -31 -17.5 -94t-17.5 -94h-160l35 188h-410zM348 864h264l62 361zM502 0l987 1413h149l-989 -1413h-147zM1253 -2l502 731h-465l23 125h631l-19 -104l-489 -752h-183z" />
<glyph horiz-adv-x="1918" d="M170 567l47 123q119 -26 219 -26q92 0 138.5 36t66.5 131q12 83 -17.5 114.5t-103.5 31.5q-68 0 -137 -19l-104 35l127 420h460l-20 -125h-330l-59 -203q47 15 112 15q125 0 186.5 -40.5t61.5 -141.5q0 -22 -8 -80q-30 -163 -122.5 -229t-268.5 -66q-140 0 -248 24z M502 0l987 1413h149l-989 -1413h-147zM1253 -2l502 731h-465l23 125h631l-19 -104l-489 -752h-183z" />
<glyph horiz-adv-x="1918" d="M217 762q0 58 21 180q45 263 147 371t289 108h22q127 -3 191 -24l-35 -119q-113 25 -201 25q-86 0 -140 -46t-87 -170q90 33 186 33q120 0 176 -40t56 -138q0 -32 -8 -90q-33 -169 -120 -241t-237 -72q-138 0 -199 49.5t-61 173.5zM375 772q0 -68 28 -91.5t101 -23.5 q37 0 60.5 6t44.5 25t35 56t24 98q8 41 8 76q0 52 -24.5 69t-86.5 17q-70 0 -166 -27h2l-6 -35q-20 -120 -20 -170zM502 0l987 1413h149l-989 -1413h-147zM1253 -2l502 731h-465l23 125h631l-19 -104l-489 -752h-183z" />
<glyph horiz-adv-x="1918" d="M229 557l21 125h186l99 563q-99 -56 -103 -59l-84 -47l-47 98l281 176h145l-127 -731h160l-21 -125h-510zM502 0l987 1413h149l-989 -1413h-147zM1214 4l37 119q103 -25 199 -25q91 0 147 58t89 192q-97 -33 -193 -33q-118 0 -173.5 39.5t-55.5 134.5q0 28 8 82 q30 159 112.5 226t235.5 67q142 0 203 -49.5t61 -175.5q0 -76 -18 -178q-49 -267 -149 -374t-287 -107q-127 0 -216 24zM1430 520q0 -50 26 -69t90 -19q86 0 162 27h-2q20 123 20 170q0 68 -28 91t-101 23q-75 0 -109 -30.5t-52 -128.5q-6 -37 -6 -64z" />
<glyph horiz-adv-x="1918" d="M178 557l21 111l329 303q83 76 119 121t43 92q10 57 -22.5 88t-96.5 31q-56 0 -130.5 -16t-110.5 -32l-15 125q118 47 297 47q140 0 204.5 -62t47.5 -173q-21 -112 -211 -287l-243 -221h376l-22 -127h-586zM502 0l987 1413h149l-989 -1413h-147zM1214 4l37 119 q103 -25 199 -25q91 0 147 58t89 192q-97 -33 -193 -33q-118 0 -173.5 39.5t-55.5 134.5q0 28 8 82q30 159 112.5 226t235.5 67q142 0 203 -49.5t61 -175.5q0 -76 -18 -178q-49 -267 -149 -374t-287 -107q-127 0 -216 24zM1430 520q0 -50 26 -69t90 -19q86 0 162 27h-2 q20 123 20 170q0 68 -28 91t-101 23q-75 0 -109 -30.5t-52 -128.5q-6 -37 -6 -64z" />
<glyph horiz-adv-x="1918" d="M182 745l23 125l491 543h168l-94 -549h90l-18 -119h-90q-5 -31 -17.5 -94t-17.5 -94h-160l35 188h-410zM348 864h264l62 361zM502 0l987 1413h149l-989 -1413h-147zM1214 4l37 119q103 -25 199 -25q91 0 147 58t89 192q-97 -33 -193 -33q-118 0 -173.5 39.5t-55.5 134.5 q0 28 8 82q30 159 112.5 226t235.5 67q142 0 203 -49.5t61 -175.5q0 -76 -18 -178q-49 -267 -149 -374t-287 -107q-127 0 -216 24zM1430 520q0 -50 26 -69t90 -19q86 0 162 27h-2q20 123 20 170q0 68 -28 91t-101 23q-75 0 -109 -30.5t-52 -128.5q-6 -37 -6 -64z" />
<glyph horiz-adv-x="1918" d="M170 567l47 123q119 -26 219 -26q92 0 138.5 36t66.5 131q12 83 -17.5 114.5t-103.5 31.5q-68 0 -137 -19l-104 35l127 420h460l-20 -125h-330l-59 -203q47 15 112 15q125 0 186.5 -40.5t61.5 -141.5q0 -22 -8 -80q-30 -163 -122.5 -229t-268.5 -66q-140 0 -248 24z M502 0l987 1413h149l-989 -1413h-147zM1214 4l37 119q103 -25 199 -25q91 0 147 58t89 192q-97 -33 -193 -33q-118 0 -173.5 39.5t-55.5 134.5q0 28 8 82q30 159 112.5 226t235.5 67q142 0 203 -49.5t61 -175.5q0 -76 -18 -178q-49 -267 -149 -374t-287 -107q-127 0 -216 24 zM1430 520q0 -50 26 -69t90 -19q86 0 162 27h-2q20 123 20 170q0 68 -28 91t-101 23q-75 0 -109 -30.5t-52 -128.5q-6 -37 -6 -64z" />
<glyph horiz-adv-x="1918" d="M240 557l501 731h-465l23 125h631l-19 -104l-489 -752h-182zM502 0l987 1413h149l-989 -1413h-147zM1214 4l37 119q103 -25 199 -25q91 0 147 58t89 192q-97 -33 -193 -33q-118 0 -173.5 39.5t-55.5 134.5q0 28 8 82q30 159 112.5 226t235.5 67q142 0 203 -49.5 t61 -175.5q0 -76 -18 -178q-49 -267 -149 -374t-287 -107q-127 0 -216 24zM1430 520q0 -50 26 -69t90 -19q86 0 162 27h-2q20 123 20 170q0 68 -28 91t-101 23q-75 0 -109 -30.5t-52 -128.5q-6 -37 -6 -64z" />
<glyph horiz-adv-x="1918" d="M199 715q0 25 6 59q17 86 70.5 139.5t144.5 85.5q-145 70 -121 209q21 113 102.5 164t223.5 51q151 0 209.5 -52t39.5 -157q-23 -132 -186 -202q163 -64 137 -226q-26 -137 -117 -192t-239 -55q-130 0 -200 38t-70 138zM375 793q-14 -81 14 -107.5t105 -26.5 q75 0 114.5 26t50.5 99q10 59 -25.5 95.5t-117.5 66.5q-62 -28 -96.5 -62t-44.5 -91zM455 1206q-7 -45 30.5 -85.5t98.5 -63.5q110 56 123 139q11 66 -13.5 87.5t-93.5 21.5q-72 0 -104 -21t-41 -78zM502 0l987 1413h149l-989 -1413h-147zM1214 4l37 119q103 -25 199 -25 q91 0 147 58t89 192q-97 -33 -193 -33q-118 0 -173.5 39.5t-55.5 134.5q0 28 8 82q30 159 112.5 226t235.5 67q142 0 203 -49.5t61 -175.5q0 -76 -18 -178q-49 -267 -149 -374t-287 -107q-127 0 -216 24zM1430 520q0 -50 26 -69t90 -19q86 0 162 27h-2q20 123 20 170 q0 68 -28 91t-101 23q-75 0 -109 -30.5t-52 -128.5q-6 -37 -6 -64z" />
<glyph horiz-adv-x="1067" d="M160 285q0 149 47 422q22 126 43 220.5t46 171t50 129t60 91.5t69 61.5t84 35.5t100 17.5t121 4.5q82 0 136.5 -6.5t102.5 -25t74 -52.5t41 -89t15 -135q0 -145 -49 -423q-28 -162 -56 -275t-65 -196.5t-76.5 -133t-98 -78.5t-121.5 -39t-155 -10q-104 0 -166 10.5 t-111.5 43t-70 94.5t-20.5 162zM346 309q0 -61 11 -98t38 -57t63 -26.5t97 -6.5q59 0 98.5 7.5t74.5 33t57.5 62t45.5 107.5t40.5 155.5t41.5 218.5q50 311 50 397q0 60 -10.5 97t-37.5 57t-62.5 27t-94.5 7q-60 0 -100 -7.5t-75.5 -33t-58.5 -62.5t-46 -108t-41.5 -155.5 t-41.5 -218.5q-49 -305 -49 -396z" />
<glyph horiz-adv-x="684" d="M233 1139l371 274h178l-241 -1413h-191l207 1202q-206 -132 -276 -178z" />
<glyph horiz-adv-x="983" d="M68 0l24 139l483 492q133 136 201 235.5t82 190.5q19 103 -39.5 164t-183.5 61q-129 0 -299 -53l-19 151q176 58 375 58q186 0 285.5 -75.5t99.5 -217.5q0 -49 -8 -88q-23 -107 -102.5 -224.5t-227.5 -267.5l-415 -418h600l-25 -147h-831z" />
<glyph horiz-adv-x="1009" d="M84 39l74 145q147 -63 274 -63q152 0 242 83.5t119 233.5q6 34 6 66q0 59 -21.5 99.5t-62.5 61.5t-89 29t-112 8q-70 0 -94 -6l-31 103l463 465h-537l25 149h760l-23 -133l-448 -449q20 5 28 5q70 -6 127.5 -24t104.5 -52t73.5 -89.5t26.5 -129.5q0 -46 -8 -90 q-39 -233 -188.5 -354.5t-380.5 -121.5q-196 0 -328 64z" />
<glyph horiz-adv-x="1038" d="M98 334l25 135l754 944h227l-162 -940h121l-23 -139h-122l-58 -334h-182l57 334h-637zM301 473h457l129 739z" />
<glyph horiz-adv-x="1034" d="M78 39l78 145q50 -19 79 -29t89.5 -22t117.5 -12q297 0 357 317q6 38 6 74q0 60 -20.5 100t-60.5 60t-84 27.5t-105 7.5q-54 0 -113 -10t-84 -19l-84 61l176 674h692l-26 -147h-539l-108 -428q63 18 157 18q181 0 286 -75t105 -232q0 -38 -10 -100q-39 -234 -185.5 -354 t-375.5 -120q-104 0 -198 17.5t-150 46.5z" />
<glyph horiz-adv-x="1081" d="M182 297q0 137 43 379q32 181 76 312.5t96.5 218t122 138t146.5 72.5t176 21q89 0 182.5 -14.5t149.5 -34.5l-58 -148q-166 49 -301 49q-55 0 -95 -9.5t-82.5 -38t-74.5 -79.5t-63.5 -137t-57.5 -207q35 26 117.5 39.5t157.5 13.5q180 0 264 -57.5t84 -206.5 q0 -58 -12 -135q-26 -146 -70 -245t-108.5 -153.5t-140 -77t-177.5 -22.5q-103 0 -169 13t-115 48t-70 98.5t-21 162.5zM371 326q0 -121 44.5 -163t155.5 -42q135 0 197 71t94 263q10 54 10 112q0 98 -51 133t-176 35q-55 0 -125.5 -15.5t-105.5 -31.5h2q-1 -8 -5 -25.5 t-5 -25.5q-35 -205 -35 -311z" />
<glyph horiz-adv-x="997" d="M176 0l774 1264h-651l27 149h839l-18 -121l-764 -1292h-207z" />
<glyph horiz-adv-x="1085" d="M141 256q0 44 11 104q14 81 48.5 146.5t82.5 109t97 71t103 44.5h-2l4 21h2q-198 72 -198 260q0 32 6 73q30 174 158.5 263.5t334.5 89.5q381 0 381 -264q0 -36 -6 -76q-12 -65 -40 -119.5t-61.5 -90t-77 -64t-78 -44t-72.5 -26.5h2q0 -3 -1 -9.5t-1 -9.5h-3 q116 -42 177 -106t61 -174q0 -35 -6 -78q-20 -113 -67.5 -192.5t-119 -124.5t-156 -65t-192.5 -20q-187 0 -287 65.5t-100 215.5zM330 299q0 -96 55.5 -137t171.5 -41q133 0 214 56.5t106 201.5q6 30 6 59q0 49 -19 87t-56 65.5t-77.5 46t-99.5 37.5q-112 -31 -191 -106 t-102 -193q-8 -54 -8 -76zM471 1071q-8 -51 5.5 -93t46 -73t72.5 -53t93 -41q114 35 193.5 101t95.5 159q19 110 -31 165.5t-180 55.5q-257 0 -295 -221z" />
<glyph horiz-adv-x="1064" d="M143 37l70 141q150 -57 276 -57q73 0 123.5 19t96.5 71t81.5 144.5t69.5 238.5q-128 -55 -289 -55q-172 0 -251.5 59t-79.5 207q0 60 14 149q26 137 73.5 232.5t114 150t144 78t176.5 23.5q96 0 159.5 -14.5t109.5 -51.5t66.5 -102t20.5 -164q0 -129 -37 -340 q-34 -191 -77 -327.5t-94.5 -226.5t-120.5 -142.5t-146 -73.5t-180 -21q-95 0 -181 17t-139 45zM428 844q0 -88 46.5 -127t162.5 -39q72 0 143.5 14.5t106.5 30.5h-2q0 4 2 14.5t2 14.5l6 30q35 222 35 303q0 119 -44 162t-149 43q-132 0 -198 -72.5t-97 -246.5 q-14 -82 -14 -127z" />
<glyph horiz-adv-x="1323" d="M117 279q0 49 8 88q16 80 55.5 148t98.5 120.5t124.5 92t147.5 73.5h-2q-77 197 -57 323q25 139 132 226.5t269 87.5q140 0 212 -77.5t54 -201.5q-25 -139 -129.5 -242t-255.5 -165h2q78 -157 242 -385q119 159 153 358h189q-65 -284 -256 -481h2q78 -105 194 -244h-229 q-43 45 -106 125q-214 -150 -461 -150q-182 0 -284.5 77t-102.5 227zM330 311q0 -95 55.5 -142.5t173.5 -47.5q180 0 328 110h-2q-167 228 -285 461q-113 -60 -178 -129.5t-84 -175.5q-8 -50 -8 -76zM684 1120q-16 -99 45 -258q232 115 256 260q29 170 -119 170 q-76 0 -122 -45t-60 -127z" />
<glyph horiz-adv-x="1044" d="M152 258q0 99 34 305q21 121 43 204.5t53 152.5t68 110.5t91.5 70t121 39.5t158.5 11q203 0 283.5 -60.5t80.5 -224.5q0 -103 -32 -303q-22 -124 -44 -209t-53 -154t-68 -109.5t-92 -68t-121 -37.5t-159 -10q-203 0 -283.5 60t-80.5 223zM340 297q0 -105 45 -140.5 t158 -35.5q54 0 92 6.5t70 27t53 50t41 83t35 118t32 163.5q33 193 33 271q0 101 -44 132.5t-161 31.5q-56 0 -92.5 -5t-69.5 -23t-53 -45.5t-40 -79.5t-34.5 -116.5t-31.5 -165.5q-33 -196 -33 -272z" />
<glyph horiz-adv-x="1044" d="M197 0l24 145h266q22 128 69 394.5t69 394.5l-269 -133l-51 114l361 211h180l-170 -981h235l-24 -145h-690z" />
<glyph horiz-adv-x="1044" d="M117 0l24 141q272 207 449 351q116 95 181 170t77 157q15 87 -35 136t-151 49q-169 0 -330 -56l-19 144q64 24 179.5 41.5t236.5 17.5q151 0 239.5 -64t88.5 -192q0 -31 -6 -68q-11 -61 -41.5 -117.5t-83 -112.5t-106 -102t-134.5 -108l-313 -244h577l-24 -143h-809z" />
<glyph horiz-adv-x="1044" d="M10 -231l78 141q44 -21 131 -38t156 -17q154 0 240 68.5t112 209.5q6 37 6 72q0 101 -64 143.5t-204 42.5q-131 0 -184 -2l24 143h125q167 0 248 62t106 186q7 40 7 70q0 81 -48.5 117.5t-162.5 36.5q-63 0 -149 -10.5t-130 -22.5q-4 19 -8 67l-8 68q51 17 147.5 31 t200.5 14q184 0 267 -60.5t83 -183.5q0 -51 -8 -92q-50 -257 -221 -319h2q0 -4 -2 -13.5t-2 -13.5h-4q87 -18 132.5 -70.5t45.5 -152.5q0 -32 -11 -103q-41 -228 -173.5 -332t-364.5 -104q-109 0 -210.5 16t-156.5 46z" />
<glyph horiz-adv-x="1044" d="M59 0l27 162l745 964h218l-172 -987h149l-22 -139h-148l-51 -287h-180l49 287h-615zM250 139h446l135 772q-341 -451 -581 -772z" />
<glyph horiz-adv-x="1044" d="M45 -248l78 146q52 -20 80 -29.5t89.5 -22t117.5 -12.5q296 0 356 318q6 38 6 73q0 60 -20.5 100t-60.5 60t-84 27.5t-105 7.5q-54 0 -113 -10t-84 -19l-84 62l176 673h693l-27 -147h-539l-108 -428q63 18 157 18q182 0 287 -75t105 -232q0 -32 -11 -100 q-39 -233 -185.5 -353t-375.5 -120q-105 0 -199 17t-149 46z" />
<glyph horiz-adv-x="1044" d="M170 297q0 137 43 379q40 225 96.5 375t134.5 234.5t169 118.5t216 34q89 0 182.5 -14.5t149.5 -34.5l-57 -148q-166 49 -301 49q-55 0 -95 -9.5t-82.5 -38t-74.5 -79.5t-63.5 -137t-57.5 -207q35 26 117.5 39.5t157.5 13.5q180 0 264 -57.5t84 -206.5q0 -52 -13 -135 q-26 -146 -70 -244.5t-108 -153.5t-139.5 -77.5t-177.5 -22.5q-103 0 -169 13t-115 48t-70 98.5t-21 162.5zM358 326q0 -121 45 -163t156 -42q135 0 197 71t94 263q10 54 10 112q0 98 -51 133t-176 35q-55 0 -126 -15.5t-106 -31.5h2q-1 -8 -5 -25.5t-5 -25.5 q-35 -205 -35 -311z" />
<glyph horiz-adv-x="1044" d="M131 -287l774 1264h-651l27 149h839l-18 -120l-764 -1293h-207z" />
<glyph horiz-adv-x="1044" d="M127 256q0 49 10 104q14 81 49 146.5t83 109t97 71t103 44.5h-2l4 21h2q-199 72 -199 260q0 26 7 73q30 174 158.5 263.5t334.5 89.5q381 0 381 -264q0 -36 -6 -76q-14 -80 -52 -143.5t-89 -102.5t-95.5 -61t-93.5 -37h2q0 -3 -1 -9.5t-1 -9.5h-2q116 -42 177 -106 t61 -174q0 -35 -6 -78q-20 -113 -67.5 -192.5t-119 -124.5t-156 -65t-192.5 -20q-187 0 -287 65.5t-100 215.5zM315 299q0 -96 56 -137t172 -41q133 0 213.5 56.5t105.5 201.5q6 30 6 59q0 49 -19 87t-56 65.5t-77.5 46t-99.5 37.5q-112 -31 -190.5 -106t-101.5 -193 q-9 -61 -9 -76zM457 1071q-8 -51 5.5 -93t46 -73t72.5 -53t93 -41q114 35 193.5 101t95.5 159q19 110 -31 165.5t-180 55.5q-257 0 -295 -221z" />
<glyph horiz-adv-x="1044" d="M82 -250l70 141q150 -57 276 -57q73 0 123.5 19t96.5 71t81.5 144.5t69.5 238.5q-128 -55 -289 -55q-172 0 -252 59t-80 207q0 54 15 150q26 137 73 232.5t113.5 149.5t144 77.5t176.5 23.5q96 0 159.5 -14.5t110 -51.5t67 -102t20.5 -164q0 -129 -37 -340 q-34 -191 -77 -327.5t-94.5 -226.5t-121 -142t-146.5 -73t-180 -21q-204 0 -319 61zM367 557q0 -88 46 -127t162 -39q72 0 143.5 14.5t106.5 30.5h-2q0 4 2 14.5t2 14.5l7 31q34 216 34 303q0 119 -43.5 162t-148.5 43q-132 0 -198 -73t-97 -247q-14 -82 -14 -127z" />
<glyph horiz-adv-x="741" d="M127 201q0 29 6 67q11 59 45 128.5t67.5 118.5t88.5 122q42 58 65.5 91.5t56.5 87t53 101.5t30 95h159q-12 -68 -34.5 -130t-60 -125t-61.5 -98t-71 -100q-66 -87 -102 -147.5t-47 -122.5q-15 -85 21 -122.5t134 -37.5q47 0 134 12t130 21l-2 -146q-47 -14 -151 -27.5 t-172 -13.5q-141 0 -215 59t-74 167zM557 1151l43 262h178l-45 -262h-176z" />
<glyph horiz-adv-x="485" d="M395 1413h180l43 -262h-178zM492 1012h124l228 -1012h-230z" />
<glyph horiz-adv-x="466" d="M143 651l23 144h407l-22 -144h-408z" />
<glyph horiz-adv-x="1003" d="M106 647l27 144h1012l-27 -144h-1012z" />
<glyph horiz-adv-x="2007" d="M106 647l27 144h2015l-26 -144h-2016z" />
<glyph horiz-adv-x="450" d="M166 698l297 463h158l-277 -463l117 -460h-156z" />
<glyph horiz-adv-x="450" d="M66 238l280 460l-121 463h156l143 -463l-301 -460h-157z" />
<glyph horiz-adv-x="1587" d="M190 516q0 70 17 182q60 347 282.5 542.5t561.5 195.5q283 0 438.5 -131t155.5 -383q0 -61 -15 -160q-42 -219 -161 -353.5t-265 -134.5q-131 0 -157 91q-50 -44 -120 -73.5t-147 -29.5q-111 0 -167 41.5t-56 142.5q0 43 10 95q12 69 35 115.5t55 77t86 46t116 21.5 t157 6h37q6 0 16.5 -1t17.5 -1l15 80q13 77 -16 106t-117 29q-65 0 -148 -14t-129 -29l-12 117q40 18 134 32.5t187 14.5q137 0 205 -40.5t68 -142.5q0 -32 -6 -69l-70 -387q-17 -121 43 -121q68 0 127 98.5t88 263.5q14 80 14 162q0 400 -446 400q-256 0 -421.5 -158.5 t-223.5 -446.5q-17 -100 -17 -168q0 -217 118 -323.5t333 -106.5q71 0 157.5 16t151.5 44l15 -115q-69 -33 -165.5 -51.5t-189.5 -18.5q-279 0 -435.5 136t-156.5 403zM715 475q0 -56 28.5 -76t96.5 -20q63 0 105 13.5t83 43.5h-2l45 262h-92q-77 0 -116.5 -4t-71 -20.5 t-45 -46.5t-23.5 -84q-8 -54 -8 -68z" />
<glyph horiz-adv-x="802" d="M166 698l297 463h158l-277 -463l117 -460h-156zM518 698l297 463h158l-277 -463l117 -460h-156z" />
<glyph horiz-adv-x="784" d="M66 238l280 460l-121 463h156l143 -463l-301 -460h-157zM401 238l281 460l-121 463h156l143 -463l-301 -460h-158z" />
<glyph horiz-adv-x="438" d="M125 0l192 1126h187l-193 -1126h-186zM334 1214l33 199h188l-35 -199h-186z" />
<glyph horiz-adv-x="911" d="M6 0l518 1126h244l135 -1126h-186l-37 313h-352q-21 -51 -68.5 -156.5t-69.5 -156.5h-184zM383 446h287l-58 512z" />
<glyph horiz-adv-x="937" d="M100 0l193 1126h383q182 0 259 -42.5t77 -149.5q0 -44 -8 -88q-18 -103 -72.5 -165.5t-128.5 -80.5h4q0 -3 -2 -10t-2 -10q58 -9 89.5 -53.5t31.5 -118.5q0 -15 -9 -80q-18 -100 -47 -162t-81.5 -100t-124 -52t-183.5 -14h-379zM307 141h211q116 0 159 36t64 159 q7 40 7 59q0 68 -38.5 95.5t-127.5 27.5h-211zM393 649h242q159 0 190 180q15 92 -19 123t-147 31h-206z" />
<glyph horiz-adv-x="792" d="M156 266q0 115 30 297q22 126 47 218t59.5 157.5t73 106.5t93.5 65t114 32.5t142 8.5q144 0 229 -25l-39 -141q-90 23 -194 23q-101 0 -161 -35.5t-103.5 -132t-77.5 -281.5q-27 -162 -27 -237q0 -64 12.5 -104t42 -62t68 -29.5t100.5 -7.5q84 0 201 26l-6 -145 q-118 -25 -252 -25q-78 0 -131 7t-97.5 25t-70 51t-39.5 84t-14 124z" />
<glyph horiz-adv-x="1009" d="M102 0l193 1126h420q93 0 150.5 -10t102 -39t63 -82.5t18.5 -138.5q0 -104 -31 -285q-22 -126 -45 -214t-55 -153.5t-67.5 -103.5t-89.5 -61.5t-113 -31t-146 -7.5h-400zM307 143h217q54 0 84.5 3.5t63.5 19t52 42t40 77.5t37 121.5t35 177.5q28 165 28 241q0 96 -40 127 t-144 31h-227q-10 -59 -65 -369.5t-81 -470.5z" />
<glyph horiz-adv-x="847" d="M121 0l192 1126h648l-23 -143h-467l-57 -338h446l-22 -139h-449l-61 -365h467l-25 -141h-649z" />
<glyph horiz-adv-x="817" d="M100 0l193 1126h665l-22 -143h-485l-60 -344h463l-25 -137h-462l-86 -502h-181z" />
<glyph horiz-adv-x="956" d="M154 262q0 105 32 299q27 150 64.5 254.5t83 170t111.5 102.5t137 50t172 13q70 0 168.5 -9t136.5 -18l-43 -145q-28 6 -124 16.5t-138 10.5t-69 -1.5t-59 -6t-53 -14t-45 -25.5t-40.5 -40t-34.5 -57t-32 -77.5t-27.5 -101t-26.5 -128.5q-27 -153 -27 -242 q0 -66 12.5 -106t43 -59t63.5 -24t92 -5q94 0 166 14h-4l69 408l179 20l-95 -547q-50 -11 -158.5 -25t-179.5 -14q-83 0 -137 5.5t-103.5 22.5t-76 48.5t-42 83t-15.5 127.5z" />
<glyph horiz-adv-x="1021" d="M121 0l192 1126h185l-82 -477h413l82 477h183l-193 -1126h-182l86 502h-414l-86 -502h-184z" />
<glyph horiz-adv-x="434" d="M125 0l192 1126h185l-193 -1126h-184z" />
<glyph horiz-adv-x="614" d="M6 0l33 152q20 -8 76 -19.5t80 -11.5q81 0 117.5 39.5t56.5 158.5l139 807h180l-135 -800q-36 -200 -115.5 -275.5t-242.5 -75.5q-108 0 -189 25z" />
<glyph horiz-adv-x="958" d="M121 0l192 1126h185l-82 -481h172q91 59 180 213l162 268h188l-166 -274q-68 -107 -115.5 -160t-101.5 -90h2q0 -4 -2 -12t-2 -12h-2q104 -51 143 -256l62 -322h-191l-63 307q-30 156 -123 207h-166q-49 -277 -88 -514h-184z" />
<glyph horiz-adv-x="776" d="M121 0l192 1126h185l-168 -985h444l-22 -141h-631z" />
<glyph horiz-adv-x="1286" d="M121 0l192 1126h252l125 -858l418 858h250l-195 -1126h-168l154 905l-434 -905h-146l-123 907q-25 -151 -78 -453t-79 -454h-168z" />
<glyph horiz-adv-x="1026" d="M121 0l192 1126h228l231 -888l154 888h172l-193 -1126h-225l-238 887l-151 -887h-170z" />
<glyph horiz-adv-x="1038" d="M156 250q0 100 34 313q22 121 43 204t51.5 152.5t67 111t90 70t119 39.5t156.5 11q200 0 279 -59t79 -220q0 -94 -35 -309q-22 -121 -43.5 -204t-52 -152.5t-67 -111t-90 -70t-119 -39.5t-156.5 -11q-200 0 -278 58t-78 217zM344 287q0 -100 42.5 -134t152.5 -34 q55 0 91.5 6t68 26t51 48t39 83t33.5 119.5t32 167.5q35 187 35 277q0 99 -43 130.5t-156 31.5q-56 0 -91.5 -5t-67 -24t-50.5 -46t-38 -80.5t-32.5 -117t-31.5 -166.5q-35 -190 -35 -282z" />
<glyph horiz-adv-x="921" d="M121 0l192 1126h402q163 0 232 -51t69 -172q0 -59 -15 -139q-33 -199 -131 -278.5t-284 -79.5h-215l-68 -406h-182zM395 543h209q102 0 150.5 50t68.5 171q11 75 11 100q0 73 -38 96t-139 23h-186z" />
<glyph horiz-adv-x="1038" d="M156 260q0 101 34 313q22 121 43 204t51.5 152.5t67 111t90 70t119 39.5t156.5 11q201 0 279.5 -58.5t78.5 -219.5q0 -95 -35 -310q-22 -121 -43.5 -204t-52 -152.5t-67 -110.5t-90 -69.5t-119 -39.5t-156.5 -11q-200 0 -278 57.5t-78 216.5zM336 -133l31 92 q120 0 311 -51q156 -41 231 -41l-24 -143q-51 0 -108 12.5t-92.5 25.5t-96.5 37q-56 23 -87.5 34.5t-78.5 22.5t-86 11zM344 297q0 -100 42.5 -134t152.5 -34q55 0 91.5 6t68 26t51 48t39 83.5t33.5 119.5t32 168q35 187 35 276q0 99 -43 130.5t-156 31.5q-56 0 -91.5 -5 t-67 -24t-50.5 -45.5t-38 -80.5t-32.5 -117t-31.5 -166q-35 -190 -35 -283z" />
<glyph horiz-adv-x="952" d="M121 0l192 1126h377q186 0 259 -41t73 -157q0 -52 -12 -125q-12 -64 -33.5 -111.5t-50 -75.5t-52.5 -43t-55 -26h2q0 -3 -2 -11.5t-2 -11.5h-2q40 -30 61 -80t21 -137q0 -41 -2 -61l-21 -246h-178l17 244q7 78 -13.5 138.5t-46.5 90.5h-272l-80 -473h-180zM406 608h200 q54 0 87 6t61 25.5t44 56t27 97.5q9 50 9 81q0 66 -35.5 87.5t-130.5 21.5h-199z" />
<glyph horiz-adv-x="804" d="M61 14l64 150q126 -43 233 -43q217 0 246 162q5 31 -2.5 58t-20.5 46t-41 41t-48 34.5t-58 33.5q-24 13 -37.5 21t-36.5 21.5t-36 24t-32 26t-30 30t-24.5 33t-19.5 38t-11.5 42.5t-5 49t5.5 55q19 111 84 183t157.5 102t213.5 30q153 0 256 -27l-52 -145q-36 9 -105 18 t-118 9q-105 0 -166 -37t-78 -121q-5 -30 3 -57.5t21 -46t41.5 -41t47 -34t55.5 -32.5q50 -27 82.5 -48.5t70.5 -56t57.5 -79t19.5 -97.5q0 -29 -6 -59q-14 -85 -55.5 -148t-103 -100.5t-135.5 -55.5t-161 -18q-146 0 -275 39z" />
<glyph horiz-adv-x="804" d="M188 983l25 143h764l-23 -143h-292q-24 -141 -84.5 -491.5t-83.5 -491.5h-181l168 983h-293z" />
<glyph horiz-adv-x="1013" d="M166 223q0 59 18 172l125 731h180l-127 -733q-10 -62 -10 -102q0 -98 48 -136t149 -38q86 0 192 14h-4q28 166 85.5 497.5t84.5 497.5h178l-190 -1106q-69 -19 -185 -32t-180 -13q-201 0 -282.5 51.5t-81.5 196.5z" />
<glyph horiz-adv-x="911" d="M201 1126h184l102 -940l424 940h183l-523 -1126h-235z" />
<glyph horiz-adv-x="1402" d="M211 1126h180l37 -909l385 909h166l74 -909l344 909h180l-451 -1126h-208l-68 864l-369 -864h-207z" />
<glyph horiz-adv-x="931" d="M8 0l453 580l-234 546h199l178 -397l309 397h183l-428 -542q149 -338 254 -584h-205l-189 428l-333 -428h-187z" />
<glyph horiz-adv-x="872" d="M199 1126h188l156 -518q55 85 165.5 259t165.5 259h185l-459 -704q-65 -379 -72 -422h-182l72 422q-35 114 -109.5 352t-109.5 352z" />
<glyph horiz-adv-x="782" d="M33 0l18 121l643 862h-493l24 143h713l-20 -120l-644 -863h498l-22 -143h-717z" />
<glyph horiz-adv-x="1384" d="M-4 0l674 1126h829l-24 -143h-441l-59 -338h426l-25 -139h-424l-63 -365h444l-24 -141h-627l55 315h-358l-191 -315h-192zM451 453h307l94 536h-80z" />
<glyph horiz-adv-x="1456" d="M160 279q0 92 33 292q21 123 43 208.5t53 149t65 100.5t85 59.5t107 30t138 7.5h885l-23 -143h-465l-57 -338h446l-22 -139h-449l-61 -365h467l-25 -141h-868q-78 0 -131 6.5t-97.5 24.5t-70.5 49.5t-39.5 80t-13.5 118.5zM346 305q0 -45 8 -74.5t21 -47t39.5 -26.5 t53 -11.5t71.5 -2.5h215q142 820 145 840h-229q-50 0 -82.5 -5t-62.5 -21.5t-48.5 -41.5t-36.5 -72.5t-31.5 -107t-29.5 -151.5q-33 -179 -33 -279z" />
<glyph horiz-adv-x="1009" d="M102 0l86 506h-86l25 139h86l82 481h420q93 0 150.5 -10t102 -39t63 -82.5t18.5 -138.5q0 -107 -31 -285q-22 -122 -45.5 -208t-55.5 -151.5t-68.5 -105t-89.5 -64t-113 -33.5t-144 -9h-400zM307 143h217q54 0 84.5 3.5t63.5 19t52 42t40 77.5t37 121.5t35 177.5 q28 165 28 241q0 96 -40 127t-144 31h-227l-60 -338h211l-24 -139h-211z" />
<glyph horiz-adv-x="1019" d="M152 254q0 100 34 309q21 121 42.5 204.5t52.5 152.5t67.5 110.5t90.5 70t120.5 39.5t157.5 11q201 0 281.5 -60t80.5 -223q0 -93 -35 -305q-22 -121 -44 -204.5t-53 -152.5t-68 -110.5t-90.5 -70t-119.5 -39.5t-157 -11q-201 0 -280.5 59t-79.5 220zM346 313 q51 57 141.5 164t118.5 139l271 314q-21 42 -65.5 60t-121.5 18q-56 0 -92 -5.5t-68.5 -24t-52 -46t-39 -80t-34 -117.5t-31.5 -166q-30 -182 -27 -256zM365 170q37 -53 174 -53q54 0 90.5 6t68 24.5t52 46t39.5 78t33 112.5t30 157q23 127 33 231z" />
<glyph horiz-adv-x="921" d="M121 0l192 1126h183l-35 -204h219q163 0 232 -51t69 -171q0 -67 -14 -141q-34 -199 -132.5 -278.5t-283.5 -79.5h-213q-5 -33 -17.5 -100.5t-17.5 -100.5h-182zM360 338h222q99 0 141 48t65 173q11 75 11 100q0 73 -37.5 96t-136.5 23h-187z" />
<glyph horiz-adv-x="1050" d="M82 225q0 33 6 70q22 123 104 201.5t222 140.5h-2q-64 157 -47 256q21 112 115.5 185t228.5 73q120 0 185 -67.5t48 -174.5q-19 -108 -98.5 -180t-212.5 -129h2q59 -123 172 -281q84 113 123 269h168q-50 -222 -207 -389h2q113 -147 158 -199h-213q-39 39 -60 66l-22 28 q-163 -119 -359 -119q-147 0 -230 64.5t-83 185.5zM281 311q-35 -194 165 -194q119 0 224 88h-2q-129 182 -205 325q-79 -42 -124 -92t-58 -127zM549 889q-11 -67 33 -193q78 45 127.5 90.5t58.5 104.5q10 54 -10.5 90.5t-75.5 36.5q-52 0 -88 -35.5t-45 -93.5z" />
<glyph horiz-adv-x="1075" d="M127 0l184 1077q14 79 31 134.5t45 97.5t61.5 67t86 40t112.5 20.5t146 5.5q208 0 291 -44t83 -171q0 -51 -12 -121q-20 -112 -53.5 -173t-82.5 -88t-140 -44h4l-4 -33h-5q112 -21 160.5 -67t48.5 -150q0 -67 -14 -141q-42 -230 -163 -320t-371 -90h-113l22 133 q88 0 136 19q155 6 215.5 60t85.5 204q12 65 12 108q0 48 -14 81t-38.5 53t-71 30t-97 13.5t-131.5 3.5l22 139q158 0 237 20t114 66.5t51 144.5q10 51 10 103q0 81 -46 105t-169 24q-51 0 -85.5 -3.5t-61.5 -15t-43.5 -27t-29.5 -45t-21 -62t-17 -85.5l-185 -1069h-190z " />
<glyph horiz-adv-x="819" d="M61 12l64 152q126 -43 244 -43q220 0 249 164q5 31 -2.5 57.5t-20.5 45t-41.5 39.5t-49.5 33t-60 32q-32 17 -50 26.5t-47.5 27.5t-47 33t-38.5 37.5t-32.5 45t-19.5 52t-8 62.5t6 60q27 135 122.5 212t239.5 95h-4l33 188h150l-33 -182q116 -3 217 -25l-51 -147 q-34 10 -103.5 18.5t-122.5 8.5q-225 0 -256 -158q-5 -30 2 -56.5t20.5 -45.5t40 -38.5t48.5 -32.5t57 -32q3 -1 4 -2q44 -23 70 -37.5t63 -42t57 -54t35 -65.5t15 -84q0 -29 -6 -59q-46 -256 -311 -307h4l-33 -180h-148l29 165q-149 0 -285 37z" />
<glyph horiz-adv-x="794" d="M156 268q0 113 30 295q24 141 54 239t66.5 164.5t88 105t111 56t143.5 21.5l33 184h149l-32 -184q75 -5 145 -23l-39 -141q-90 23 -194 23q-101 0 -161 -35.5t-103.5 -132t-77.5 -281.5q-27 -162 -27 -237q0 -64 12.5 -104t42 -62t68 -29.5t100.5 -7.5q84 0 201 26 l-6 -145q-82 -18 -178 -23q-4 -27 -14.5 -84.5t-14.5 -85.5h-150l31 170q-75 4 -125 19t-85.5 48t-51.5 87.5t-16 136.5z" />
<glyph horiz-adv-x="892" d="M57 0l25 141q36 17 63 37t46.5 46.5t32.5 50.5t24.5 63.5t18 71t16.5 86.5h-152l23 135h155l25 137q40 211 134.5 297t287.5 86q71 0 145.5 -20t108.5 -44l-86 -122q-30 17 -86 29t-101 12q-95 0 -145.5 -55t-75.5 -187q-3 -21 -11 -66t-11 -67h350l-25 -135h-352 q-46 -264 -180 -349h579l-22 -147h-787z" />
<glyph horiz-adv-x="872" d="M96 209l25 129h280q1 15 5.5 48.5t5.5 49.5l-11 33h-258l21 127h198l-45 147l-118 383h188l156 -518q55 85 165.5 259t165.5 259h185q-32 -51 -93 -142.5t-81 -123.5l-172 -264h202l-22 -127h-264q-26 -47 -41 -119q0 -2 -1 -6t-1 -6h284l-22 -129h-289l-33 -209h-182 l33 209h-281z" />
<glyph horiz-adv-x="485" d="M152 0l45 262h178l-43 -262h-180zM246 387l76 739h229l-180 -739h-125z" />
<glyph horiz-adv-x="622" d="M174 0l45 262h178l-43 -262h-180zM211 983v131q46 12 128 24.5t136 12.5q141 0 206.5 -62.5t45.5 -177.5q-12 -69 -52.5 -132.5t-107.5 -139.5q-42 -50 -66.5 -81.5t-51 -79.5t-35.5 -91h-160q8 43 23.5 81.5t44 82t42 62t52.5 67.5t57 73.5t39 64t27 73.5 q8 58 -21.5 88.5t-99.5 30.5q-89 0 -207 -27z" />
<glyph horiz-adv-x="681" d="M121 479l18 113h574l-19 -113h-573zM184 848l25 53q25 110 95.5 163t193.5 73q11 2 33.5 8t35.5 8q2 11 8.5 35t8.5 35q9 57 -8 80t-68 28q-41 0 -91.5 -7.5t-70.5 -16.5l-8 75q126 29 280 29q89 -19 132 -70.5t32 -152.5l-51 -502l-156 6q5 50 5 62q-70 -41 -177 -41 l-14 -37q-97 0 -151 37.5t-54 134.5zM371 930q-7 -63 18.5 -88t77.5 -27q62 12 123 70h-2l26 217q-130 -14 -176.5 -45t-66.5 -127z" />
<glyph horiz-adv-x="757" d="M158 479l18 113h612l-18 -113h-612zM231 895q0 52 17 152q20 114 50 186t77.5 111.5t104.5 54t143 14.5q137 0 199.5 -45.5t62.5 -169.5q0 -51 -17 -151q-20 -113 -50 -185.5t-77.5 -112.5t-104 -54.5t-140.5 -14.5q-139 0 -202 45t-63 170zM389 909q0 -61 28 -82.5 t101 -21.5q94 0 129 45.5t62 193.5q16 91 16 138q0 64 -27.5 85t-97.5 21q-50 0 -78.5 -8t-51 -36t-36.5 -73t-28 -127q-17 -97 -17 -135z" />
<glyph horiz-adv-x="622" d="M106 215q12 69 52.5 132.5t107.5 139.5q43 51 67 82t51 79t36 91h160q-8 -43 -23.5 -81.5t-44 -82t-42 -62t-52.5 -67.5q-40 -51 -57 -74t-38.5 -62.5t-27.5 -73.5q-8 -58 21.5 -88.5t99.5 -30.5q93 0 207 26v-131q-46 -12 -128.5 -24.5t-136.5 -12.5q-141 0 -206.5 62.5 t-45.5 177.5zM436 864l43 262h180l-45 -262h-178z" />
<glyph horiz-adv-x="526" d="M344 1126h180l43 -262h-178zM438 739h125l180 -739h-229z" />
<glyph horiz-adv-x="911" d="M6 0l518 1126h244l135 -1126h-186l-37 313h-352q-21 -51 -68.5 -156.5t-69.5 -156.5h-184zM383 446h287l-58 512zM465 1413h205l63 -209h-162z" />
<glyph horiz-adv-x="911" d="M6 0l518 1126h244l135 -1126h-186l-37 313h-352q-21 -51 -68.5 -156.5t-69.5 -156.5h-184zM383 446h287l-58 512zM575 1204l138 209h205l-177 -209h-166z" />
<glyph horiz-adv-x="911" d="M6 0l518 1126h244l135 -1126h-186l-37 313h-352q-21 -51 -68.5 -156.5t-69.5 -156.5h-184zM383 446h287l-58 512zM430 1204l160 209h209l90 -209h-123l-88 113l-125 -113h-123z" />
<glyph horiz-adv-x="911" d="M6 0l518 1126h244l135 -1126h-186l-37 313h-352q-21 -51 -68.5 -156.5t-69.5 -156.5h-184zM383 446h287l-58 512zM393 1284q22 41 76.5 84t122.5 43q51 0 131 -41q64 -33 90 -33q46 0 105 82l55 -63q-16 -38 -72 -84.5t-125 -46.5q-52 0 -132 41q-5 3 -7 4 q-6 3 -17.5 9.5t-18 9.5t-15.5 7t-16.5 5.5t-14.5 1.5q-43 0 -106 -80z" />
<glyph horiz-adv-x="911" d="M6 0l518 1126h244l135 -1126h-186l-37 313h-352q-21 -51 -68.5 -156.5t-69.5 -156.5h-184zM383 446h287l-58 512zM442 1212l33 191h156l-33 -191h-156zM729 1212l33 191h156l-31 -191h-158z" />
<glyph horiz-adv-x="911" d="M6 0l518 1126h244l135 -1126h-186l-37 313h-352q-21 -51 -68.5 -156.5t-69.5 -156.5h-184zM383 446h287l-58 512zM406 1184q19 105 103.5 178.5t188.5 73.5t165 -74t42 -178t-104 -177t-189 -73t-164.5 73t-41.5 177zM543 1184q-8 -52 17.5 -85.5t74.5 -33.5t85 34t44 85 q9 53 -15 84.5t-75 31.5q-48 0 -85 -32t-46 -84z" />
<glyph horiz-adv-x="790" d="M154 260q0 109 32 303q22 122 47 212t59 156t72.5 108t92.5 67t113.5 35t140.5 10q126 0 223 -27l-37 -141q-97 25 -190 25q-63 0 -104 -9t-78.5 -35t-63 -77t-48.5 -129.5t-44 -198.5q-27 -153 -27 -242q0 -63 12 -102t41 -60t67 -28.5t99 -7.5q101 0 199 24h4 q-4 -49 -8 -143q-118 -25 -252 -25q-97 0 -158 11t-107 41.5t-65.5 87t-19.5 145.5zM279 -307q6 9 20 37l10 20q56 -14 74 -14q63 0 70 47q4 26 -17.5 36.5t-79.5 12.5q-21 8 -32 16q44 66 147 152h135q-63 -47 -92 -90h-2q5 -3 10 -4.5t9 -2t6 -1.5q45 -13 68 -31t22 -57 q0 -5 -2 -16.5t-2 -16.5q-33 -117 -220 -117q-32 0 -69 9t-55 20z" />
<glyph horiz-adv-x="847" d="M121 0l192 1126h648l-23 -143h-467l-57 -338h446l-22 -139h-449l-61 -365h467l-25 -141h-649zM506 1413h205l63 -209h-162z" />
<glyph horiz-adv-x="847" d="M121 0l192 1126h648l-23 -143h-467l-57 -338h446l-22 -139h-449l-61 -365h467l-25 -141h-649zM551 1204l137 209h205l-176 -209h-166z" />
<glyph horiz-adv-x="847" d="M121 0l192 1126h648l-23 -143h-467l-57 -338h446l-22 -139h-449l-61 -365h467l-25 -141h-649zM430 1204l160 209h209l90 -209h-123l-88 113l-125 -113h-123z" />
<glyph horiz-adv-x="847" d="M121 0l192 1126h648l-23 -143h-467l-57 -338h446l-22 -139h-449l-61 -365h467l-25 -141h-649zM442 1212l33 191h156l-33 -191h-156zM729 1212l33 191h156l-31 -191h-158z" />
<glyph horiz-adv-x="434" d="M125 0l192 1126h185l-193 -1126h-184zM238 1413h204l64 -209h-162z" />
<glyph horiz-adv-x="434" d="M125 0l192 1126h185l-193 -1126h-184zM336 1204l137 209h205l-176 -209h-166z" />
<glyph horiz-adv-x="434" d="M125 0l192 1126h185l-193 -1126h-184zM195 1204l159 209h209l90 -209h-123l-88 113l-125 -113h-122z" />
<glyph horiz-adv-x="434" d="M125 0l192 1126h185l-193 -1126h-184zM205 1212l33 191h155l-33 -191h-155zM492 1212l32 191h156l-31 -191h-157z" />
<glyph horiz-adv-x="1026" d="M121 0l192 1126h228l231 -888l154 888h172l-193 -1126h-225l-238 887l-151 -887h-170zM449 1284q22 41 76 84t122 43q51 0 131 -41q64 -33 90 -33q46 0 105 82l55 -63q-16 -38 -72 -84.5t-125 -46.5q-52 0 -132 41q-5 3 -7 4q-6 3 -17.5 9.5t-18 9.5t-15.5 7t-16.5 5.5 t-14.5 1.5q-43 0 -106 -80z" />
<glyph horiz-adv-x="1038" d="M156 250q0 100 34 313q22 121 43 204t51.5 152.5t67 111t90 70t119 39.5t156.5 11q200 0 279 -59t79 -220q0 -94 -35 -309q-22 -121 -43.5 -204t-52 -152.5t-67 -111t-90 -70t-119 -39.5t-156.5 -11q-200 0 -278 58t-78 217zM344 287q0 -100 42.5 -134t152.5 -34 q55 0 91.5 6t68 26t51 48t39 83t33.5 119.5t32 167.5q35 187 35 277q0 99 -43 130.5t-156 31.5q-56 0 -91.5 -5t-67 -24t-50.5 -46t-38 -80.5t-32.5 -117t-31.5 -166.5q-35 -190 -35 -282zM543 1413h205l63 -209h-162z" />
<glyph horiz-adv-x="1038" d="M156 250q0 100 34 313q22 121 43 204t51.5 152.5t67 111t90 70t119 39.5t156.5 11q200 0 279 -59t79 -220q0 -94 -35 -309q-22 -121 -43.5 -204t-52 -152.5t-67 -111t-90 -70t-119 -39.5t-156.5 -11q-200 0 -278 58t-78 217zM344 287q0 -100 42.5 -134t152.5 -34 q55 0 91.5 6t68 26t51 48t39 83t33.5 119.5t32 167.5q35 187 35 277q0 99 -43 130.5t-156 31.5q-56 0 -91.5 -5t-67 -24t-50.5 -46t-38 -80.5t-32.5 -117t-31.5 -166.5q-35 -190 -35 -282zM629 1204l137 209h205l-176 -209h-166z" />
<glyph horiz-adv-x="1038" d="M156 250q0 100 34 313q22 121 43 204t51.5 152.5t67 111t90 70t119 39.5t156.5 11q200 0 279 -59t79 -220q0 -94 -35 -309q-22 -121 -43.5 -204t-52 -152.5t-67 -111t-90 -70t-119 -39.5t-156.5 -11q-200 0 -278 58t-78 217zM344 287q0 -100 42.5 -134t152.5 -34 q55 0 91.5 6t68 26t51 48t39 83t33.5 119.5t32 167.5q35 187 35 277q0 99 -43 130.5t-156 31.5q-56 0 -91.5 -5t-67 -24t-50.5 -46t-38 -80.5t-32.5 -117t-31.5 -166.5q-35 -190 -35 -282zM496 1204l159 209h209l90 -209h-123l-88 113l-125 -113h-122z" />
<glyph horiz-adv-x="1038" d="M156 250q0 100 34 313q22 121 43 204t51.5 152.5t67 111t90 70t119 39.5t156.5 11q200 0 279 -59t79 -220q0 -94 -35 -309q-22 -121 -43.5 -204t-52 -152.5t-67 -111t-90 -70t-119 -39.5t-156.5 -11q-200 0 -278 58t-78 217zM344 287q0 -100 42.5 -134t152.5 -34 q55 0 91.5 6t68 26t51 48t39 83t33.5 119.5t32 167.5q35 187 35 277q0 99 -43 130.5t-156 31.5q-56 0 -91.5 -5t-67 -24t-50.5 -46t-38 -80.5t-32.5 -117t-31.5 -166.5q-35 -190 -35 -282zM455 1284q22 41 76 84t122 43q51 0 131 -41q64 -33 90 -33q46 0 105 82l55 -63 q-16 -38 -71.5 -84.5t-124.5 -46.5q-52 0 -140 45q-6 3 -17.5 9.5t-18 9.5t-15.5 7t-16.5 5.5t-14.5 1.5q-43 0 -106 -80z" />
<glyph horiz-adv-x="1038" d="M156 250q0 100 34 313q22 121 43 204t51.5 152.5t67 111t90 70t119 39.5t156.5 11q200 0 279 -59t79 -220q0 -94 -35 -309q-22 -121 -43.5 -204t-52 -152.5t-67 -111t-90 -70t-119 -39.5t-156.5 -11q-200 0 -278 58t-78 217zM344 287q0 -100 42.5 -134t152.5 -34 q55 0 91.5 6t68 26t51 48t39 83t33.5 119.5t32 167.5q35 187 35 277q0 99 -43 130.5t-156 31.5q-56 0 -91.5 -5t-67 -24t-50.5 -46t-38 -80.5t-32.5 -117t-31.5 -166.5q-35 -190 -35 -282zM506 1212l33 191h155l-32 -191h-156zM793 1212l32 191h156l-31 -191h-157z" />
<glyph horiz-adv-x="1013" d="M166 223q0 59 18 172l125 731h180l-127 -733q-10 -62 -10 -102q0 -98 48 -136t149 -38q86 0 192 14h-4q28 166 85.5 497.5t84.5 497.5h178l-190 -1106q-69 -19 -185 -32t-180 -13q-201 0 -282.5 51.5t-81.5 196.5zM549 1413h205l63 -209h-162z" />
<glyph horiz-adv-x="1013" d="M166 223q0 59 18 172l125 731h180l-127 -733q-10 -62 -10 -102q0 -98 48 -136t149 -38q86 0 192 14h-4q28 166 85.5 497.5t84.5 497.5h178l-190 -1106q-69 -19 -185 -32t-180 -13q-201 0 -282.5 51.5t-81.5 196.5zM606 1204l137 209h205l-176 -209h-166z" />
<glyph horiz-adv-x="1013" d="M166 223q0 59 18 172l125 731h180l-127 -733q-10 -62 -10 -102q0 -98 48 -136t149 -38q86 0 192 14h-4q28 166 85.5 497.5t84.5 497.5h178l-190 -1106q-69 -19 -185 -32t-180 -13q-201 0 -282.5 51.5t-81.5 196.5zM483 1204l160 209h209l90 -209h-123l-88 113l-125 -113 h-123z" />
<glyph horiz-adv-x="1013" d="M166 223q0 59 18 172l125 731h180l-127 -733q-10 -62 -10 -102q0 -98 48 -136t149 -38q86 0 192 14h-4q28 166 85.5 497.5t84.5 497.5h178l-190 -1106q-69 -19 -185 -32t-180 -13q-201 0 -282.5 51.5t-81.5 196.5zM494 1212l32 191h156l-33 -191h-155zM780 1212l33 191 h156l-31 -191h-158z" />
<glyph horiz-adv-x="872" d="M199 1126h188l156 -518q55 85 165.5 259t165.5 259h185l-459 -704q-65 -379 -72 -422h-182l72 422q-35 114 -109.5 352t-109.5 352zM526 1204l138 209h204l-176 -209h-166z" />
<glyph horiz-adv-x="872" d="M199 1126h188l156 -518q55 85 165.5 259t165.5 259h185l-459 -704q-65 -379 -72 -422h-182l72 422q-35 114 -109.5 352t-109.5 352zM424 1212l33 191h155l-32 -191h-156zM711 1212l32 191h156l-31 -191h-157z" />
<glyph horiz-adv-x="1345" d="M184 633q0 49 17 153q34 197 100 268.5t219 71.5q119 0 169 -41.5t50 -144.5q0 -56 -16 -154q-34 -196 -100.5 -268t-219.5 -72q-118 0 -168.5 42t-50.5 145zM338 664q0 -49 19.5 -66.5t68.5 -17.5q69 0 95.5 37t47.5 169q17 93 17 127q0 48 -19.5 64t-68.5 16 q-68 0 -96 -39t-50 -168q-14 -74 -14 -122zM340 0l721 1126h149l-723 -1126h-147zM797 164q0 59 16 153q33 188 102.5 264t217.5 76q118 0 167.5 -41t49.5 -143q0 -52 -17 -156q-34 -196 -99.5 -268t-217.5 -72q-118 0 -168.5 42t-50.5 145zM948 197q0 -52 19 -69t71 -17 q36 0 56 6.5t37 29.5t27.5 61t23.5 109q14 77 14 125q0 49 -19 64.5t-69 15.5q-70 0 -97 -37t-50 -168q-13 -83 -13 -120z" />
<glyph horiz-adv-x="643" d="M-4 0l696 1126h148l-697 -1126h-147z" />
<glyph horiz-adv-x="643" d="M188 1126h148l311 -1126h-147z" />
<glyph horiz-adv-x="1587" d="M156 313q0 77 16 183q60 347 282.5 542t561.5 195q283 0 438.5 -131t155.5 -383q0 -61 -15 -160q-42 -219 -161 -353t-265 -134q-131 0 -157 90q-50 -44 -120 -73.5t-147 -29.5q-111 0 -167 42t-56 143q0 42 10 94q12 69 35 115.5t55 77t86 46t116 21.5t157 6h37 q6 0 17 -1t18 -1l14 80q13 77 -16 106t-117 29q-65 0 -148 -14t-129 -29l-12 117q40 18 134.5 32.5t187.5 14.5q138 0 205 -40t67 -142q0 -32 -6 -70l-70 -387q-17 -121 43 -121q68 0 127 99t88 264q15 85 15 161q0 400 -447 400q-256 0 -421.5 -158t-223.5 -446 q-16 -94 -16 -168q0 -217 117.5 -323.5t332.5 -106.5q72 0 158.5 15.5t150.5 43.5l15 -115q-69 -33 -164.5 -51t-189.5 -18q-279 0 -435.5 135.5t-156.5 402.5zM680 272q0 -56 28.5 -76t96.5 -20q63 0 105 13.5t83 43.5h-2l45 263h-92q-61 0 -96.5 -3t-66 -11t-47 -26 t-27.5 -45t-19 -71q-8 -54 -8 -68z" />
<glyph horiz-adv-x="466" d="M182 332q0 105 21 231q35 201 106 348.5t201 339.5h154q-60 -105 -90 -161t-73.5 -149.5t-71.5 -184.5t-46 -193q-23 -132 -23 -254q0 -112 16.5 -210t49.5 -228h-156q-43 127 -65.5 234t-22.5 227z" />
<glyph horiz-adv-x="466" d="M-4 -129q113 187 180 339.5t100 352.5q23 132 23 248q0 77 -10 159.5t-20.5 133.5t-32.5 147h151q45 -138 67.5 -241t22.5 -222q0 -108 -20 -225q-35 -197 -110.5 -356t-196.5 -336h-154z" />
<glyph horiz-adv-x="608" d="M164 428l33 176q94 31 138.5 87.5t65.5 178.5l13 70q32 168 130 243.5t257 88.5l-21 -115q-84 -14 -127.5 -60t-62.5 -155l-12 -70q-26 -154 -90.5 -233t-178.5 -123q84 -35 122 -81.5t38 -135.5q0 -39 -12 -117l-11 -71q-8 -41 -8 -78q0 -65 30 -95.5t95 -41.5l-18 -115 q-67 6 -116 20t-88 41t-59 72t-20 109q0 46 8 90l13 71q10 58 10 92q0 63 -29 94t-100 58z" />
<glyph horiz-adv-x="608" d="M-10 -219l18 115q83 14 127.5 60t63.5 155l12 71q14 79 36 134.5t56.5 93t73.5 61t98 45.5q-80 36 -118 88.5t-38 143.5q0 48 13 124l12 70q6 40 6 74q0 68 -30 99t-95 42l21 115q136 -11 206 -65t70 -173q0 -47 -8 -94l-12 -70q-10 -55 -10 -94q0 -69 30.5 -107.5 t98.5 -64.5l-33 -176q-68 -23 -103 -45t-61 -69t-41 -130l-12 -71q-32 -164 -129.5 -241.5t-251.5 -90.5z" />
<glyph horiz-adv-x="598" d="M150 -205l256 1473h395l-21 -111h-223q-34 -197 -106 -617.5t-109 -633.5h221l-16 -111h-397z" />
<glyph horiz-adv-x="598" d="M-18 -205l16 111h217l217 1251h-217l21 111h395l-256 -1473h-393z" />
<glyph horiz-adv-x="727" d="M180 842l68 141l217 -106q3 42 11 130t11 130h148l-70 -263q44 18 132 56.5l120 52.5l17 -141l-261 -58h5q22 -33 66.5 -98t66.5 -98l-136 -78l-90 215l-161 -215l-109 80l211 194z" />
<glyph horiz-adv-x="356" d="M233 879l35 204l142 226h94l-45 -90l-70 -136h76l-35 -204h-197z" />
<glyph horiz-adv-x="356" d="M199 696l114 226h-73l32 204h197l-33 -204l-145 -226h-92z" />
<glyph horiz-adv-x="671" d="M233 879l35 204l142 226h94l-45 -90l-70 -136h76l-35 -204h-197zM547 879l35 204l141 226h94l-45 -90l-70 -136h76l-35 -204h-196z" />
<glyph horiz-adv-x="671" d="M199 696l114 226h-73l32 204h197l-33 -204l-145 -226h-92zM512 696l115 226h-74l33 204h196l-32 -204l-146 -226h-92z" />
<glyph horiz-adv-x="1036" d="M152 254q0 100 34 309q22 121 43 204t51.5 152.5t67.5 111t91 70t120 39.5t158 11q201 0 280.5 -59t79.5 -220q0 -94 -35 -309q-22 -121 -43.5 -204t-52 -152.5t-67 -111t-90.5 -70t-120 -39.5t-157 -11q-201 0 -280.5 59.5t-79.5 219.5zM340 295q0 -104 43.5 -139 t155.5 -35q53 0 90 6.5t68.5 27t52 50t40 83t34.5 118t32 163.5q33 196 33 271q0 100 -43 132t-156 32q-54 0 -90.5 -6t-68.5 -25t-53 -47t-40.5 -79.5t-33.5 -116t-31 -161.5q-33 -196 -33 -274z" />
<glyph horiz-adv-x="663" d="M172 899l365 227h178l-193 -1126h-188l158 924l-269 -138z" />
<glyph horiz-adv-x="952" d="M63 0l25 141q263 200 449 351q218 180 243 327q15 87 -35 136t-151 49q-152 0 -318 -56l-18 144q167 59 401 59q149 0 237.5 -64t88.5 -190q0 -33 -6 -70q-20 -118 -104.5 -219t-241.5 -221l-314 -244h576l-25 -143h-807z" />
<glyph horiz-adv-x="921" d="M29 27l73 133q113 -45 277 -45q149 0 226.5 47.5t101.5 165.5q6 30 6 59q0 85 -60 111t-202 26h-172l22 133h137q68 0 119 8t96 28t72.5 59t36.5 96q18 98 -34.5 131t-180.5 33q-170 0 -289 -39l-2 139q136 39 342 39q183 0 270.5 -50.5t87.5 -162.5q0 -7 -6 -61 q-21 -103 -78 -168.5t-131 -83.5h4l-4 -31h-4q76 -14 119 -53t43 -129q0 -41 -8 -82q-17 -98 -59.5 -167.5t-111.5 -110t-156.5 -59t-201.5 -18.5q-200 0 -333 52z" />
<glyph horiz-adv-x="946" d="M76 266l26 150l650 710h235l-125 -727h123l-24 -133h-121l-45 -266h-179l43 266h-583zM252 399h432l98 576q-87 -95 -265 -288t-265 -288z" />
<glyph horiz-adv-x="931" d="M55 51l78 139q50 -34 134.5 -53.5t164.5 -19.5q138 0 210.5 55t94.5 178q4 20 4 60q0 88 -52 124.5t-157 36.5q-131 0 -233 -39l-106 46l188 548h588l-23 -139h-452l-105 -311q94 35 213 35q159 0 242.5 -59.5t83.5 -196.5q0 -49 -8 -93q-37 -208 -162.5 -297.5 t-347.5 -89.5q-97 0 -197 20t-158 56z" />
<glyph horiz-adv-x="985" d="M156 274q0 115 26 265q42 228 113.5 361t180.5 192t276 59q168 0 303 -51l-80 -135q-42 19 -114.5 32t-143.5 13q-55 0 -93.5 -7.5t-76 -29.5t-64.5 -61.5t-51.5 -102.5t-44.5 -154q117 54 279 54q166 0 242.5 -51.5t76.5 -180.5q0 -50 -10 -115q-38 -214 -155 -300.5 t-331 -86.5q-89 0 -146.5 12t-102 44t-64.5 91.5t-20 151.5zM334 297q0 -105 42.5 -143.5t149.5 -38.5q126 0 187 52.5t86 186.5q8 41 8 80q0 83 -50 113.5t-167 30.5q-135 0 -232 -46h2q-26 -159 -26 -235z" />
<glyph horiz-adv-x="915" d="M158 0l678 985h-637l24 141h821l-22 -131l-651 -995h-213z" />
<glyph horiz-adv-x="1007" d="M131 221q0 31 6 66q30 173 232 264q1 1 33 19.5t47 25.5q-47 18 -81 38.5t-64.5 51.5t-42 75t-1.5 99q25 142 137 216.5t308 74.5t278.5 -71.5t60.5 -207.5q-11 -60 -40 -106.5t-72 -77t-84 -49t-94 -33.5q4 -3 30 -16q51 -25 78.5 -41.5t58 -42.5t43.5 -58.5t13 -74.5 q0 -27 -6 -62q-28 -171 -152.5 -253.5t-324.5 -82.5q-174 0 -268.5 62t-94.5 184zM309 297q-17 -95 40.5 -138.5t176.5 -43.5q108 0 181.5 45t89.5 139q10 56 -6.5 97t-61.5 67.5t-81 39.5t-99 29q-98 -42 -161 -96.5t-79 -138.5zM434 858q-12 -71 47 -117.5t178 -87.5 q190 74 211 203q15 84 -33 121t-157 37q-110 0 -170.5 -37.5t-75.5 -118.5z" />
<glyph horiz-adv-x="985" d="M125 25q4 13 12 27t18.5 30.5t16.5 26.5l29 51q95 -45 262 -45q73 0 119.5 13t88 51.5t69.5 110.5t53 189q-100 -49 -277 -49q-168 0 -245.5 54t-77.5 180q0 40 12 114q40 208 155.5 290.5t323.5 82.5q91 0 151 -12.5t104.5 -45t64.5 -90.5t20 -147q0 -93 -29 -272 q-32 -183 -74.5 -298t-110 -185.5t-156.5 -98t-222 -27.5q-173 0 -307 50zM373 700q0 -82 48.5 -110.5t166.5 -28.5q139 0 231 43h-2q0 4 2 12.5t2 12.5q23 141 23 207q0 101 -42.5 137.5t-150.5 36.5q-123 0 -184 -52.5t-86 -179.5q-8 -58 -8 -78z" />
<glyph horiz-adv-x="1181" d="M178 299q0 138 45 408q22 126 43.5 220t47.5 170.5t52 129t63.5 91.5t74.5 61.5t92 36t109.5 18t132.5 4.5q74 0 125.5 -4.5t100.5 -17.5t80 -36.5t54.5 -61t34 -92t10.5 -128.5q0 -149 -43 -391q-28 -162 -57 -275.5t-68.5 -197t-81.5 -132.5t-106 -78.5t-133 -39 t-170 -9.5q-92 0 -151 6.5t-112 25.5t-82 55t-45 94t-16 143zM369 -147l4 16q7 23 28 76q88 0 351 -56q399 -88 614 -88q144 0 258 33l-27 -149q-102 -27 -225 -27q-112 0 -251.5 22.5t-230.5 45.5t-224 61h-1l-1 1h-1h-1h-1l-1 1h-1h-1l-1 1h-1h-1h-1l-1 1h-1h-1h-1l-1 1 h-1h-1l-1 1h-1h-1h-1l-1 1h-1h-1l-1 1h-1q-210 56 -269 58zM373 334q0 -47 5.5 -81.5t19.5 -58t31 -37.5t46 -21.5t59 -10t76 -2.5q64 0 106 7t82 29.5t66 60t52 105.5t46.5 158t43.5 224q41 249 41 360q0 74 -13 119t-45 67.5t-71 29.5t-105 7q-64 0 -106 -7t-82 -30 t-66 -60.5t-52.5 -105t-47 -157.5t-43.5 -223q-43 -258 -43 -373z" />
</font>
</defs>
</svg>
