<?xml version="1.0" standalone="no"?>
<!DOCTYPE svg PUBLIC "-//W3C//DTD SVG 1.1//EN" "http://www.w3.org/Graphics/SVG/1.1/DTD/svg11.dtd" >
<svg xmlns="http://www.w3.org/2000/svg" xmlns:xlink="http://www.w3.org/1999/xlink" version="1.1">
<metadata></metadata>
<defs>
<font id="bt_onedemibold_italic" horiz-adv-x="1087" >
<font-face units-per-em="2048" ascent="1536" descent="-512" />
<missing-glyph horiz-adv-x="409" />
<glyph unicode="&#xfb01;" horiz-adv-x="1140" d="M88 0l160 934h-148l33 192h146l10 52q12 67 35 114t55.5 77.5t83.5 47t109 23t141 6.5q186 0 241 -16l-28 -164q-17 3 -94.5 7.5t-112.5 4.5q-98 0 -137.5 -24.5t-51.5 -96.5l-6 -31h588l-190 -1126h-244l158 934h-344q-12 -72 -79 -467.5t-79 -466.5h-246z" />
<glyph unicode="&#xfb02;" horiz-adv-x="1142" d="M88 0l160 934h-148l33 192h146q0 4 12 64q12 64 34 109.5t51 73.5t71.5 44.5t88 22.5t107.5 6q117 0 172 -16l-29 -164q-60 12 -137 12q-63 0 -84.5 -23.5t-34.5 -89.5l-6 -39h240l-33 -192h-239q-12 -72 -79 -467.5t-79 -466.5h-246zM676 0l239 1413l250 25l-243 -1438 h-246z" />
<glyph unicode="&#xfb03;" horiz-adv-x="1740" d="M94 0l160 934h-148l33 192h146q0 4 12 64q14 79 43 130.5t76 78.5t100.5 37t130.5 10q119 0 174 -16l-28 -164q-69 12 -138 12q-63 0 -85 -23.5t-33 -89.5l-7 -39h344l11 52q30 157 124 212.5t298 55.5q189 0 241 -16l-26 -164q-16 4 -92 8t-115 4q-95 0 -136.5 -25.5 t-54.5 -95.5q0 -2 -3 -15.5t-3 -15.5h588l-190 -1126h-244l158 934h-343q-8 -46 -69.5 -404.5t-89.5 -529.5h-244l158 934h-344l-158 -934h-246z" />
<glyph unicode="&#xfb04;" horiz-adv-x="1742" d="M94 0l160 934h-148l33 192h146q0 4 12 64q14 79 43 130.5t76 78.5t100.5 37t130.5 10q119 0 174 -16l-28 -164q-69 12 -138 12q-63 0 -85 -23.5t-33 -89.5l-7 -39h344q0 4 2.5 17t6.5 29t4 18q14 79 42.5 130.5t75 78.5t100.5 37t132 10q119 0 174 -16l-29 -164 q-46 12 -137 12q-62 0 -85 -24.5t-36 -88.5q0 -2 -3 -19.5t-3 -19.5h240l-33 -192h-238q-8 -46 -69.5 -404.5t-89.5 -529.5h-244l158 934h-344l-158 -934h-246zM1270 0l241 1413l250 25l-245 -1438h-246z" />
<glyph horiz-adv-x="0" />
<glyph horiz-adv-x="682" />
<glyph horiz-adv-x="0" />
<glyph horiz-adv-x="0" />
<glyph unicode="&#xd;" horiz-adv-x="409" />
<glyph unicode=" "  horiz-adv-x="409" />
<glyph unicode="&#x09;" horiz-adv-x="409" />
<glyph unicode="&#xa0;" horiz-adv-x="409" />
<glyph unicode="!" horiz-adv-x="561" d="M68 0l47 287h235l-47 -287h-235zM178 426l98 987h299l-239 -987h-158z" />
<glyph unicode="&#x22;" horiz-adv-x="647" d="M152 967l75 446h187l-78 -446h-184zM449 967l75 446h187l-78 -446h-184z" />
<glyph unicode="#" horiz-adv-x="958" d="M45 455l41 135h160l59 229h-162l39 135h160l127 459h145l-125 -459h168l127 459h144l-125 -459h160l-41 -135h-160l-55 -229h157l-39 -135h-161l-121 -455h-146l123 455h-168l-123 -455h-145l123 455h-162zM391 590h170l57 229h-169z" />
<glyph unicode="$" horiz-adv-x="1009" d="M8 10l64 207q162 -49 284 -49q71 0 133.5 24.5t104 76.5t41.5 120q0 47 -24.5 90t-64 78t-87 69.5t-94.5 73t-86.5 80.5t-64 98.5t-24.5 120.5q0 173 108.5 283t281.5 141l24 152h205l-23 -137q135 -6 250 -29l-63 -195q-135 31 -260 31q-114 0 -188 -55t-74 -139 q0 -45 24 -87.5t62 -77t84 -70t92 -74.5t84 -82t62 -101t24 -123q0 -168 -103 -283.5t-260 -154.5l-33 -219h-204l32 196q-190 3 -307 35z" />
<glyph unicode="%" horiz-adv-x="1693" d="M135 877q0 57 17 157q38 217 121.5 298t271.5 81q149 0 219 -64t70 -196q0 -71 -15 -160q-18 -111 -47 -183.5t-77.5 -115.5t-112 -60.5t-156.5 -17.5q-149 0 -220 64.5t-71 196.5zM322 889q0 -57 27 -77.5t97 -20.5q96 0 129 41.5t58 181.5q14 74 14 127q0 56 -26.5 76 t-98.5 20q-95 0 -128 -41.5t-58 -181.5q-14 -93 -14 -125zM350 0l864 1413h199l-866 -1413h-197zM911 233q0 60 17 160q26 147 69 227t119 116t205 36q149 0 219 -64t70 -196q0 -56 -17 -160q-37 -214 -122 -295.5t-271 -81.5q-149 0 -219 64t-70 194zM1098 248 q0 -57 27 -77.5t98 -20.5q94 0 126.5 41t59.5 182q14 71 14 127q0 57 -27 76.5t-98 19.5q-50 0 -79.5 -8.5t-50.5 -35.5t-32.5 -66.5t-23.5 -112.5q-14 -93 -14 -125z" />
<glyph unicode="&#x26;" horiz-adv-x="1396" d="M37 301q0 89 25 163t62.5 123.5t98.5 93.5t113.5 70t128.5 56q-51 127 -51 262q0 171 107 270t302 99q147 0 226 -71.5t79 -190.5q0 -288 -376 -435q77 -153 202 -325q91 140 127 321h242q-67 -292 -250 -489l199 -248h-295q-61 65 -90 102q-202 -127 -443 -127 q-196 0 -301.5 84t-105.5 242zM307 346q0 -180 197 -180q142 0 272 86q-156 218 -252 414q-49 -27 -84.5 -55t-67.5 -66t-48.5 -88t-16.5 -111zM651 1061q0 -84 39 -182q219 102 219 270q0 98 -102 98q-66 0 -103 -37t-51 -112q-2 -12 -2 -37z" />
<glyph unicode="'" horiz-adv-x="348" d="M152 967l75 446h187l-78 -446h-184z" />
<glyph unicode="(" horiz-adv-x="509" d="M84 291q0 173 29.5 342t86.5 329t120 295t149 291h190q-348 -751 -348 -1366q0 -188 37 -469h-192q-72 323 -72 578z" />
<glyph unicode=")" horiz-adv-x="509" d="M-125 -287q74 161 130 305.5t108.5 318t80 358.5t27.5 370q0 193 -33 483h193q72 -356 72 -585q0 -171 -30 -341t-87 -329t-121 -295.5t-149 -284.5h-191z" />
<glyph unicode="*" horiz-adv-x="702" d="M129 1118l76 156l194 -96l19 235h164l-64 -237l225 98l19 -156l-234 -51l123 -178l-143 -90l-80 200l-143 -200l-125 90l192 178z" />
<glyph unicode="+" d="M145 635l31 174h318l61 373h186l-61 -373h317l-28 -174h-320l-65 -375h-185l66 375h-320z" />
<glyph unicode="," horiz-adv-x="389" d="M-76 -262l137 262h-92l43 254h258l-43 -254l-180 -262h-123z" />
<glyph unicode="-" horiz-adv-x="507" d="M31 508l30 178h428l-30 -178h-428z" />
<glyph unicode="." horiz-adv-x="389" d="M-31 0l43 254h258l-43 -254h-258z" />
<glyph unicode="/" horiz-adv-x="595" d="M-92 -20l657 1454h178l-659 -1454h-176z" />
<glyph unicode="0" d="M53 311q0 160 45 418q21 124 40 213.5t43.5 165.5t47.5 125.5t58.5 88.5t70.5 60t88.5 34.5t108 17.5t133.5 4q216 0 305.5 -71.5t89.5 -264.5q0 -148 -47 -418q-28 -158 -53.5 -264t-61 -189t-74.5 -130t-99 -77t-128 -39.5t-169 -9.5q-110 0 -182 15t-122.5 53t-72 103 t-21.5 165zM291 322q0 -99 39.5 -128.5t146.5 -29.5q56 0 90 5t67 27t51.5 53.5t39.5 97.5t36.5 145t37.5 210q47 272 47 379q0 54 -9.5 86t-33 49.5t-55 23t-84.5 5.5q-42 0 -70.5 -3t-56.5 -14.5t-46 -26.5t-36.5 -47t-31 -67.5t-27.5 -96.5t-27 -125.5t-29 -162.5 q-49 -274 -49 -380z" />
<glyph unicode="1" d="M90 0l31 193h274l164 952l-274 -156l-49 152l387 272h225l-209 -1220h242l-31 -193h-760z" />
<glyph unicode="2" d="M-2 0l31 190l444 449q155 157 223 258t68 184q0 70 -50 109t-147 39q-79 0 -169.5 -21t-137.5 -39l-16 203q187 66 393 66q191 0 298 -86.5t107 -233.5q0 -133 -68 -244t-267 -309l-375 -372h569l-33 -193h-870z" />
<glyph unicode="3" d="M12 33l74 194q53 -24 137.5 -43.5t159.5 -19.5q154 0 240 87.5t86 242.5q0 186 -260 186q-76 0 -103 -6l-31 133l428 410h-512l33 196h801l-29 -176l-405 -387q141 -14 232 -97.5t91 -228.5q0 -48 -8 -92q-77 -457 -575 -457q-217 0 -359 58z" />
<glyph unicode="4" d="M2 311l31 174l749 928h273l-158 -924h111l-29 -178h-113l-51 -311h-233l51 311h-631zM254 489h410l112 658z" />
<glyph unicode="5" horiz-adv-x="1062" d="M-10 33l80 194q176 -63 315 -63q137 0 215.5 66.5t104.5 207.5q6 34 6 66q0 99 -63.5 137.5t-180.5 38.5q-57 0 -119 -10.5t-82 -18.5l-106 62l178 700h729l-33 -192h-530l-92 -367q66 16 149 16q393 0 393 -338q0 -41 -10 -106q-39 -234 -180 -342.5t-383 -108.5 q-113 0 -224 16t-167 42z" />
<glyph unicode="6" horiz-adv-x="1071" d="M70 332q0 140 41 368q27 157 59.5 273t75.5 198t90.5 134t112.5 81.5t133.5 40.5t162.5 11q90 0 187 -14t155 -33l-61 -191q-170 45 -307 45q-69 0 -114.5 -14.5t-88.5 -58t-75.5 -126t-61.5 -215.5q98 64 268 64q179 0 265.5 -72t86.5 -225q0 -56 -12 -133 q-21 -124 -55 -211.5t-76.5 -141.5t-104 -84.5t-126 -41.5t-154.5 -11q-214 0 -307.5 77t-93.5 280zM311 348q0 -107 39 -145.5t137 -38.5q122 0 175 63t83 234q13 93 13 108q0 87 -45.5 119.5t-155.5 32.5q-52 0 -117.5 -14.5t-89.5 -30.5l-10 -64q-29 -185 -29 -264z" />
<glyph unicode="7" d="M100 0l738 1217h-645l34 196h887l-27 -168l-722 -1245h-265z" />
<glyph unicode="8" d="M29 283q0 87 19 156.5t49.5 116t75.5 81t89.5 54t99.5 32.5l7 33q-94 25 -145.5 95t-51.5 171q0 416 522 416q200 0 304 -73t104 -214q0 -84 -23 -151t-55 -106.5t-80.5 -69.5t-85 -42.5t-82.5 -23.5l-6 -31q234 -67 234 -278q0 -22 -9 -87q-15 -92 -49 -159.5 t-81.5 -111t-114.5 -69.5t-140.5 -36.5t-167.5 -10.5q-197 0 -305 76.5t-108 231.5zM272 322q0 -84 49 -121t156 -37q119 0 186.5 51t94.5 176q8 33 8 68q0 82 -56.5 123.5t-177.5 70.5q-116 -27 -188 -108.5t-72 -222.5zM399 1010q3 -134 203 -181q122 28 192 100t70 177 q0 143 -198 143q-122 0 -182.5 -49.5t-80.5 -144.5q-4 -16 -4 -45z" />
<glyph unicode="9" horiz-adv-x="1071" d="M43 29l70 188q153 -53 290 -53q72 0 119.5 17t89 64t71.5 126.5t60 208.5q-128 -64 -278 -64q-174 0 -258 74t-84 227q0 73 14 144q25 141 70 235.5t113.5 147t150 73.5t195.5 21q203 0 294 -81.5t91 -283.5q0 -135 -35 -340q-28 -163 -59.5 -281.5t-73 -203.5 t-86.5 -137.5t-109 -83t-132 -41.5t-163 -11q-96 0 -195 16t-155 38zM362 842q0 -79 42.5 -114.5t144.5 -35.5q63 0 129 14t92 29l12 66q27 147 27 258q0 109 -38.5 148.5t-131.5 39.5q-122 0 -177.5 -64t-84.5 -222q-15 -81 -15 -119z" />
<glyph unicode=":" horiz-adv-x="389" d="M-31 0l43 254h258l-43 -254h-258zM119 870l41 256h258l-43 -256h-256z" />
<glyph unicode=";" horiz-adv-x="389" d="M-76 -262l137 262h-92l43 254h258l-43 -254l-180 -262h-123zM119 870l41 256h258l-43 -256h-256z" />
<glyph unicode="&#x3c;" d="M143 623l35 200l881 353l-31 -195l-690 -266l598 -266l-31 -175z" />
<glyph unicode="=" d="M115 451l28 174h824l-31 -174h-821zM176 819l31 174h821l-29 -174h-823z" />
<glyph unicode="&#x3e;" d="M82 274l35 193l690 266l-598 266l29 177l761 -353l-32 -200z" />
<glyph unicode="?" horiz-adv-x="794" d="M152 0l49 287h231l-47 -287h-233zM190 1212l9 185q47 14 151.5 27.5t171.5 13.5q157 0 239.5 -64t82.5 -186q0 -77 -35.5 -158.5t-89.5 -153.5t-109.5 -142.5t-103.5 -152t-64 -155.5h-204q16 94 59.5 185.5t92.5 160t96.5 131.5t78.5 125t31 115q0 51 -36 75.5 t-114 24.5q-40 0 -132.5 -12t-123.5 -19z" />
<glyph unicode="@" horiz-adv-x="1624" d="M68 311q0 109 18 209q63 369 278 541t572 172q608 0 608 -512q0 -160 -36.5 -285.5t-99 -200.5t-139 -113t-161.5 -38q-167 0 -193 90q-98 -98 -253 -98q-106 0 -164 52t-58 153q0 16 9 81q9 56 24 95.5t41.5 66.5t55.5 42.5t79.5 24t99.5 11t128 2.5q15 0 43.5 -1 t29.5 -1q17 70 17 105q0 40 -26.5 56.5t-90.5 16.5t-155 -15t-132 -28l-8 142q42 16 138.5 30.5t191.5 14.5q143 0 216 -41.5t73 -141.5q0 -30 -7 -65l-61 -359q-4 -16 -4 -41q0 -55 41 -55q32 0 65.5 34.5t62 96.5t46.5 159.5t18 211.5q0 191 -102.5 269.5t-327.5 78.5 q-266 0 -413 -137t-199 -434q-19 -111 -19 -189q0 -205 107.5 -293t327.5 -88q63 0 146 14t146 38l13 -148q-62 -28 -155 -43.5t-183 -15.5q-293 0 -450.5 131t-157.5 405zM633 299q0 -48 24.5 -66t83.5 -18q89 0 154 47l35 217h-76q-54 0 -82.5 -2t-55.5 -8t-39.5 -21 t-22 -37t-15.5 -59q-1 -6 -3.5 -25.5t-2.5 -27.5z" />
<glyph unicode="A" horiz-adv-x="1134" d="M-70 0l619 1413h330l137 -1413h-244l-29 367h-407l-150 -367h-256zM410 555h325l-43 666h-6z" />
<glyph unicode="B" horiz-adv-x="1153" d="M37 0l242 1413h407q255 0 359 -58t104 -200v-27q-4 -92 -26 -159.5t-59.5 -107.5t-79.5 -61.5t-97 -31.5l-6 -47q76 -7 116.5 -66t40.5 -155q0 -40 -10 -105q-17 -103 -43 -171t-62 -113.5t-95.5 -69t-130.5 -32.5t-181 -9h-479zM317 193h203q76 0 118.5 7.5t76.5 33.5 t51.5 70.5t30.5 123.5q8 41 8 80q0 75 -42 106t-136 31h-232zM426 823h295q82 18 132 91.5t50 170.5q0 75 -47 103.5t-160 28.5h-204z" />
<glyph unicode="C" horiz-adv-x="960" d="M86 303q0 140 51 430q21 120 43 212.5t49.5 165.5t55.5 124.5t67 88t77.5 58.5t94 35t110 17t130.5 4q81 0 167 -8.5t126 -18.5l-51 -192q-23 7 -101.5 14.5t-134.5 7.5q-41 0 -67.5 -1t-56.5 -6t-49.5 -13t-41.5 -23t-36.5 -35t-31.5 -51t-29 -69t-25.5 -90.5 t-25.5 -114t-26 -140.5q-43 -258 -43 -350q0 -36 5 -63t12.5 -46t25 -31.5t33 -19.5t45.5 -10.5t54.5 -4.5t68.5 -1q53 0 137 7.5t115 13.5l-21 -191q-36 -8 -135.5 -17.5t-173.5 -9.5q-114 0 -187.5 13.5t-128 49t-78.5 100t-24 165.5z" />
<glyph unicode="D" horiz-adv-x="1228" d="M37 0l242 1413h485q118 0 194.5 -16t130.5 -56t77.5 -108.5t23.5 -173.5q0 -134 -41 -365q-20 -119 -40 -208t-46 -162t-52.5 -122.5t-65.5 -87t-79 -59t-99.5 -34.5t-120 -17t-146.5 -4h-463zM317 193h211q49 0 81 2.5t65.5 11.5t54.5 24t44 44t38 66.5t32.5 95.5 t31.5 128.5t30 167.5q37 217 37 305q0 109 -51 144t-180 35h-219z" />
<glyph unicode="E" horiz-adv-x="980" d="M37 0l242 1413h770l-33 -196h-524l-68 -402h502l-31 -188h-504l-74 -434h529l-33 -193h-776z" />
<glyph unicode="F" horiz-adv-x="983" d="M29 0l239 1413h803l-33 -196h-557l-69 -408h518l-33 -193h-518l-105 -616h-245z" />
<glyph unicode="G" horiz-adv-x="1157" d="M90 326q0 137 45 401q28 166 58 280t74 195t88.5 126.5t120.5 70.5t150 32t195 7q91 0 206 -10t159 -21l-53 -193q-41 9 -153.5 20t-176.5 11q-72 0 -117 -5.5t-89.5 -26t-72 -55t-54.5 -97.5t-47 -149t-42 -214q-37 -209 -37 -323q0 -67 13 -108t44.5 -62t71.5 -28 t107 -7q97 0 163 14l86 504l238 21l-117 -691q-186 -43 -397 -43q-129 0 -210 13.5t-141.5 52t-86 107.5t-25.5 178z" />
<glyph unicode="H" horiz-adv-x="1218" d="M37 0l242 1413h247l-102 -590h459l102 590h244l-240 -1413h-246l107 618h-459l-106 -618h-248z" />
<glyph unicode="I" horiz-adv-x="522" d="M45 0l240 1413h245l-239 -1413h-246z" />
<glyph unicode="J" horiz-adv-x="788" d="M-70 0l43 197q23 -8 84 -18.5t99 -10.5q109 0 158 51t73 195l170 999h248l-168 -983q-24 -137 -53.5 -221t-81 -138.5t-123 -75t-182.5 -20.5q-68 0 -151 8t-116 17z" />
<glyph unicode="K" horiz-adv-x="1138" d="M37 0l242 1413h247l-102 -598h164q104 83 205 260l188 338h262l-199 -348q-76 -132 -134.5 -200.5t-116.5 -98.5l-9 -45q122 -53 166 -311l66 -410h-254l-57 362q-18 115 -55 175.5t-87 91.5h-170l-108 -629h-248z" />
<glyph unicode="L" horiz-adv-x="931" d="M37 0l242 1413h247l-209 -1220h519l-31 -193h-768z" />
<glyph unicode="M" horiz-adv-x="1523" d="M37 0l242 1413h327l119 -1030l469 1030h342l-240 -1413h-223l195 1133l-514 -1133h-174l-129 1128l-193 -1128h-221z" />
<glyph unicode="N" horiz-adv-x="1234" d="M37 0l242 1413h296l263 -1087l184 1087h225l-239 -1413h-299l-263 1081l-184 -1081h-225z" />
<glyph unicode="O" horiz-adv-x="1230" d="M86 313q0 159 47 418q17 97 33 174t35.5 143t38.5 115.5t45 90.5t51 69t60.5 49t70.5 33.5t83.5 20t96.5 10t113 2.5q95 0 160.5 -8.5t120.5 -30.5t87 -61.5t49 -101t17 -149.5q0 -151 -45 -405q-22 -125 -42.5 -217.5t-47 -167.5t-51.5 -125t-63.5 -87.5t-76 -58 t-95.5 -32.5t-114 -15.5t-141 -3.5q-96 0 -162 8t-120.5 29.5t-85.5 59.5t-47.5 97t-16.5 144zM336 346q0 -61 11 -97t40.5 -53.5t64 -22.5t97.5 -5q46 0 75.5 2.5t60 12t49.5 24.5t40 44.5t35 66t30 95.5t29.5 127.5t30.5 166.5q43 248 43 350q0 63 -11.5 100.5t-40.5 56 t-63 24t-94 5.5q-46 0 -76 -2.5t-61 -12t-50.5 -24.5t-40.5 -44t-35 -66t-30 -95.5t-29.5 -126.5t-29.5 -165q-45 -267 -45 -361z" />
<glyph unicode="P" horiz-adv-x="1132" d="M37 0l242 1413h471q211 0 300 -72t89 -229q0 -62 -17 -174q-22 -129 -62.5 -213t-108 -132t-153 -66.5t-210.5 -18.5h-217l-86 -508h-248zM403 692h213q68 0 114 14t76.5 48t48 81.5t30.5 122.5q12 68 12 113q0 84 -50 115t-171 31h-184z" />
<glyph unicode="Q" horiz-adv-x="1230" d="M86 313q0 159 47 418q17 97 33 174t35.5 143t38.5 115.5t45 90.5t51 69t60.5 49t70.5 33.5t83.5 20t96.5 10t113 2.5q95 0 160.5 -8.5t120.5 -30.5t87 -61.5t49 -101t17 -149.5q0 -151 -45 -405q-22 -125 -42.5 -217.5t-47 -167.5t-51.5 -125t-63.5 -87.5t-76 -58 t-95.5 -32.5t-114 -15.5t-141 -3.5q-96 0 -162 8t-120.5 29.5t-85.5 59.5t-47.5 97t-16.5 144zM258 -162l37 115q107 0 224 -23t222.5 -46t182.5 -23l-31 -176q-75 0 -167.5 24t-165 52.5t-157 52.5t-145.5 24zM336 346q0 -61 11 -97t40.5 -53.5t64 -22.5t97.5 -5 q46 0 75.5 2.5t60 12t49.5 24.5t40 44.5t35 66t30 95.5t29.5 127.5t30.5 166.5q43 248 43 350q0 63 -11.5 100.5t-40.5 56t-63 24t-94 5.5q-46 0 -76 -2.5t-61 -12t-50.5 -24.5t-40.5 -44t-35 -66t-30 -95.5t-29.5 -126.5t-29.5 -165q-45 -267 -45 -361z" />
<glyph unicode="R" horiz-adv-x="1153" d="M37 0l242 1413h432q170 0 265.5 -27t136 -85.5t40.5 -161.5q0 -376 -258 -445q-4 -30 -8 -43q61 -23 86.5 -77t25.5 -152q0 -109 -32 -422h-244l31 330q2 23 2 63q0 118 -60 189h-313l-98 -582h-248zM414 758h274q97 28 143.5 87t59.5 177q2 16 2 45q0 87 -43.5 118.5 t-161.5 31.5h-196z" />
<glyph unicode="S" horiz-adv-x="933" d="M-31 10l66 207q154 -49 284 -49q118 0 197.5 54.5t79.5 160.5q0 46 -24.5 91t-63.5 83t-86 77.5t-94 82t-86 88.5t-63.5 105t-24.5 124q0 132 71 224.5t188.5 136t270.5 43.5q174 0 315 -29l-65 -195q-131 31 -258 31q-121 0 -191.5 -49t-70.5 -135q0 -62 44.5 -122.5 t107.5 -113.5t126 -110.5t107.5 -137.5t44.5 -171q0 -104 -41.5 -187t-113.5 -135.5t-166.5 -80.5t-203.5 -28q-101 0 -203 11t-147 24z" />
<glyph unicode="T" horiz-adv-x="1009" d="M160 1217l35 196h917l-35 -196h-334l-206 -1217h-248l207 1217h-336z" />
<glyph unicode="U" horiz-adv-x="1208" d="M100 299q0 64 21 197l155 917h246l-157 -919q-17 -94 -17 -148q0 -99 48.5 -139.5t164.5 -40.5q106 0 207 16l211 1231h244l-238 -1388q-81 -19 -221 -34.5t-219 -15.5q-125 0 -211 19.5t-137.5 61t-74 100.5t-22.5 143z" />
<glyph unicode="V" horiz-adv-x="1134" d="M170 1413h242l84 -1225h2l503 1225h256l-618 -1413h-334z" />
<glyph unicode="W" horiz-adv-x="1697" d="M186 1413h238l22 -1089l414 1089h252l39 -1089l399 1089h252l-538 -1413h-289l-45 1047l-404 -1047h-282z" />
<glyph unicode="X" horiz-adv-x="1150" d="M-82 0l549 731l-274 682h268l182 -483l340 483h277l-512 -688l296 -725h-272l-201 522l-370 -522h-283z" />
<glyph unicode="Y" d="M170 1413h242l163 -649l383 649h252l-551 -903l-88 -510h-245l84 510z" />
<glyph unicode="Z" horiz-adv-x="931" d="M-55 0l26 168l748 1049h-572l35 196h856l-26 -170l-750 -1050h578l-31 -193h-864z" />
<glyph unicode="[" horiz-adv-x="534" d="M-23 -291l314 1835h385l-29 -172h-147l-256 -1495h147l-29 -168h-385z" />
<glyph unicode="\" horiz-adv-x="595" d="M154 1434h178l162 -1454h-179z" />
<glyph unicode="]" horiz-adv-x="534" d="M-117 -291l29 168h147l254 1495h-147l31 172h383l-314 -1835h-383z" />
<glyph unicode="^" horiz-adv-x="630" d="M104 938l226 475h262l63 -475h-159l-56 348l-168 -348h-168z" />
<glyph unicode="_" horiz-adv-x="679" d="M-141 -283l26 168h678l-26 -168h-678z" />
<glyph unicode="`" horiz-adv-x="491" d="M219 1413h254l64 -209h-201z" />
<glyph unicode="a" horiz-adv-x="1042" d="M23 229q0 61 12 131q12 76 30.5 129t49.5 91.5t67.5 61t95.5 35.5t122.5 17t158.5 4h143q2 17 7 49.5t8.5 57.5t3.5 41q0 60 -38.5 86t-131.5 26q-86 0 -187 -19t-167 -38l-7 186q60 24 174.5 44t233.5 20q183 0 276 -63t93 -214q0 -26 -17 -137l-123 -737h-229l8 98 q-45 -51 -121.5 -87t-177.5 -36q-284 0 -284 254zM266 276q0 -67 34.5 -93.5t111.5 -26.5q103 0 209 71l55 312h-117q-59 0 -95 -2t-69.5 -9t-51 -18.5t-33 -33.5t-23.5 -51t-15 -73q-6 -46 -6 -76z" />
<glyph unicode="b" horiz-adv-x="1128" d="M25 0l241 1413l252 25l-61 -373q110 86 301 86q158 0 231.5 -73.5t73.5 -239.5q0 -119 -29 -283q-41 -223 -99.5 -347.5t-150 -178.5t-237.5 -54q-109 0 -181 27.5t-96 67.5l-24 -70h-221zM309 215q17 -19 80 -35t117 -16q83 0 134.5 35.5t88.5 124t66 251.5 q22 121 22 211q0 101 -42 139t-136 38q-121 0 -209 -37z" />
<glyph unicode="c" horiz-adv-x="856" d="M68 297q0 115 30 285q21 118 45.5 204t58.5 150.5t74 105t96.5 65.5t120.5 34.5t152 9.5q155 0 262 -33l-47 -186q-22 6 -97.5 16t-111.5 10q-63 0 -104.5 -10t-75.5 -34t-56.5 -71.5t-40.5 -113t-36 -168.5q-25 -141 -25 -221q0 -108 49 -142t177 -34q68 0 200 24 l-18 -186q-124 -27 -262 -27q-208 0 -299.5 71.5t-91.5 250.5z" />
<glyph unicode="d" horiz-adv-x="1128" d="M63 272q0 109 31 293q22 126 46 216t56 156.5t68 107t87.5 64.5t109 33t137.5 9q73 0 143.5 -20t106.5 -44h4l55 326l250 25l-244 -1438h-231l12 100q-89 -125 -329 -125q-161 0 -231.5 70t-70.5 227zM311 319q0 -95 36 -125t128 -30q67 0 130 18.5t100 44.5l118 693 q-84 41 -198 41q-55 0 -92.5 -10.5t-68.5 -35t-52.5 -72.5t-39 -115.5t-34.5 -170.5q-27 -153 -27 -238z" />
<glyph unicode="e" horiz-adv-x="1062" d="M70 309q0 103 28 273q22 123 46.5 210.5t59 152t73.5 104t96.5 62.5t120.5 31.5t153 8.5q178 0 268.5 -58t90.5 -184q0 -93 -20 -175t-54 -134q-18 -28 -43.5 -49t-52 -35.5t-70.5 -24t-81 -15t-103.5 -8t-117.5 -3t-142 -0.5q-11 -81 -11 -123q0 -108 53 -143t185 -35 q70 0 168 16t151 33v-190q-64 -17 -178 -32.5t-213 -15.5q-213 0 -310 77t-97 257zM346 625q169 0 249.5 7.5t113.5 31.5q32 24 49.5 81t17.5 111q0 53 -37 77.5t-125 24.5q-127 0 -179 -61t-83 -246z" />
<glyph unicode="f" horiz-adv-x="684" d="M88 0l160 934h-148l33 192h146l12 64q15 80 42.5 130.5t72 78t97 37.5t130.5 10q127 0 182 -16l-29 -164q-60 12 -137 12q-62 0 -86 -24.5t-33 -88.5l-6 -39h240l-33 -192h-239l-158 -934h-246z" />
<glyph unicode="g" horiz-adv-x="1126" d="M14 -244l70 185q198 -43 356 -43q116 0 168 40t68 125l16 89q-52 -48 -138 -76.5t-194 -28.5q-147 0 -216.5 71.5t-69.5 221.5q0 112 26 262q20 116 43 200t54 145.5t66 100t84 61.5t103 31.5t128 8.5q35 0 70 -3.5t59.5 -8t53.5 -13t42 -13t35 -12.5t24 -9l25 36h215 l-187 -1093q-15 -90 -53.5 -152.5t-101 -99t-141 -52.5t-183.5 -16q-231 0 -422 43zM322 391q0 -94 34 -123.5t117 -29.5q159 0 244 59l108 633q-76 33 -204 33q-87 0 -135.5 -29t-81.5 -106.5t-60 -231.5q-22 -118 -22 -205z" />
<glyph unicode="h" horiz-adv-x="1112" d="M25 0l241 1413l252 25l-67 -400q145 113 315 113q134 0 202 -67.5t68 -194.5q0 -63 -10 -119l-131 -770h-240l131 778q7 35 7 58q0 131 -142 131q-107 0 -227 -74q-33 -200 -152 -893h-247z" />
<glyph unicode="i" horiz-adv-x="493" d="M29 0l190 1126h246l-191 -1126h-245zM236 1206l34 207h244l-35 -207h-243z" />
<glyph unicode="j" horiz-adv-x="483" d="M-113 -154q57 52 99 142t71 256l152 882h248l-152 -884q-17 -98 -43 -178t-53 -132.5t-64 -98t-67 -71.5t-72 -55zM223 1212l35 201h248l-35 -201h-248z" />
<glyph unicode="k" horiz-adv-x="1030" d="M25 0l241 1413l248 25l-127 -746h109q51 32 85 67t86 115t152 252h273l-119 -182q-94 -144 -153.5 -207.5t-125.5 -101.5l-6 -37q117 -76 152 -246l71 -352h-249l-50 262q-38 191 -133 256h-121l-90 -518h-243z" />
<glyph unicode="l" horiz-adv-x="499" d="M33 0l239 1413l250 25l-243 -1438h-246z" />
<glyph unicode="m" horiz-adv-x="1726" d="M25 0l190 1126h238l-17 -96h2q155 121 326 121q192 0 246 -137q190 137 372 137q133 0 200 -67t67 -195q0 -40 -11 -119l-131 -770h-239l131 778q6 30 6 58q0 131 -133 131q-110 0 -240 -80q0 -35 -12 -117l-131 -770h-240l131 778q6 30 6 58q0 131 -135 131 q-109 0 -229 -74l-154 -893h-243z" />
<glyph unicode="n" horiz-adv-x="1110" d="M25 0l190 1126h238l-17 -96q46 34 83 56t105.5 43.5t139.5 21.5q134 0 201 -67.5t67 -194.5q0 -67 -10 -123l-129 -766h-240l131 778q7 35 7 58q0 131 -142 131q-107 0 -227 -74l-154 -893h-243z" />
<glyph unicode="o" horiz-adv-x="1116" d="M68 285q0 97 34 299q22 123 43 205.5t52 149.5t68 105t94.5 63.5t126 34.5t167.5 9q216 0 306 -70.5t90 -240.5q0 -103 -33 -299q-21 -120 -42 -202.5t-52.5 -149t-69.5 -105t-95.5 -64.5t-126.5 -35.5t-167 -9.5q-215 0 -305 70.5t-90 239.5zM311 311q0 -89 38 -118 t140 -29q51 0 84.5 5t62.5 23t47 43t35 74.5t29.5 107t28.5 150.5q29 179 29 250q0 88 -37 114.5t-141 26.5q-51 0 -83.5 -4.5t-62 -21t-47 -40.5t-35 -71t-30 -105t-27.5 -149q-31 -178 -31 -256z" />
<glyph unicode="p" horiz-adv-x="1128" d="M-20 -287l239 1413h230l6 -61q108 86 290 86q318 0 318 -311q0 -114 -29 -281q-56 -317 -159.5 -447t-301.5 -130q-116 0 -178.5 19t-111.5 60l-60 -348h-243zM309 215q17 -19 80 -35t119 -16q83 0 133.5 34t87 121t66.5 250q24 138 24 219q0 97 -42.5 136t-135.5 39 q-124 0 -211 -37z" />
<glyph unicode="q" horiz-adv-x="1128" d="M63 270q0 123 33 297q25 146 57 246t72 167t97 104t122.5 52t159.5 15q67 0 140 -20.5t106 -43.5l24 39h230l-240 -1417h-248l62 369q-103 -103 -313 -103q-157 0 -229.5 70.5t-72.5 224.5zM313 322q0 -95 36.5 -126.5t127.5 -31.5q133 0 228 61l118 693q-88 43 -194 43 q-72 0 -113.5 -13.5t-76 -58t-55.5 -119t-44 -207.5q-27 -159 -27 -241z" />
<glyph unicode="r" horiz-adv-x="710" d="M20 0l191 1126h231l-16 -129q61 64 153.5 109t202.5 45l-39 -229h-41q-85 0 -164.5 -19t-129.5 -53l-146 -850h-242z" />
<glyph unicode="s" horiz-adv-x="866" d="M-47 10l78 197q39 -14 121.5 -28.5t144.5 -14.5q104 0 169.5 37t65.5 106q0 38 -24 70t-63 56t-85.5 48.5t-93 53.5t-85.5 64t-63 87.5t-24 116.5q0 92 41.5 161.5t113 109t157 58.5t184.5 19q74 0 169.5 -8t137.5 -19l-59 -186q-31 7 -113 13.5t-131 6.5 q-73 0 -127.5 -12.5t-89.5 -43.5t-35 -79q0 -37 24 -68t62.5 -55t85 -48.5t93 -54t85 -64t62.5 -86t24 -113.5q0 -92 -38.5 -162t-106.5 -112.5t-155 -63.5t-189 -21q-89 0 -185 10.5t-151 24.5z" />
<glyph unicode="t" horiz-adv-x="710" d="M100 934l33 192h135l31 170l256 78l-43 -248h256l-31 -192h-258l-100 -594q-10 -55 -10 -80q0 -53 25 -72.5t83 -19.5q78 0 131 16l-30 -182q-76 -20 -201 -20q-132 0 -197 44t-65 146q0 61 10 115l111 647h-136z" />
<glyph unicode="u" horiz-adv-x="1099" d="M72 238q0 50 14 143l125 745h242l-131 -782q-9 -61 -9 -70q0 -62 31 -90t98 -28q103 0 242 73l154 897h241l-190 -1126h-232l15 94q-58 -51 -145.5 -85t-186.5 -34q-136 0 -202 63t-66 200z" />
<glyph unicode="v" horiz-adv-x="1013" d="M117 1126h239l84 -917l398 917h249l-518 -1126h-313z" />
<glyph unicode="w" horiz-adv-x="1490" d="M127 1126h225l35 -817l348 817h205l66 -823l315 823h235l-458 -1126h-246l-64 801l-344 -801h-241z" />
<glyph unicode="x" horiz-adv-x="1042" d="M-74 0l471 575l-250 551h254l160 -358l289 358h248l-439 -540l271 -586h-256l-180 395l-314 -395h-254z" />
<glyph unicode="y" horiz-adv-x="1013" d="M117 1126h237l84 -919l402 919h250l-656 -1415h-248l142 289h-74z" />
<glyph unicode="z" horiz-adv-x="905" d="M-55 0l30 170l646 764h-500l31 192h792l-29 -170l-639 -768h525l-31 -188h-825z" />
<glyph unicode="{" horiz-adv-x="589" d="M47 537l33 186q92 34 139.5 114t79.5 236q18 132 50 218.5t88 139.5t128.5 78t182.5 35l-25 -162q-77 -15 -121 -70.5t-61 -160.5q-28 -177 -67.5 -277t-94 -152t-152.5 -93q56 -28 90.5 -58t57 -82t22.5 -124q0 -53 -21.5 -179.5t-21.5 -173.5q0 -115 111 -137l-29 -162 q-159 15 -234 89t-75 221q0 47 16 157l17 107q6 41 6 71q0 78 -28.5 116t-90.5 63z" />
<glyph unicode="|" horiz-adv-x="489" d="M14 -399l332 1943h133l-332 -1943h-133z" />
<glyph unicode="}" horiz-adv-x="589" d="M-133 -287l27 162q73 14 116 69t60 158q26 177 65 277.5t94.5 152.5t155.5 97q-85 42 -127.5 100.5t-42.5 161.5q0 51 21.5 181t21.5 173q0 62 -26 94t-82 43l26 162q159 -15 233 -90.5t74 -222.5q0 -77 -12 -156l-16 -102q-6 -44 -6 -76q0 -78 27 -113t89 -61l-33 -186 q-87 -31 -139.5 -116t-75.5 -235l-12 -65q-32 -211 -136 -300.5t-302 -107.5z" />
<glyph unicode="~" horiz-adv-x="1013" d="M96 584q126 170 275 170q47 0 99.5 -18.5t91 -40t82 -40t73.5 -18.5q79 0 155 113l78 -101q-120 -168 -272 -168q-56 0 -120 28.5t-124 57.5t-106 29q-47 0 -83.5 -31t-72.5 -82z" />
<glyph unicode="&#xa1;" horiz-adv-x="561" d="M-2 -287l240 987h157l-98 -987h-299zM223 840l47 286h236l-47 -286h-236z" />
<glyph unicode="&#xa2;" horiz-adv-x="966" d="M129 416q0 119 35 309q28 163 64 269t89 172t119 95t162 37q3 24 11.5 70.5t11.5 69.5h204l-20 -140q96 -6 151 -20l-47 -182q-31 9 -94.5 16.5t-112.5 7.5q-58 0 -95 -8.5t-70.5 -31.5t-56.5 -69.5t-43.5 -118t-39.5 -181.5q-24 -144 -24 -228q0 -56 10.5 -90t37 -51.5 t60 -23t90.5 -5.5q100 0 213 25l-16 -182q-52 -17 -180 -27l-27 -154h-207l27 156q-134 11 -193 75.5t-59 209.5z" />
<glyph unicode="&#xa3;" horiz-adv-x="1011" d="M-14 0l28 184q89 45 140.5 121.5t72.5 202.5l23 145h-162l31 181h164l32 196q36 219 140.5 313.5t322.5 94.5q71 0 179.5 -22t140.5 -46l-101 -172q-26 16 -98 30.5t-115 14.5q-101 0 -150.5 -45.5t-68.5 -153.5l-37 -210h359l-29 -181h-360l-27 -147q-38 -215 -184 -313 h604l-31 -193h-874z" />
<glyph unicode="&#xa4;" horiz-adv-x="1193" d="M63 293q19 17 40 37t46 44.5t39 37.5q-82 115 -82 278q0 86 36.5 179t99.5 157l-105 113l101 98l102 -117q131 105 328 105q78 0 154.5 -28.5t131.5 -76.5q24 22 71 67.5t50 47.5q12 -15 40.5 -47t39.5 -47l-123 -115q41 -44 61.5 -117t20.5 -149q0 -91 -34.5 -185 t-96.5 -163h2l100 -117q-7 -7 -100 -94q-68 80 -100 116q-137 -106 -320 -106q-87 0 -165 27t-130 81l-123 -118zM248 686q0 -146 96 -247t236 -101q104 0 195.5 58.5t144.5 153.5t53 200q0 143 -94.5 244.5t-237.5 101.5q-101 0 -192 -56t-146 -151t-55 -203z" />
<glyph unicode="&#xa5;" d="M61 254l29 176h307l15 80l-11 43h-288l30 174h219l-163 686h241l133 -649l357 649h250l-400 -686h226l-31 -174h-293l-25 -43l-12 -80h309l-30 -176h-310l-43 -254h-245l41 254h-306z" />
<glyph unicode="&#xa6;" horiz-adv-x="448" d="M-10 -410l133 781h137l-133 -781h-137zM190 764l134 780h137l-133 -780h-138z" />
<glyph unicode="&#xa7;" horiz-adv-x="1069" d="M23 -109q27 60 88 187q47 -23 134 -42.5t156 -19.5q23 0 55 5.5t71 18.5t65 40.5t26 64.5q0 33 -30 61.5t-77.5 52t-105.5 48t-116 54t-105.5 63.5t-77.5 84t-30 110q0 112 77.5 185t192.5 106q-42 35 -69 92t-27 117q0 103 64 177t167 108.5t232 34.5q84 0 192 -19 t154 -41l-88 -184q-139 49 -252 49q-104 0 -163.5 -37.5t-59.5 -87.5q0 -35 29.5 -64t76.5 -51.5t104 -45t114 -49.5t104 -58.5t76.5 -79t29.5 -104.5q0 -4 -1 -12t-1 -11q-10 -105 -80 -171.5t-180 -100.5q43 -38 69.5 -93t26.5 -112q0 -86 -38 -153t-103 -107t-145 -60 t-170 -20q-112 0 -221.5 20t-163.5 45zM311 666q0 -25 16 -46.5t52.5 -43.5t68.5 -37.5t93.5 -43t97.5 -44.5q64 24 111 67t47 98q0 19 -7.5 35.5t-25.5 32.5t-33.5 27t-47 26t-49 22.5t-56.5 23.5t-54 22l-22 6l-21 6q-62 -8 -116 -52.5t-54 -98.5z" />
<glyph unicode="&#xa8;" horiz-adv-x="677" d="M209 1204l35 209h192l-37 -209h-190zM500 1204l35 209h190l-33 -209h-192z" />
<glyph unicode="&#xa9;" horiz-adv-x="1605" d="M82 705q0 198 95.5 365.5t261.5 265.5t364 98t364 -98t261.5 -265.5t95.5 -365.5t-95.5 -365.5t-261.5 -266t-364 -98.5t-364 98.5t-261.5 266t-95.5 365.5zM242 705q0 -162 72 -300.5t201.5 -221.5t287.5 -83t287.5 83t201.5 221.5t72 300.5t-72 300t-201.5 221 t-287.5 83t-287.5 -83t-201.5 -221t-72 -300zM401 711q0 191 121 315.5t295 124.5q99 0 182.5 -46t126.5 -108l-133 -125q-27 40 -72 66.5t-100 26.5q-91 0 -147 -75.5t-56 -180.5q0 -108 59.5 -184t147.5 -76q52 0 97 24.5t73 61.5l129 -129q-54 -62 -137 -103t-178 -41 q-173 0 -290.5 126.5t-117.5 322.5z" />
<glyph unicode="&#xaa;" horiz-adv-x="720" d="M27 442l22 142h608l-22 -142h-608zM102 823q0 17 9 82q10 58 26.5 96t40 62.5t63.5 37t85.5 17t117.5 4.5h107l10 60q0 4 1 12t1 12q0 39 -23.5 54.5t-76.5 15.5q-106 0 -250 -37l-8 131q39 14 127.5 27.5t167.5 13.5q131 0 197.5 -38.5t66.5 -129.5q0 -27 -6 -57 l-88 -518h-187l6 53q-81 -68 -190 -68q-98 0 -147.5 40t-49.5 130zM291 846q0 -37 19 -51.5t63 -14.5q63 0 127 43q10 53 32 189h-67q-94 0 -125.5 -19.5t-44.5 -95.5q-4 -40 -4 -51z" />
<glyph unicode="&#xab;" horiz-adv-x="819" d="M43 555l270 463h195l-252 -483l94 -441h-184zM401 555l271 463h194l-252 -483l95 -441h-185z" />
<glyph unicode="&#xac;" d="M145 635l31 174h821l-94 -549h-184l65 375h-639z" />
<glyph unicode="&#xad;" horiz-adv-x="0" />
<glyph unicode="&#xae;" horiz-adv-x="1605" d="M82 705q0 198 95.5 365.5t261.5 265.5t364 98t364 -98t261.5 -265.5t95.5 -365.5t-95.5 -365.5t-261.5 -266t-364 -98.5t-364 98.5t-261.5 266t-95.5 365.5zM242 705q0 -162 72 -300.5t201.5 -221.5t287.5 -83t287.5 83t201.5 221.5t72 300.5t-72 300t-201.5 221 t-287.5 83t-287.5 -83t-201.5 -221t-72 -300zM530 289v846h293q141 0 226.5 -72.5t85.5 -192.5q0 -182 -170 -237l178 -344h-191l-153 307h-94v-307h-175zM705 729h100q68 0 112 32t44 97q0 119 -150 119h-106v-248z" />
<glyph unicode="&#xaf;" horiz-adv-x="612" d="M158 1223l26 157h525l-27 -157h-524z" />
<glyph unicode="&#xb0;" horiz-adv-x="833" d="M135 893q0 48 15 147q36 213 126 293t281 80q154 0 226.5 -62t72.5 -196q0 -71 -14 -151q-38 -210 -127 -288.5t-279 -78.5q-155 0 -228 61.5t-73 194.5zM324 913q0 -62 29.5 -82t107.5 -20q51 0 80.5 7t53 30.5t36.5 63t26 110.5q13 76 13 113q0 62 -29.5 82t-105.5 20 q-69 0 -104.5 -16t-57.5 -60.5t-39 -138.5q-10 -72 -10 -109z" />
<glyph unicode="&#xb1;" d="M39 0l31 174h821l-29 -174h-823zM145 635l31 174h318l61 373h186l-61 -373h317l-28 -174h-320l-65 -375h-185l66 375h-320z" />
<glyph unicode="&#xb2;" horiz-adv-x="772" d="M76 555l24 139l299 275q97 89 132.5 135.5t35.5 89.5q0 76 -100 76q-52 0 -127 -18t-113 -33l-12 157q135 51 305 51q129 0 200 -56t71 -150q0 -74 -47.5 -142t-170.5 -180l-208 -190h348l-27 -154h-610z" />
<glyph unicode="&#xb3;" horiz-adv-x="772" d="M74 571q24 79 51 156q105 -33 229 -33q170 0 170 170q0 92 -129 92q-40 0 -86 -8l-24 105l225 207h-309q5 26 13 77t13 76h561l-22 -131l-209 -190q84 -12 130 -67.5t46 -139.5q0 -171 -101.5 -257.5t-285.5 -86.5q-154 0 -272 30z" />
<glyph unicode="&#xb4;" horiz-adv-x="491" d="M182 1204l135 209h254l-186 -209h-203z" />
<glyph unicode="&#xb5;" horiz-adv-x="1099" d="M-29 -287l240 1413h242l-131 -782q-10 -65 -9 -72q0 -62 30.5 -89t96.5 -27q108 0 244 73q28 172 84 493.5t70 403.5h241l-190 -1126h-232l13 90q-59 -46 -149.5 -76t-182.5 -30q-47 0 -78 10q-7 -47 -23.5 -140.5t-23.5 -140.5h-242z" />
<glyph unicode="&#xb6;" horiz-adv-x="909" d="M113 1044q0 67 23.5 131.5t66.5 118t112 86.5t152 33h504l-6 -31l-54 -36q-42 -28 -51 -76l-268 -1561h-109l277 1616h-180l-277 -1616h-108l188 1096q-136 1 -203 67t-67 172z" />
<glyph unicode="&#xb7;" horiz-adv-x="376" d="M72 600l43 254h258l-43 -254h-258z" />
<glyph unicode="&#xb8;" horiz-adv-x="514" d="M-70 -322l52 93q51 -19 100 -19q35 0 58.5 15t23.5 45q0 19 -23.5 27.5t-79.5 8.5h-69l137 152h139l-63 -66q117 -17 117 -110q0 -174 -244 -174q-94 0 -148 28z" />
<glyph unicode="&#xb9;" horiz-adv-x="772" d="M121 555l26 152h185l84 491l-174 -72l-45 113l282 174h176l-120 -706h161l-26 -152h-549z" />
<glyph unicode="&#xba;" horiz-adv-x="778" d="M51 442l23 142h643l-23 -142h-643zM135 909q0 54 15 146q19 108 50 178.5t80 110t108.5 54.5t146.5 15q136 0 204 -61t68 -195q0 -47 -14 -143q-20 -111 -51 -182t-80.5 -109t-107.5 -52t-144 -14q-138 0 -206.5 60t-68.5 192zM324 915q0 -55 24 -74.5t86 -19.5 q84 0 115 41t53 172q14 86 14 119q0 56 -24 76t-84 20q-84 0 -116 -41.5t-56 -173.5q-12 -74 -12 -119z" />
<glyph unicode="&#xbb;" horiz-adv-x="806" d="M-51 94l252 481l-95 443h193l117 -463l-269 -461h-198zM295 94l252 481l-94 443h192l117 -463l-268 -461h-199z" />
<glyph unicode="&#xbc;" horiz-adv-x="1914" d="M121 555l26 152h185l84 491l-174 -72l-45 113l282 174h176l-120 -706h161l-26 -152h-549zM434 0l883 1413h168l-885 -1413h-166zM1081 174l25 139l485 541h203l-90 -539h78l-25 -141h-78l-30 -178h-197l33 178h-404zM1278 315h229l56 316z" />
<glyph unicode="&#xbd;" horiz-adv-x="1914" d="M121 555l26 152h185l84 491l-174 -72l-45 113l282 174h176l-120 -706h161l-26 -152h-549zM434 0l883 1413h168l-885 -1413h-166zM1079 -4l25 139l299 275q97 89 132.5 135.5t35.5 89.5q0 76 -101 76q-52 0 -126 -18t-113 -34l-12 158q135 51 305 51q129 0 199.5 -56 t70.5 -150q0 -74 -47.5 -142t-169.5 -180l-209 -190h348l-26 -154h-611z" />
<glyph unicode="&#xbe;" horiz-adv-x="1914" d="M74 571q24 79 51 156q105 -33 229 -33q170 0 170 170q0 92 -129 92q-40 0 -86 -8l-24 105l225 207h-309q5 26 13 77t13 76h561l-22 -131l-209 -190q84 -12 130 -67.5t46 -139.5q0 -171 -101.5 -257.5t-285.5 -86.5q-154 0 -272 30zM434 0l883 1413h168l-885 -1413h-166z M1081 174l25 139l485 541h203l-90 -539h78l-25 -141h-78l-30 -178h-197l33 178h-404zM1278 315h229l56 316z" />
<glyph unicode="&#xbf;" horiz-adv-x="794" d="M-2 -61q0 77 35.5 158.5t89 153.5t109 142.5t103.5 151.5t64 155h205q-16 -94 -59.5 -185.5t-92.5 -160t-96.5 -131.5t-78.5 -124.5t-31 -114.5q0 -51 36 -76t113 -25q40 0 132.5 12t123.5 19l-8 -184q-47 -14 -152 -27.5t-172 -13.5q-157 0 -239 64t-82 186zM410 840 l47 286h233l-49 -286h-231z" />
<glyph unicode="&#xc0;" horiz-adv-x="1134" d="M-70 0l619 1413h330l137 -1413h-244l-29 367h-407l-150 -367h-256zM410 555h325l-43 666h-6zM506 1698h254l63 -209h-200z" />
<glyph unicode="&#xc1;" horiz-adv-x="1134" d="M-70 0l619 1413h330l137 -1413h-244l-29 367h-407l-150 -367h-256zM410 555h325l-43 666h-6zM616 1489l136 209h254l-187 -209h-203z" />
<glyph unicode="&#xc2;" horiz-adv-x="1134" d="M-70 0l619 1413h330l137 -1413h-244l-29 367h-407l-150 -367h-256zM410 555h325l-43 666h-6zM483 1489l148 209h248l82 -209h-140l-73 113l-115 -113h-150z" />
<glyph unicode="&#xc3;" horiz-adv-x="1134" d="M-70 0l619 1413h330l137 -1413h-244l-29 367h-407l-150 -367h-256zM410 555h325l-43 666h-6zM436 1556q23 43 82 91.5t127 48.5q52 0 131.5 -33t106.5 -33q57 0 106 76l60 -70q-16 -39 -76.5 -91t-130.5 -52q-52 0 -134 35t-102 35q-28 0 -58 -21.5t-52 -52.5z" />
<glyph unicode="&#xc4;" horiz-adv-x="1134" d="M-70 0l619 1413h330l137 -1413h-244l-29 367h-407l-150 -367h-256zM410 555h325l-43 666h-6zM483 1489l35 209h193l-37 -209h-191zM774 1489l35 209h190l-32 -209h-193z" />
<glyph unicode="&#xc5;" horiz-adv-x="1134" d="M-70 0l504 1155q-24 49 -24 121q0 69 25.5 120.5t69 79.5t92.5 41t105 13q44 0 83.5 -7.5t77.5 -25.5t65.5 -45.5t44 -71.5t16.5 -100q0 -111 -80 -184l107 -1096h-244l-29 367h-407l-150 -367h-256zM410 555h325l-30 469h-3q-55 0 -94 10zM600 1268q0 -40 28 -68.5 t68 -28.5t68.5 28.5t28.5 68.5t-28.5 68t-68.5 28t-68 -28t-28 -68z" />
<glyph unicode="&#xc6;" horiz-adv-x="1572" d="M-82 0l727 1413h1016l-33 -196h-506l-65 -402h481l-33 -188h-481l-76 -434h508l-31 -193h-755l61 367h-373l-186 -367h-254zM446 555h318l113 662h-93z" />
<glyph unicode="&#xc7;" horiz-adv-x="960" d="M86 303q0 140 51 430q21 120 43 212.5t49.5 165.5t55.5 124.5t67 88t77.5 58.5t94 35t110 17t130.5 4q81 0 167 -8.5t126 -18.5l-51 -192q-23 7 -101.5 14.5t-134.5 7.5q-41 0 -67.5 -1t-56.5 -6t-49.5 -13t-41.5 -23t-36.5 -35t-31.5 -51t-29 -69t-25.5 -90.5 t-25.5 -114t-26 -140.5q-43 -258 -43 -350q0 -36 5 -63t12.5 -46t25 -31.5t33 -19.5t45.5 -10.5t54.5 -4.5t68.5 -1q53 0 137 7.5t115 13.5l-21 -191q-83 -18 -262 -25l-39 -43q117 -17 117 -110q0 -174 -244 -174q-93 0 -147 28l51 93q51 -19 100 -19q35 0 58.5 15t23.5 45 q0 19 -23 27.5t-79 8.5h-70l117 129q-88 5 -147 22.5t-101.5 54.5t-62 98t-19.5 151z" />
<glyph unicode="&#xc8;" horiz-adv-x="980" d="M37 0l242 1413h770l-33 -196h-524l-68 -402h502l-31 -188h-504l-74 -434h529l-33 -193h-776zM487 1698h254l64 -209h-201z" />
<glyph unicode="&#xc9;" horiz-adv-x="980" d="M37 0l242 1413h770l-33 -196h-524l-68 -402h502l-31 -188h-504l-74 -434h529l-33 -193h-776zM547 1489l135 209h254l-186 -209h-203z" />
<glyph unicode="&#xca;" horiz-adv-x="980" d="M37 0l242 1413h770l-33 -196h-524l-68 -402h502l-31 -188h-504l-74 -434h529l-33 -193h-776zM440 1489l148 209h248l82 -209h-140l-73 113l-115 -113h-150z" />
<glyph unicode="&#xcb;" horiz-adv-x="980" d="M37 0l242 1413h770l-33 -196h-524l-68 -402h502l-31 -188h-504l-74 -434h529l-33 -193h-776zM436 1489l35 209h193l-37 -209h-191zM727 1489l35 209h190l-32 -209h-193z" />
<glyph unicode="&#xcc;" horiz-adv-x="522" d="M45 0l240 1413h245l-239 -1413h-246zM276 1698h254l64 -209h-201z" />
<glyph unicode="&#xcd;" horiz-adv-x="522" d="M45 0l240 1413h245l-239 -1413h-246zM240 1489l135 209h254l-187 -209h-202z" />
<glyph unicode="&#xce;" horiz-adv-x="522" d="M45 0l240 1413h245l-239 -1413h-246zM182 1489l148 209h248l81 -209h-139l-74 113l-114 -113h-150z" />
<glyph unicode="&#xcf;" horiz-adv-x="522" d="M45 0l240 1413h245l-239 -1413h-246zM182 1489l35 209h193l-37 -209h-191zM473 1489l35 209h190l-32 -209h-193z" />
<glyph unicode="&#xd0;" horiz-adv-x="1228" d="M35 618l35 205h108l101 590h485q79 0 136.5 -6t107.5 -20.5t82.5 -39t55.5 -63t33.5 -91t10.5 -122.5q0 -144 -39 -364q-27 -160 -54.5 -268.5t-67.5 -190.5t-83 -128t-112 -74t-144.5 -37t-189.5 -9h-463l104 618h-106zM317 193h211q48 0 80 3t65 12.5t54.5 25.5t44 45 t38 67t32.5 95.5t31.5 127t31.5 164.5q37 214 37 305q0 59 -11 94t-40.5 54t-67.5 25t-104 6h-227l-68 -394h223l-35 -205h-223z" />
<glyph unicode="&#xd1;" horiz-adv-x="1234" d="M37 0l242 1413h296l263 -1087l184 1087h225l-239 -1413h-299l-263 1081l-184 -1081h-225zM485 1556q23 43 82 91.5t127 48.5q52 0 131.5 -33t106.5 -33q57 0 106 76l60 -70q-16 -39 -76.5 -91t-130.5 -52q-52 0 -134 35t-102 35q-28 0 -58 -21.5t-52 -52.5z" />
<glyph unicode="&#xd2;" horiz-adv-x="1230" d="M86 313q0 159 47 418q17 97 33 174t35.5 143t38.5 115.5t45 90.5t51 69t60.5 49t70.5 33.5t83.5 20t96.5 10t113 2.5q95 0 160.5 -8.5t120.5 -30.5t87 -61.5t49 -101t17 -149.5q0 -151 -45 -405q-22 -125 -42.5 -217.5t-47 -167.5t-51.5 -125t-63.5 -87.5t-76 -58 t-95.5 -32.5t-114 -15.5t-141 -3.5q-96 0 -162 8t-120.5 29.5t-85.5 59.5t-47.5 97t-16.5 144zM336 346q0 -61 11 -97t40.5 -53.5t64 -22.5t97.5 -5q46 0 75.5 2.5t60 12t49.5 24.5t40 44.5t35 66t30 95.5t29.5 127.5t30.5 166.5q43 248 43 350q0 63 -11.5 100.5t-40.5 56 t-63 24t-94 5.5q-46 0 -76 -2.5t-61 -12t-50.5 -24.5t-40.5 -44t-35 -66t-30 -95.5t-29.5 -126.5t-29.5 -165q-45 -267 -45 -361zM561 1698h254l64 -209h-201z" />
<glyph unicode="&#xd3;" horiz-adv-x="1230" d="M86 313q0 159 47 418q17 97 33 174t35.5 143t38.5 115.5t45 90.5t51 69t60.5 49t70.5 33.5t83.5 20t96.5 10t113 2.5q95 0 160.5 -8.5t120.5 -30.5t87 -61.5t49 -101t17 -149.5q0 -151 -45 -405q-22 -125 -42.5 -217.5t-47 -167.5t-51.5 -125t-63.5 -87.5t-76 -58 t-95.5 -32.5t-114 -15.5t-141 -3.5q-96 0 -162 8t-120.5 29.5t-85.5 59.5t-47.5 97t-16.5 144zM336 346q0 -61 11 -97t40.5 -53.5t64 -22.5t97.5 -5q46 0 75.5 2.5t60 12t49.5 24.5t40 44.5t35 66t30 95.5t29.5 127.5t30.5 166.5q43 248 43 350q0 63 -11.5 100.5t-40.5 56 t-63 24t-94 5.5q-46 0 -76 -2.5t-61 -12t-50.5 -24.5t-40.5 -44t-35 -66t-30 -95.5t-29.5 -126.5t-29.5 -165q-45 -267 -45 -361zM625 1489l135 209h254l-187 -209h-202z" />
<glyph unicode="&#xd4;" horiz-adv-x="1230" d="M86 313q0 159 47 418q17 97 33 174t35.5 143t38.5 115.5t45 90.5t51 69t60.5 49t70.5 33.5t83.5 20t96.5 10t113 2.5q95 0 160.5 -8.5t120.5 -30.5t87 -61.5t49 -101t17 -149.5q0 -151 -45 -405q-22 -125 -42.5 -217.5t-47 -167.5t-51.5 -125t-63.5 -87.5t-76 -58 t-95.5 -32.5t-114 -15.5t-141 -3.5q-96 0 -162 8t-120.5 29.5t-85.5 59.5t-47.5 97t-16.5 144zM336 346q0 -61 11 -97t40.5 -53.5t64 -22.5t97.5 -5q46 0 75.5 2.5t60 12t49.5 24.5t40 44.5t35 66t30 95.5t29.5 127.5t30.5 166.5q43 248 43 350q0 63 -11.5 100.5t-40.5 56 t-63 24t-94 5.5q-46 0 -76 -2.5t-61 -12t-50.5 -24.5t-40.5 -44t-35 -66t-30 -95.5t-29.5 -126.5t-29.5 -165q-45 -267 -45 -361zM532 1489l148 209h248l82 -209h-140l-73 113l-115 -113h-150z" />
<glyph unicode="&#xd5;" horiz-adv-x="1230" d="M86 313q0 159 47 418q17 97 33 174t35.5 143t38.5 115.5t45 90.5t51 69t60.5 49t70.5 33.5t83.5 20t96.5 10t113 2.5q95 0 160.5 -8.5t120.5 -30.5t87 -61.5t49 -101t17 -149.5q0 -151 -45 -405q-22 -125 -42.5 -217.5t-47 -167.5t-51.5 -125t-63.5 -87.5t-76 -58 t-95.5 -32.5t-114 -15.5t-141 -3.5q-96 0 -162 8t-120.5 29.5t-85.5 59.5t-47.5 97t-16.5 144zM336 346q0 -61 11 -97t40.5 -53.5t64 -22.5t97.5 -5q46 0 75.5 2.5t60 12t49.5 24.5t40 44.5t35 66t30 95.5t29.5 127.5t30.5 166.5q43 248 43 350q0 63 -11.5 100.5t-40.5 56 t-63 24t-94 5.5q-46 0 -76 -2.5t-61 -12t-50.5 -24.5t-40.5 -44t-35 -66t-30 -95.5t-29.5 -126.5t-29.5 -165q-45 -267 -45 -361zM481 1556q23 43 82 91.5t127 48.5q52 0 131.5 -33t106.5 -33q57 0 106 76l60 -70q-16 -39 -76.5 -91t-130.5 -52q-52 0 -134 35t-102 35 q-28 0 -58 -21.5t-52 -52.5z" />
<glyph unicode="&#xd6;" horiz-adv-x="1230" d="M86 313q0 159 47 418q17 97 33 174t35.5 143t38.5 115.5t45 90.5t51 69t60.5 49t70.5 33.5t83.5 20t96.5 10t113 2.5q95 0 160.5 -8.5t120.5 -30.5t87 -61.5t49 -101t17 -149.5q0 -151 -45 -405q-22 -125 -42.5 -217.5t-47 -167.5t-51.5 -125t-63.5 -87.5t-76 -58 t-95.5 -32.5t-114 -15.5t-141 -3.5q-96 0 -162 8t-120.5 29.5t-85.5 59.5t-47.5 97t-16.5 144zM336 346q0 -61 11 -97t40.5 -53.5t64 -22.5t97.5 -5q46 0 75.5 2.5t60 12t49.5 24.5t40 44.5t35 66t30 95.5t29.5 127.5t30.5 166.5q43 248 43 350q0 63 -11.5 100.5t-40.5 56 t-63 24t-94 5.5q-46 0 -76 -2.5t-61 -12t-50.5 -24.5t-40.5 -44t-35 -66t-30 -95.5t-29.5 -126.5t-29.5 -165q-45 -267 -45 -361zM530 1489l35 209h193l-37 -209h-191zM821 1489l35 209h191l-33 -209h-193z" />
<glyph unicode="&#xd7;" horiz-adv-x="1097" d="M139 440q34 32 95 89t110.5 103.5t93.5 88.5l-252 278l131 123l50 -47q22 -24 202 -231l299 280l70 -73q10 -10 26.5 -30t18.5 -22l-299 -278q49 -53 142 -156t112 -123l-135 -127l-252 281q-34 -31 -93.5 -87.5t-109.5 -103.5t-94 -88z" />
<glyph unicode="&#xd8;" horiz-adv-x="1230" d="M86 313q0 159 47 418q17 97 33 174t35.5 143t38.5 115.5t45 90.5t51 69t60.5 49t70.5 33.5t83.5 20t96.5 10t113 2.5q95 0 160.5 -8.5t120.5 -30.5t87 -61.5t49 -101t17 -149.5q0 -151 -45 -405q-22 -125 -42.5 -217.5t-47 -167.5t-51.5 -125t-63.5 -87.5t-76 -58 t-95.5 -32.5t-114 -15.5t-141 -3.5q-96 0 -162 8t-120.5 29.5t-85.5 59.5t-47.5 97t-16.5 144zM342 446l586 715q-17 50 -62.5 66t-132.5 16q-46 0 -76 -2.5t-61 -12t-50.5 -24.5t-40.5 -44t-35 -66t-30 -95.5t-29.5 -126.5t-29.5 -165q-32 -183 -39 -261zM350 242 q19 -46 63.5 -60t135.5 -14q46 0 75.5 2.5t60 12t49.5 24.5t40 44.5t35 66t30 95.5t29.5 127.5t30.5 166.5q28 169 37 249z" />
<glyph unicode="&#xd9;" horiz-adv-x="1208" d="M100 299q0 64 21 197l155 917h246l-157 -919q-17 -94 -17 -148q0 -99 48.5 -139.5t164.5 -40.5q106 0 207 16l211 1231h244l-238 -1388q-81 -19 -221 -34.5t-219 -15.5q-125 0 -211 19.5t-137.5 61t-74 100.5t-22.5 143zM621 1698h253l64 -209h-201z" />
<glyph unicode="&#xda;" horiz-adv-x="1208" d="M100 299q0 64 21 197l155 917h246l-157 -919q-17 -94 -17 -148q0 -99 48.5 -139.5t164.5 -40.5q106 0 207 16l211 1231h244l-238 -1388q-81 -19 -221 -34.5t-219 -15.5q-125 0 -211 19.5t-137.5 61t-74 100.5t-22.5 143zM584 1489l135 209h254l-187 -209h-202z" />
<glyph unicode="&#xdb;" horiz-adv-x="1208" d="M100 299q0 64 21 197l155 917h246l-157 -919q-17 -94 -17 -148q0 -99 48.5 -139.5t164.5 -40.5q106 0 207 16l211 1231h244l-238 -1388q-81 -19 -221 -34.5t-219 -15.5q-125 0 -211 19.5t-137.5 61t-74 100.5t-22.5 143zM520 1489l148 209h247l82 -209h-139l-74 113 l-114 -113h-150z" />
<glyph unicode="&#xdc;" horiz-adv-x="1208" d="M100 299q0 64 21 197l155 917h246l-157 -919q-17 -94 -17 -148q0 -99 48.5 -139.5t164.5 -40.5q106 0 207 16l211 1231h244l-238 -1388q-81 -19 -221 -34.5t-219 -15.5q-125 0 -211 19.5t-137.5 61t-74 100.5t-22.5 143zM520 1489l35 209h193l-37 -209h-191zM811 1489 l35 209h190l-32 -209h-193z" />
<glyph unicode="&#xdd;" d="M170 1413h242l163 -649l383 649h252l-551 -903l-88 -510h-245l84 510zM522 1489l135 209h254l-186 -209h-203z" />
<glyph unicode="&#xde;" horiz-adv-x="1132" d="M37 0l242 1413h247l-39 -225h226q207 0 297 -78.5t90 -235.5q0 -64 -19 -176q-18 -102 -48 -174t-72 -119t-104 -74t-134 -37.5t-172 -10.5h-219l-47 -283h-248zM365 467h213q68 0 114 14t76 48t47.5 81.5t30.5 122.5q12 90 12 113q0 87 -47.5 116t-171.5 29h-184z" />
<glyph unicode="&#xdf;" horiz-adv-x="1132" d="M29 0l182 1063q26 152 80 231.5t154 112.5t280 33q217 0 306 -48.5t89 -179.5q0 -115 -19.5 -191t-62 -119.5t-92.5 -64t-129 -34.5h4l-6 -41q119 -20 172 -67.5t53 -155.5q0 -45 -14 -138q-21 -120 -56 -195t-98 -121t-146.5 -64.5t-213.5 -20.5h-135q6 30 16.5 93 t16.5 93q61 0 101 2t83 8.5t69 19t52 33t40.5 52t25.5 74t16 100.5q6 27 6 53q0 36 -7 61.5t-25 42.5t-39.5 27.5t-60.5 16t-77.5 7t-99.5 1.5l28 174q112 0 180 12.5t110 46.5t57.5 86.5t15.5 139.5q0 74 -41.5 97.5t-149.5 23.5q-88 0 -133 -18t-66.5 -59t-35.5 -126 l-183 -1061h-247z" />
<glyph unicode="&#xe0;" horiz-adv-x="1042" d="M23 229q0 61 12 131q12 76 30.5 129t49.5 91.5t67.5 61t95.5 35.5t122.5 17t158.5 4h143q2 17 7 49.5t8.5 57.5t3.5 41q0 60 -38.5 86t-131.5 26q-86 0 -187 -19t-167 -38l-7 186q60 24 174.5 44t233.5 20q183 0 276 -63t93 -214q0 -26 -17 -137l-123 -737h-229l8 98 q-45 -51 -121.5 -87t-177.5 -36q-284 0 -284 254zM266 276q0 -67 34.5 -93.5t111.5 -26.5q103 0 209 71l55 312h-117q-59 0 -95 -2t-69.5 -9t-51 -18.5t-33 -33.5t-23.5 -51t-15 -73q-6 -46 -6 -76zM426 1413h254l63 -209h-200z" />
<glyph unicode="&#xe1;" horiz-adv-x="1042" d="M23 229q0 61 12 131q12 76 30.5 129t49.5 91.5t67.5 61t95.5 35.5t122.5 17t158.5 4h143q2 17 7 49.5t8.5 57.5t3.5 41q0 60 -38.5 86t-131.5 26q-86 0 -187 -19t-167 -38l-7 186q60 24 174.5 44t233.5 20q183 0 276 -63t93 -214q0 -26 -17 -137l-123 -737h-229l8 98 q-45 -51 -121.5 -87t-177.5 -36q-284 0 -284 254zM266 276q0 -67 34.5 -93.5t111.5 -26.5q103 0 209 71l55 312h-117q-59 0 -95 -2t-69.5 -9t-51 -18.5t-33 -33.5t-23.5 -51t-15 -73q-6 -46 -6 -76zM451 1204l135 209h254l-187 -209h-202z" />
<glyph unicode="&#xe2;" horiz-adv-x="1042" d="M23 229q0 61 12 131q12 76 30.5 129t49.5 91.5t67.5 61t95.5 35.5t122.5 17t158.5 4h143q2 17 7 49.5t8.5 57.5t3.5 41q0 60 -38.5 86t-131.5 26q-86 0 -187 -19t-167 -38l-7 186q60 24 174.5 44t233.5 20q183 0 276 -63t93 -214q0 -26 -17 -137l-123 -737h-229l8 98 q-45 -51 -121.5 -87t-177.5 -36q-284 0 -284 254zM266 276q0 -67 34.5 -93.5t111.5 -26.5q103 0 209 71l55 312h-117q-59 0 -95 -2t-69.5 -9t-51 -18.5t-33 -33.5t-23.5 -51t-15 -73q-6 -46 -6 -76zM389 1204l148 209h247l82 -209h-139l-74 113l-114 -113h-150z" />
<glyph unicode="&#xe3;" horiz-adv-x="1042" d="M23 229q0 61 12 131q12 76 30.5 129t49.5 91.5t67.5 61t95.5 35.5t122.5 17t158.5 4h143q2 17 7 49.5t8.5 57.5t3.5 41q0 60 -38.5 86t-131.5 26q-86 0 -187 -19t-167 -38l-7 186q60 24 174.5 44t233.5 20q183 0 276 -63t93 -214q0 -26 -17 -137l-123 -737h-229l8 98 q-45 -51 -121.5 -87t-177.5 -36q-284 0 -284 254zM266 276q0 -67 34.5 -93.5t111.5 -26.5q103 0 209 71l55 312h-117q-59 0 -95 -2t-69.5 -9t-51 -18.5t-33 -33.5t-23.5 -51t-15 -73q-6 -46 -6 -76zM340 1272q23 42 82 90.5t127 48.5q52 0 131 -32.5t106 -32.5t56 20.5 t51 54.5l59 -69q-16 -39 -76.5 -91.5t-130.5 -52.5q-52 0 -133.5 35t-101.5 35q-28 0 -59 -21.5t-52 -52.5z" />
<glyph unicode="&#xe4;" horiz-adv-x="1042" d="M23 229q0 61 12 131q12 76 30.5 129t49.5 91.5t67.5 61t95.5 35.5t122.5 17t158.5 4h143q2 17 7 49.5t8.5 57.5t3.5 41q0 60 -38.5 86t-131.5 26q-86 0 -187 -19t-167 -38l-7 186q60 24 174.5 44t233.5 20q183 0 276 -63t93 -214q0 -26 -17 -137l-123 -737h-229l8 98 q-45 -51 -121.5 -87t-177.5 -36q-284 0 -284 254zM266 276q0 -67 34.5 -93.5t111.5 -26.5q103 0 209 71l55 312h-117q-59 0 -95 -2t-69.5 -9t-51 -18.5t-33 -33.5t-23.5 -51t-15 -73q-6 -46 -6 -76zM389 1204l35 209h192l-36 -209h-191zM680 1204l35 209h190l-33 -209h-192z " />
<glyph unicode="&#xe5;" horiz-adv-x="958" d="M-12 229q0 61 12 131q12 76 30.5 129t49.5 91.5t67.5 61t95.5 35.5t122.5 17t158.5 4h144q2 16 7 49t8 58t3 41q0 60 -38.5 86t-131.5 26q-86 0 -187 -19t-167 -38l-6 186q60 24 174 44t233 20q183 0 276 -63t93 -214q0 -26 -17 -137l-122 -737h-230l8 98 q-45 -51 -121.5 -87t-177.5 -36q-284 0 -284 254zM231 276q0 -67 34.5 -93.5t111.5 -26.5q103 0 209 71l55 312h-117q-59 0 -95 -2t-69 -9t-50.5 -18.5t-33 -33.5t-23.5 -50.5t-15 -73.5q-7 -54 -7 -76zM389 1333q0 102 75 154.5t183 52.5q87 0 141 -34.5t54 -104.5 q0 -71 -38 -120t-93.5 -69t-122.5 -20q-89 0 -144 35t-55 106zM514 1350q0 -29 21.5 -42.5t68.5 -13.5q115 0 115 88q0 30 -20.5 43t-69.5 13q-115 0 -115 -88z" />
<glyph unicode="&#xe6;" horiz-adv-x="1634" d="M25 229q0 61 12 131q9 51 20 90t29.5 70.5t39 53t52.5 37t65.5 25t84.5 15t101.5 7t123.5 1.5h141l25 132q4 25 4 53q0 62 -38.5 88t-133.5 26q-85 0 -185.5 -19t-166.5 -38l-6 186q59 24 167.5 44t227.5 20q216 0 291 -90q56 50 136 70t202 20q178 0 268 -58t90 -184 q0 -124 -22.5 -201.5t-84.5 -130.5t-166.5 -74.5t-271.5 -21.5h-137q-12 -95 -12 -139q0 -109 53 -143.5t186 -34.5q69 0 168.5 16.5t149.5 32.5v-190q-64 -17 -178 -32.5t-211 -15.5q-144 0 -231 34t-126 110q-88 -74 -179.5 -109t-203.5 -35q-141 0 -212.5 61.5 t-71.5 192.5zM266 276q0 -67 34.5 -93.5t113.5 -26.5q61 0 114 25t129 79q0 5 -1 14.5t-1 14.5v35q0 26 6.5 85.5t8.5 90.5h-117q-71 0 -116 -4.5t-75.5 -13.5t-47.5 -28t-25 -41t-15 -61q-8 -41 -8 -76zM918 641h110q196 0 252 39q33 25 50.5 74.5t17.5 101.5 q0 53 -38 77.5t-126 24.5q-126 0 -178.5 -61t-83.5 -242z" />
<glyph unicode="&#xe7;" horiz-adv-x="856" d="M68 297q0 115 30 285q21 118 45.5 204t58.5 150.5t74 105t96.5 65.5t120.5 34.5t152 9.5q155 0 262 -33l-47 -186q-22 6 -97.5 16t-111.5 10q-63 0 -104.5 -10t-75.5 -34t-56.5 -71.5t-40.5 -113t-36 -168.5q-25 -141 -25 -221q0 -108 49 -142t177 -34q68 0 200 24 l-18 -186q-109 -22 -223 -27l-39 -41q116 -17 116 -110q0 -174 -243 -174q-94 0 -148 28l52 93q51 -19 100 -19q35 0 58.5 15t23.5 45q0 19 -23.5 27.5t-79.5 8.5h-69l116 132q-155 14 -224.5 87t-69.5 230z" />
<glyph unicode="&#xe8;" horiz-adv-x="1062" d="M70 309q0 103 28 273q22 123 46.5 210.5t59 152t73.5 104t96.5 62.5t120.5 31.5t153 8.5q178 0 268.5 -58t90.5 -184q0 -93 -20 -175t-54 -134q-18 -28 -43.5 -49t-52 -35.5t-70.5 -24t-81 -15t-103.5 -8t-117.5 -3t-142 -0.5q-11 -81 -11 -123q0 -108 53 -143t185 -35 q70 0 168 16t151 33v-190q-64 -17 -178 -32.5t-213 -15.5q-213 0 -310 77t-97 257zM346 625q169 0 249.5 7.5t113.5 31.5q32 24 49.5 81t17.5 111q0 53 -37 77.5t-125 24.5q-127 0 -179 -61t-83 -246zM477 1413h254l64 -209h-201z" />
<glyph unicode="&#xe9;" horiz-adv-x="1062" d="M70 309q0 103 28 273q22 123 46.5 210.5t59 152t73.5 104t96.5 62.5t120.5 31.5t153 8.5q178 0 268.5 -58t90.5 -184q0 -93 -20 -175t-54 -134q-18 -28 -43.5 -49t-52 -35.5t-70.5 -24t-81 -15t-103.5 -8t-117.5 -3t-142 -0.5q-11 -81 -11 -123q0 -108 53 -143t185 -35 q70 0 168 16t151 33v-190q-64 -17 -178 -32.5t-213 -15.5q-213 0 -310 77t-97 257zM346 625q169 0 249.5 7.5t113.5 31.5q32 24 49.5 81t17.5 111q0 53 -37 77.5t-125 24.5q-127 0 -179 -61t-83 -246zM524 1204l135 209h254l-186 -209h-203z" />
<glyph unicode="&#xea;" horiz-adv-x="1062" d="M70 309q0 103 28 273q22 123 46.5 210.5t59 152t73.5 104t96.5 62.5t120.5 31.5t153 8.5q178 0 268.5 -58t90.5 -184q0 -93 -20 -175t-54 -134q-18 -28 -43.5 -49t-52 -35.5t-70.5 -24t-81 -15t-103.5 -8t-117.5 -3t-142 -0.5q-11 -81 -11 -123q0 -108 53 -143t185 -35 q70 0 168 16t151 33v-190q-64 -17 -178 -32.5t-213 -15.5q-213 0 -310 77t-97 257zM346 625q169 0 249.5 7.5t113.5 31.5q32 24 49.5 81t17.5 111q0 53 -37 77.5t-125 24.5q-127 0 -179 -61t-83 -246zM412 1204l147 209h248l82 -209h-139l-74 113l-115 -113h-149z" />
<glyph unicode="&#xeb;" horiz-adv-x="1062" d="M70 309q0 103 28 273q22 123 46.5 210.5t59 152t73.5 104t96.5 62.5t120.5 31.5t153 8.5q178 0 268.5 -58t90.5 -184q0 -93 -20 -175t-54 -134q-18 -28 -43.5 -49t-52 -35.5t-70.5 -24t-81 -15t-103.5 -8t-117.5 -3t-142 -0.5q-11 -81 -11 -123q0 -108 53 -143t185 -35 q70 0 168 16t151 33v-190q-64 -17 -178 -32.5t-213 -15.5q-213 0 -310 77t-97 257zM346 625q169 0 249.5 7.5t113.5 31.5q32 24 49.5 81t17.5 111q0 53 -37 77.5t-125 24.5q-127 0 -179 -61t-83 -246zM416 1204l35 209h192l-37 -209h-190zM707 1204l34 209h191l-33 -209 h-192z" />
<glyph unicode="&#xec;" horiz-adv-x="493" d="M29 0l190 1126h246l-191 -1126h-245zM178 1413h254l64 -209h-201z" />
<glyph unicode="&#xed;" horiz-adv-x="493" d="M29 0l190 1126h246l-191 -1126h-245zM217 1204l135 209h254l-186 -209h-203z" />
<glyph unicode="&#xee;" horiz-adv-x="493" d="M29 0l190 1126h246l-191 -1126h-245zM119 1204l147 209h248l82 -209h-139l-74 113l-115 -113h-149z" />
<glyph unicode="&#xef;" horiz-adv-x="493" d="M29 0l190 1126h246l-191 -1126h-245zM119 1204l35 209h192l-37 -209h-190zM410 1204l34 209h191l-33 -209h-192z" />
<glyph unicode="&#xf0;" horiz-adv-x="1116" d="M68 287q0 93 34 299q21 122 42.5 204.5t53 149t69 104.5t95.5 63.5t127.5 34.5t169.5 9q51 0 97 -12q-11 33 -62 100l-186 -43q-3 19 -7 59.5t-7 59.5l114 24l-63 64l-37 29h272q18 -12 49 -43q33 8 175 38q4 -78 4 -118l-90 -21q129 -175 129 -440q0 -126 -31 -307 q-21 -122 -42 -205t-53 -149.5t-70 -105t-96.5 -63.5t-128 -34t-169.5 -9q-214 0 -301.5 70.5t-87.5 241.5zM311 311q0 -89 38 -118t140 -29q51 0 84.5 5t62.5 23t47 43t35 74.5t29.5 107t28.5 150.5q29 179 29 250q0 88 -37 114.5t-141 26.5q-51 0 -83.5 -4.5t-62 -21 t-47 -40.5t-35 -71t-30 -105t-27.5 -149q-31 -178 -31 -256z" />
<glyph unicode="&#xf1;" horiz-adv-x="1110" d="M25 0l190 1126h238l-17 -96q46 34 83 56t105.5 43.5t139.5 21.5q134 0 201 -67.5t67 -194.5q0 -67 -10 -123l-129 -766h-240l131 778q7 35 7 58q0 131 -142 131q-107 0 -227 -74l-154 -893h-243zM375 1272q23 42 82 90.5t127 48.5q52 0 131 -32.5t106 -32.5t56 20.5 t51 54.5l59 -69q-16 -39 -76.5 -91.5t-130.5 -52.5q-52 0 -133.5 35t-101.5 35q-28 0 -59 -21.5t-52 -52.5z" />
<glyph unicode="&#xf2;" horiz-adv-x="1116" d="M68 285q0 97 34 299q22 123 43 205.5t52 149.5t68 105t94.5 63.5t126 34.5t167.5 9q216 0 306 -70.5t90 -240.5q0 -103 -33 -299q-21 -120 -42 -202.5t-52.5 -149t-69.5 -105t-95.5 -64.5t-126.5 -35.5t-167 -9.5q-215 0 -305 70.5t-90 239.5zM311 311q0 -89 38 -118 t140 -29q51 0 84.5 5t62.5 23t47 43t35 74.5t29.5 107t28.5 150.5q29 179 29 250q0 88 -37 114.5t-141 26.5q-51 0 -83.5 -4.5t-62 -21t-47 -40.5t-35 -71t-30 -105t-27.5 -149q-31 -178 -31 -256zM444 1413h254l64 -209h-201z" />
<glyph unicode="&#xf3;" horiz-adv-x="1116" d="M68 285q0 97 34 299q22 123 43 205.5t52 149.5t68 105t94.5 63.5t126 34.5t167.5 9q216 0 306 -70.5t90 -240.5q0 -103 -33 -299q-21 -120 -42 -202.5t-52.5 -149t-69.5 -105t-95.5 -64.5t-126.5 -35.5t-167 -9.5q-215 0 -305 70.5t-90 239.5zM311 311q0 -89 38 -118 t140 -29q51 0 84.5 5t62.5 23t47 43t35 74.5t29.5 107t28.5 150.5q29 179 29 250q0 88 -37 114.5t-141 26.5q-51 0 -83.5 -4.5t-62 -21t-47 -40.5t-35 -71t-30 -105t-27.5 -149q-31 -178 -31 -256zM545 1204l135 209h254l-186 -209h-203z" />
<glyph unicode="&#xf4;" horiz-adv-x="1116" d="M68 285q0 97 34 299q22 123 43 205.5t52 149.5t68 105t94.5 63.5t126 34.5t167.5 9q216 0 306 -70.5t90 -240.5q0 -103 -33 -299q-21 -120 -42 -202.5t-52.5 -149t-69.5 -105t-95.5 -64.5t-126.5 -35.5t-167 -9.5q-215 0 -305 70.5t-90 239.5zM311 311q0 -89 38 -118 t140 -29q51 0 84.5 5t62.5 23t47 43t35 74.5t29.5 107t28.5 150.5q29 179 29 250q0 88 -37 114.5t-141 26.5q-51 0 -83.5 -4.5t-62 -21t-47 -40.5t-35 -71t-30 -105t-27.5 -149q-31 -178 -31 -256zM414 1204l147 209h248l82 -209h-139l-74 113l-115 -113h-149z" />
<glyph unicode="&#xf5;" horiz-adv-x="1116" d="M68 285q0 97 34 299q22 123 43 205.5t52 149.5t68 105t94.5 63.5t126 34.5t167.5 9q216 0 306 -70.5t90 -240.5q0 -103 -33 -299q-21 -120 -42 -202.5t-52.5 -149t-69.5 -105t-95.5 -64.5t-126.5 -35.5t-167 -9.5q-215 0 -305 70.5t-90 239.5zM311 311q0 -89 38 -118 t140 -29q51 0 84.5 5t62.5 23t47 43t35 74.5t29.5 107t28.5 150.5q29 179 29 250q0 88 -37 114.5t-141 26.5q-51 0 -83.5 -4.5t-62 -21t-47 -40.5t-35 -71t-30 -105t-27.5 -149q-31 -178 -31 -256zM377 1272q23 42 82 90.5t127 48.5q52 0 131 -32.5t106 -32.5t56 20.5 t51 54.5l59 -69q-16 -39 -76.5 -91.5t-130.5 -52.5q-52 0 -133.5 35t-101.5 35q-28 0 -59 -21.5t-52 -52.5z" />
<glyph unicode="&#xf6;" horiz-adv-x="1116" d="M68 285q0 97 34 299q22 123 43 205.5t52 149.5t68 105t94.5 63.5t126 34.5t167.5 9q216 0 306 -70.5t90 -240.5q0 -103 -33 -299q-21 -120 -42 -202.5t-52.5 -149t-69.5 -105t-95.5 -64.5t-126.5 -35.5t-167 -9.5q-215 0 -305 70.5t-90 239.5zM311 311q0 -89 38 -118 t140 -29q51 0 84.5 5t62.5 23t47 43t35 74.5t29.5 107t28.5 150.5q29 179 29 250q0 88 -37 114.5t-141 26.5q-51 0 -83.5 -4.5t-62 -21t-47 -40.5t-35 -71t-30 -105t-27.5 -149q-31 -178 -31 -256zM432 1204l35 209h192l-36 -209h-191zM723 1204l35 209h190l-33 -209h-192z " />
<glyph unicode="&#xf7;" horiz-adv-x="1009" d="M106 635l31 174h821l-28 -174h-824zM305 158l43 254h258l-43 -254h-258zM455 1028l41 256h258l-43 -256h-256z" />
<glyph unicode="&#xf8;" horiz-adv-x="1116" d="M68 285q0 97 34 299q22 123 43 205.5t52 149.5t68 105t94.5 63.5t126 34.5t167.5 9q216 0 306 -70.5t90 -240.5q0 -103 -33 -299q-21 -120 -42 -202.5t-52.5 -149t-69.5 -105t-95.5 -64.5t-126.5 -35.5t-167 -9.5q-215 0 -305 70.5t-90 239.5zM317 418l480 467 q-11 43 -50 58t-120 15q-51 0 -83.5 -4.5t-62 -21t-47 -40.5t-35 -71t-30 -105t-27.5 -149zM322 233q14 -41 52 -55t115 -14q51 0 84.5 5t62.5 23t47 43t35 74.5t29.5 107t28.5 150.5q15 92 19 129z" />
<glyph unicode="&#xf9;" horiz-adv-x="1099" d="M72 238q0 50 14 143l125 745h242l-131 -782q-9 -61 -9 -70q0 -62 31 -90t98 -28q103 0 242 73l154 897h241l-190 -1126h-232l15 94q-58 -51 -145.5 -85t-186.5 -34q-136 0 -202 63t-66 200zM518 1413h254l64 -209h-201z" />
<glyph unicode="&#xfa;" horiz-adv-x="1099" d="M72 238q0 50 14 143l125 745h242l-131 -782q-9 -61 -9 -70q0 -62 31 -90t98 -28q103 0 242 73l154 897h241l-190 -1126h-232l15 94q-58 -51 -145.5 -85t-186.5 -34q-136 0 -202 63t-66 200zM481 1204l135 209h254l-186 -209h-203z" />
<glyph unicode="&#xfb;" horiz-adv-x="1099" d="M72 238q0 50 14 143l125 745h242l-131 -782q-9 -61 -9 -70q0 -62 31 -90t98 -28q103 0 242 73l154 897h241l-190 -1126h-232l15 94q-58 -51 -145.5 -85t-186.5 -34q-136 0 -202 63t-66 200zM418 1204l147 209h248l82 -209h-139l-74 113l-115 -113h-149z" />
<glyph unicode="&#xfc;" horiz-adv-x="1099" d="M72 238q0 50 14 143l125 745h242l-131 -782q-9 -61 -9 -70q0 -62 31 -90t98 -28q103 0 242 73l154 897h241l-190 -1126h-232l15 94q-58 -51 -145.5 -85t-186.5 -34q-136 0 -202 63t-66 200zM418 1204l35 209h192l-37 -209h-190zM709 1204l34 209h191l-33 -209h-192z" />
<glyph unicode="&#xfd;" horiz-adv-x="1013" d="M117 1126h237l84 -919l402 919h250l-656 -1415h-248l142 289h-74zM465 1204l135 209h254l-186 -209h-203z" />
<glyph unicode="&#xfe;" horiz-adv-x="1128" d="M-20 -289l288 1702l250 25l-65 -371l2 -2q41 35 122 59.5t183 24.5q156 0 230.5 -74.5t74.5 -232.5q0 -105 -31 -283q-39 -218 -98.5 -343t-149.5 -180.5t-229 -55.5q-197 0 -274 77l-60 -346h-243zM309 215q17 -19 80 -35t119 -16q83 0 133.5 34t87 121t66.5 250 q24 141 24 226q0 95 -42 131.5t-136 36.5q-124 0 -211 -37z" />
<glyph unicode="&#xff;" horiz-adv-x="1013" d="M117 1126h237l84 -919l402 919h250l-656 -1415h-248l142 289h-74zM375 1204l35 209h192l-37 -209h-190zM666 1204l34 209h191l-33 -209h-192z" />
<glyph unicode="&#x152;" horiz-adv-x="1697" d="M92 369q0 137 41 374q20 116 39.5 203t45 157.5t51.5 118t64 83.5t76 56t95 32.5t114 16t140 3.5h1009l-34 -196h-525l-67 -402h501l-30 -188h-504l-74 -434h529l-33 -193h-989q-124 0 -205.5 17t-138 59t-81 113t-24.5 180zM344 387q0 -66 12 -104.5t43 -58.5 t68.5 -25.5t105.5 -5.5h213l175 1024h-226q-63 0 -102 -5t-75.5 -24.5t-57.5 -49t-42.5 -88t-37 -130.5t-35.5 -187q-41 -221 -41 -346z" />
<glyph unicode="&#x153;" horiz-adv-x="1732" d="M68 285q0 97 34 299q22 123 43 205.5t52 149.5t68 105t94.5 63.5t126 34.5t167.5 9q224 0 308 -117q57 64 140.5 90.5t213.5 26.5q178 0 268 -58t90 -184q0 -84 -6 -145.5t-28 -109.5t-40.5 -79t-69.5 -53t-88 -33t-122.5 -16.5t-145.5 -6.5t-184 -1q-10 -74 -10 -123 q0 -108 53 -143t185 -35q70 0 168 16t151 33v-190q-64 -17 -178 -32.5t-213 -15.5q-125 0 -204 30.5t-120 96.5q-57 -67 -142 -97t-216 -30q-215 0 -305 70.5t-90 239.5zM311 311q0 -89 38 -118t140 -29q51 0 84.5 5t62.5 23t47 43t35 74.5t29.5 107t28.5 150.5 q29 179 29 250q0 88 -37 114.5t-141 26.5q-51 0 -83.5 -4.5t-62 -21t-47 -40.5t-35 -71t-30 -105t-27.5 -149q-31 -178 -31 -256zM1014 625q169 0 250 7.5t112 31.5q33 24 50.5 81t17.5 111q0 53 -37 77.5t-125 24.5q-127 0 -179 -61t-83 -246z" />
<glyph unicode="&#x178;" d="M170 1413h242l163 -649l383 649h252l-551 -903l-88 -510h-245l84 510zM459 1489l35 209h192l-37 -209h-190zM750 1489l34 209h191l-33 -209h-192z" />
<glyph unicode="&#x2c6;" horiz-adv-x="632" d="M186 1204l148 209h248l82 -209h-140l-73 113l-115 -113h-150z" />
<glyph unicode="&#x2dc;" horiz-adv-x="698" d="M166 1272q23 42 82 90.5t127 48.5q52 0 131 -32.5t106 -32.5t56 20.5t51 54.5l59 -69q-16 -39 -76.5 -91.5t-130.5 -52.5q-52 0 -133.5 35t-101.5 35q-28 0 -59 -21.5t-52 -52.5z" />
<glyph unicode="&#x2000;" horiz-adv-x="853" />
<glyph unicode="&#x2001;" horiz-adv-x="1706" />
<glyph unicode="&#x2002;" horiz-adv-x="853" />
<glyph unicode="&#x2003;" horiz-adv-x="1706" />
<glyph unicode="&#x2004;" horiz-adv-x="568" />
<glyph unicode="&#x2005;" horiz-adv-x="426" />
<glyph unicode="&#x2006;" horiz-adv-x="284" />
<glyph unicode="&#x2007;" horiz-adv-x="284" />
<glyph unicode="&#x2008;" horiz-adv-x="213" />
<glyph unicode="&#x2009;" horiz-adv-x="341" />
<glyph unicode="&#x200a;" horiz-adv-x="94" />
<glyph unicode="&#x2010;" horiz-adv-x="507" d="M31 508l30 178h428l-30 -178h-428z" />
<glyph unicode="&#x2011;" horiz-adv-x="507" d="M31 508l30 178h428l-30 -178h-428z" />
<glyph unicode="&#x2012;" horiz-adv-x="507" d="M31 508l30 178h428l-30 -178h-428z" />
<glyph unicode="&#x2013;" horiz-adv-x="1009" d="M-4 504l29 178h1001l-29 -178h-1001z" />
<glyph unicode="&#x2014;" horiz-adv-x="2002" d="M-4 504l29 178h1994l-28 -178h-1995z" />
<glyph unicode="&#x2018;" horiz-adv-x="348" d="M117 928l41 239l166 246h116l-137 -246h94l-39 -239h-241z" />
<glyph unicode="&#x2019;" horiz-adv-x="348" d="M117 928l139 246h-96l41 239h239l-41 -239l-168 -246h-114z" />
<glyph unicode="&#x201a;" horiz-adv-x="348" d="M-82 -246l137 246h-96l41 238h240l-41 -238l-168 -246h-113z" />
<glyph unicode="&#x201c;" horiz-adv-x="677" d="M117 928l41 239l166 246h116l-137 -246h94l-39 -239h-241zM442 928l41 239l166 246h117l-137 -246h94l-39 -239h-242z" />
<glyph unicode="&#x201d;" horiz-adv-x="677" d="M117 928l139 246h-96l41 239h239l-41 -239l-168 -246h-114zM442 928l140 246h-97l41 239h240l-41 -239l-168 -246h-115z" />
<glyph unicode="&#x201e;" horiz-adv-x="677" d="M-82 -246l137 246h-96l41 238h240l-41 -238l-168 -246h-113zM244 -246l137 246h-96l41 238h239l-41 -238l-168 -246h-112z" />
<glyph unicode="&#x2022;" horiz-adv-x="921" d="M61 662q0 166 117 282.5t283 116.5q167 0 283 -116.5t116 -282.5t-116 -284t-281 -118q-167 0 -284.5 118t-117.5 284z" />
<glyph unicode="&#x2026;" horiz-adv-x="1132" d="M-31 0l43 254h258l-43 -254h-258zM342 0l43 254h260l-45 -254h-258zM717 0l43 254h256l-43 -254h-256z" />
<glyph unicode="&#x202f;" horiz-adv-x="341" />
<glyph unicode="&#x2039;" horiz-adv-x="460" d="M43 555l270 463h195l-252 -483l94 -441h-184z" />
<glyph unicode="&#x203a;" horiz-adv-x="460" d="M-51 94l252 481l-95 443h193l117 -463l-269 -461h-198z" />
<glyph unicode="&#x205f;" horiz-adv-x="426" />
<glyph unicode="&#x20ac;" horiz-adv-x="1064" d="M43 465l29 153h141l31 177h-144l27 155h149q26 104 57 181t71 131t83.5 88.5t103.5 54t122 26.5t147 7q81 0 167 -8.5t126 -18.5l-49 -192q-25 8 -103 15t-135 7q-77 0 -123 -8.5t-89.5 -38.5t-72 -88t-53.5 -156h492l-47 -155h-477q-10 -39 -17 -93l-14 -84h450 l-45 -153h-428q-8 -57 -8 -113q0 -37 5 -64.5t13 -47t25 -32.5t33 -20t46 -10.5t54.5 -4.5t67.5 -1q53 0 138.5 8t111.5 13l-19 -191q-42 -8 -139 -17.5t-170 -9.5q-235 0 -327.5 78t-92.5 269q0 28 13 143h-150z" />
<glyph unicode="&#x2122;" horiz-adv-x="1099" d="M145 1307l17 106h391l-18 -106h-121q-5 -33 -76 -437h-143l73 437h-123zM518 870l92 543h191l24 -371l148 371h205l-95 -543h-135l62 349l-150 -349h-121l-28 344l-60 -344h-133z" />
<glyph unicode="&#x25fc;" horiz-adv-x="1126" d="M0 0v1126h1126v-1126h-1126z" />
</font>
</defs>
</svg>
